<svg width="162" height="35" fill="none" xmlns="http://www.w3.org/2000/svg"><path d="M32.66 12.396l-1.736.658-.167.468-.389.253c-.11-1.441-.181-2.013-.212-2.013l.627-.008 1.154-1.409-1.678.72-.152.49-1.647 1.25c.036.309.13 1.247.067 2.165l.364-.245c.158 6.865-2.98 9.447-2.98 9.447-.794-.366-.999-.634-.999-.634 2.863-3.19 2.731-7.8 2.726-7.965l-.301.199s.123-1.459.043-2.149l-.528.4c-.012-.47-.04-.862-.072-1.136.32.021.648-.027.918-.221.285-.207.436-.817.484-1.079.047-.26-.008-.349-.167-.451-.158-.102-.49-.404-.626-.54 0 0 .273-.117.911.183.69.326 1.212.167 1.8-.704l-.705.103.062-.487a.34.34 0 01.036.02c.098.067.432.19.59.221.159.032.154.009.254.069.1.058.185.083.238.058 0 0 .394.221.552 0 0 0 .152.09.229.118.118.044.31.112.372.1.063-.013.214.051.238.063.249.125.4.06.436 0 .036-.06-.155-.257-.302-.38s-.273-.146-.273-.146c.048-.032.035-.08-.06-.195-.095-.116-.407-.27-.407-.27.004-.091-.354-.313-.566-.475-.216-.162-.128-.154-.354-.387-.225-.235-1.26-1.056-1.775-1.424-.515-.367-1.929-1.445-3.139-1.834-1.206-.389-1.922-.3-2.432.016-.512.317-.385.741-.293 1.003.09.262.266.59.37.792.102.203.018.199-.03.231-.046.03.004.11-.042.102-.047-.007-.077.052-.136.12-.03.033-.118.063-.232.086-.022-.096.038-.167.038-.167a.68.68 0 00-.217-.062c.016-.034.079-.057.079-.057-.087-.022-.254.007-.254.007.027-.043.051-.05.051-.05-.156-.053-.296.074-.352.136a1.207 1.207 0 00-.245-.293c-.095-.088-.143-.215-.244-.314 0 0 .083-.125.023-.25a.544.544 0 00-.315-.25s.084-.043.072-.138c-.012-.094-.1-.13-.196-.1s-.207.03-.28.095c0 0-.077.009-.138 0 .078-.26.117-.616-.33-.891-.51-.317-1.223-.405-2.432-.016-1.208.39-2.623 1.466-3.137 1.834-.515.367-1.55 1.188-1.774 1.423-.227.233-.14.225-.353.388-.215.162-.571.383-.567.475 0 0-.313.154-.408.27-.095.114-.107.162-.06.194 0 0-.126.024-.273.147-.147.122-.337.32-.302.38.037.06.186.124.436 0 .023-.012.174-.076.238-.064.063.011.254-.056.373-.1.076-.027.23-.118.23-.118.158.222.55 0 .55 0 .051.024.14 0 .237-.058.1-.06.095-.037.253-.069.16-.031.493-.153.591-.221a.146.146 0 01.04-.02l.063.488-.706-.103c.586.871 1.11 1.03 1.8.704.638-.3.91-.182.91-.182a5.59 5.59 0 01-.625.539c-.159.103-.214.19-.166.451.047.262.196.872.483 1.079.27.194.6.242.918.221-.032.273-.058.665-.072 1.137l-.533-.404c-.08.689.043 2.152.043 2.152l-.301-.2c-.007.166-.137 4.776 2.727 7.966 0 0-.207.268-.999.634 0 0-3.14-2.583-2.98-9.447l.365.245a12.6 12.6 0 01.066-2.168l-1.643-1.246-.151-.49-1.68-.721 1.157 1.409.626.008c-.032 0-.103.572-.214 2.013l-.388-.253-.167-.468-1.734-.658 1.227 1.37.61-.038s-.625 6.077 1.439 9.347c1.718 2.721 4.218 2.743 6.494 1.214-.08.266-.356 1.057-1.125 2.498 0 0 .444 0 .92.081 0 0-.095.396-.145.515-.049.122-.04.323.194.333.234.007.54.037.54.037s-.042.285-.049.437c-.007.205-.027.29.79.325.854-.035.798-.12.79-.325a6.444 6.444 0 00-.046-.437s.306-.029.54-.037c.234-.01.242-.21.193-.333-.048-.12-.146-.515-.146-.515.477-.08.92-.08.92-.08-.77-1.447-1.046-2.236-1.127-2.499 2.277 1.528 4.779 1.51 6.499-1.214 2.062-3.27 1.437-9.347 1.437-9.347l.61.038 1.23-1.37zm-9.932-2.353c.068-.306.123-.563.187-.52.062.044.174.049.213-.003.04-.053.052-.06.084-.005.032.055.222.147.35-.07.126-.219.09-.108.126-.025.037.083.135.119.246.032.11-.087.198-.163.277-.203.078-.038.082-.019.126-.098.044-.08.115-.116.118-.167.004-.052-.047-.111.029-.15.075-.04.11-.069.179-.037.068.032.086-.032.122.012.035.043.082.048.127 0 .043-.047.075-.122.127-.035.05.086.165.106.19.062.024-.042.043-.047.075.02.032.068.146.12.27.1 0 0 .114.158.253.135.14-.025.194-.095.198-.19.004-.095-.048-.415.047-.345.095.071.092.04.119-.017.028-.053.071.004.12-.008.047-.01.038-.071.118.008.08.08.087.12.162.14.075.018.107.039.187.122.08.083.167.174.308.123 0 0 .091.118.187.11 0 0 .194.211.305.18 0 0 .19.078.254.07.064-.007.075-.05.116-.028.039.025.023-.075.082-.008.058.068.167.187.234.167 0 0 .16.135.281.149.124.016.16.053.198.053.04 0 .02-.04.092.016.07.056.175.083.242.056.067-.03.094-.025.155-.017.02.003.046 0 .074-.003-.2.237-.46.426-.943.276-.64-.198-.833-.103-.965.032-.136.134-.428.523-.509.769-.077.245-.038.435.436.99 0 0-.618.04-1.433-.222-.817-.261-1.57-.356-2.33-.015-.132.06-.254.114-.368.17a7.477 7.477 0 01-.373-.4s.05-.254.047-.4c-.005-.167-.012-.245-.071-.33-.061-.08-.135-.19-.069-.496zm3.265 2.683c-.36.228-.972.495-1.878.495a3.832 3.832 0 01-1.638-.344 3.32 3.32 0 011.568-.473c.911-.025 1.307.101 1.743.254.06.021.13.043.205.068zm-3.754-1.294l.015.006c.16.063.328.04.328.04.052.032.277.244.358.324a3.6 3.6 0 00-.631.424c-.048-.197-.119-.518-.098-.625.011-.06.022-.118.028-.169zM21.11 7.1c.09.06.262.161.322.308.017.044.03.087.042.127a.74.74 0 00-.298-.021 1.389 1.389 0 00-.406-.434c.14-.02.261-.033.34.02zm-.762-.06l.006-.014c.109.16.344.44.72.52a.338.338 0 00-.09.065c-.204-.027-.383-.064-.43-.119-.06-.067-.087-.127-.135-.119-.047.008.003-.072-.043-.102-.048-.031-.13-.028-.029-.23zm-.158 2.54c.016.107.045.225.1.342a1.619 1.619 0 00-.041.082 1.053 1.053 0 00-.152-.432.201.201 0 00.093.008zm-3.995 2.159c.475-.556.514-.745.435-.99-.08-.246-.372-.636-.507-.77-.134-.134-.324-.23-.966-.031-.484.149-.742-.038-.942-.275.027.002.05.004.069.001a.238.238 0 01.156.017c.067.027.17 0 .241-.056.072-.055.052-.016.09-.016.04 0 .076-.037.199-.053.123-.015.281-.149.281-.149.068.02.174-.1.235-.167.06-.067.043.033.083.008.04-.022.052.02.115.029.063.007.254-.071.254-.071.11.032.305-.18.305-.18.095.009.186-.11.186-.11.142.051.23-.04.31-.123.078-.083.11-.104.186-.123.075-.02.082-.06.161-.139.08-.08.071-.018.12-.008.046.012.09-.046.118.008.029.057.024.088.119.017.094-.07.043.25.047.346.006.094.06.165.199.189.138.024.254-.135.254-.135.121.02.237-.032.269-.1.032-.067.052-.063.075-.02.023.045.139.024.191-.062.05-.087.081-.013.126.035.044.048.091.043.127 0 .035-.044.056.02.124-.012.066-.032.103-.004.177.036.075.04.024.099.028.15.004.052.076.088.12.168.043.08.048.06.126.098.08.04.167.116.277.203.102.08.192.029.235-.04.016.071.04.186.074.186.034 0 .063-.09.088-.145.035.049.074.036.112.051-.018.036-.296.593.043 1.092.016 0 .03-.02.041-.054.035.324.016.397.016.397s-.152.194-.262.537c-.75-.326-1.495-.224-2.3.034-.817.26-1.435.227-1.435.227zm3.473.677a2.954 2.954 0 01-.388.802c-.837-.024-1.41-.273-1.753-.492l.205-.068c.436-.152.832-.278 1.743-.254.066.002.13.007.193.012zm-2.698.421c.073-.013.145-.016.229-.036.234.235.892.76 2.133.76 1.606 0 2.426-.772 2.426-.772s.819.774 2.425.774c1.241 0 1.898-.519 2.132-.753.086.02.157.014.23.026.195 1.614-.129 3.905-.129 3.905h-9.318s-.322-2.29-.127-3.904zm.128 4.183h9.317s-.142 1.783-.902 3.278H18c-.76-1.496-.902-3.278-.902-3.278zm4.66 7.631c-2.793-2.021-3.615-4.09-3.615-4.09h7.227s-.818 2.069-3.613 4.09z" fill="#fff"/><path d="M23.504 16.525a.743.743 0 00.437-.158.585.585 0 00.207.032c.252-.003.47-.167.59-.407.114.015.229 0 .334-.056.229-.122.333-.398.284-.677.013-.008.023-.019.035-.028.208-.173.203-.516-.006-.771a.106.106 0 00-.02-.021.273.273 0 00.118-.22c0-.157-.19-.284-.366-.284-.174 0-.365.127-.365.285 0 .01-.11.04-.172.094-.09.073-.113.181-.125.297a.481.481 0 00-.083.04c-.043.02-.074.051-.107.084a.586.586 0 00-.369.028.716.716 0 00-.428-.131c-.453.007-.81.44-.801.961.01.525.386.94.837.932zm-5.34-1.295c.01.01.022.02.036.028-.05.28.054.555.282.678.104.055.22.07.335.055.12.24.338.404.589.407a.566.566 0 00.207-.031.74.74 0 00.436.157c.453.008.827-.407.838-.93.01-.523-.35-.955-.802-.962a.73.73 0 00-.43.13.602.602 0 00-.37-.029.513.513 0 00-.21-.122c-.011-.116-.026-.224-.116-.297-.063-.055-.187-.084-.187-.093v-.001c0-.159-.176-.285-.35-.285-.175 0-.334.127-.334.285 0 .09.037.165.107.219-.005.005-.015.012-.022.02-.211.254-.217.598-.009.772zm3.624 4.869l.387-.586-.074-.278.305.042c.02.127.102.272.224.29.123.022.326 0 .326 0l.115-.134a2.53 2.53 0 00-.318-.25c-.041-.81-.183-1.359-.287-1.65-.101-.292-.236-.3-.495-.266-.258.034-.957.456-.957.456l-.048.406.239.026-.184.62c-.048.163-.007.155.08.218.089.06.422.14.422.14l-.095.422.36.544zm-.909-5.143c.139.802.656.875.86.87-.003.284-.052.508-.052.508l.254.174a4.522 4.522 0 00.001-.816c.61-.089.736-.997.736-.997-.595.268-.72.698-.747.894-.042-.324-.12-.501-.16-.574a.772.772 0 00.439-1.333l.126-.238-.27.054-.11-.206-.198.16-.118-.16-.127.183-.238-.134.066.215a.77.77 0 00-.43.69c0 .383.28.7.644.763.12.19.168.43.181.653a1.782 1.782 0 00-.857-.706zm.838.046c-.186 0-.338-.333-.338-.745 0-.408.152-.741.338-.741.187 0 .338.333.338.742 0 .411-.151.744-.338.744zm.675 6.556a.626.626 0 010-.497h-.93a.621.621 0 000 .497h.93zm-.93 1.163a1.097 1.097 0 000 .666h.93a1.105 1.105 0 010-.666h-.93zm1.151-.663l.207-.333H21.4l-.157-.167h-.593l.074.167h.143l.152.333h1.594zm-.011 1.496h-1.204l-.085-.167H21l.096.19.254.14h1.226l.247-.143.035-.187h-.2l-.056.167zM60.49 11.71c-1.342-1.315-3.328-2.012-5.073-2.012-4.401 0-6.95 3.3-6.924 7.273 0 3.435 2.04 6.764 6.924 6.764 1.61 0 3.087-.403 4.59-1.664v-3.812h-5.234v-2.683h8.025v7.703c-1.878 2.067-4.214 3.274-7.38 3.274-6.898 0-9.877-4.589-9.877-9.581 0-5.422 3.462-10.038 9.877-10.038a9.88 9.88 0 016.95 2.845L60.49 11.71zm23.974 5.087c0 5.093-3.1 9.756-9.648 9.756-6.549 0-9.648-4.77-9.648-9.73 0-5.74 4.016-9.89 9.702-9.89 6.44.027 9.594 4.77 9.594 9.864zm-9.648 6.98c4.69 0 6.657-3.316 6.657-6.927 0-3.476-1.995-7.088-6.602-7.168-4.366 0-6.711 3.045-6.711 7.168.054 3.342 1.994 6.926 6.656 6.926zm21.461 2.775h-3.255l-8.097-19.56h3.506l6.205 15.832 6.232-15.831h3.478l-8.069 19.56zm10.106-1.973c0 2.631-3.932 2.631-3.932 0 0-2.6 3.932-2.6 3.932 0zm19.045-.837c-1.946 1.918-4.459 2.81-7.107 2.81-6.864 0-9.945-4.73-9.972-9.701-.027-4.972 3.216-9.918 9.972-9.918 2.54 0 5 .946 6.918 2.865l-2.027 1.945c-1.351-1.324-3.135-1.945-4.891-1.945-4.81 0-6.999 3.54-6.972 7.026.027 3.459 2.081 6.891 6.972 6.891 1.756 0 3.702-.73 5.026-2.054l2.081 2.08zm21.777-6.916c0 5.078-3.089 9.726-9.618 9.726s-9.618-4.755-9.618-9.699c0-5.722 4.003-9.86 9.672-9.86 6.421.027 9.564 4.756 9.564 9.833zm-9.618 6.96c4.675 0 6.636-3.305 6.636-6.906 0-3.466-1.988-7.066-6.582-7.146-4.352 0-6.69 3.035-6.69 7.146.053 3.332 1.988 6.905 6.636 6.905z" fill="#fff"/><path d="M39.803 3.009h-2.111V14.78h2.111V3.009z" fill="#FBD000"/><path d="M39.803 14.78h-2.111v7.848h2.111v-7.847z" fill="#00549F"/><path d="M39.803 22.628h-2.111v7.849h2.111v-7.849z" fill="#D21A3A"/></svg>