<svg width="1308" height="566" fill="none" xmlns="http://www.w3.org/2000/svg"><path d="M761.763 336.973c-55.466-38.202-122.921-74.108-211.548-32.542 0 0-.347 9.23 3.305 16.527 71.249-20.526 103.064-27.121 208.243 49.607v-33.592z" fill="#F4C23B"/><path d="M761.759 327.595c-55.465-37.847-122.094-72.992-210.721-31.426-.124 5.14-.025 9.412.826 14.048 71.249-20.527 105.394-27.08 209.895 50.581v-33.211.008z" fill="#EB593B"/><path d="M844.397 391.28v22.857c56.729 6.173 84.768-52.35 153.397-93.7 44.336-26.717 94.676-37.311 131.566-42.112 34.23-4.462 54.06-16.031 54.06-16.031l-3.31-6.611c-11.57 6.611-34.56 16.659-51.11 18.238-192.142 18.254-206.884 144.241-284.611 117.367l.008-.008z" fill="#F4C23B"/><path d="M574.722 282.145c2.694-1.223 4.115-2.066 4.115-2.066s-1.454.777-4.115 2.066z" fill="#EB593B"/><path d="M124.911 208.533s-22.311-33.22 11.52-46.235c42.103-16.197 29.749-37.649 29.972-47.921.793-36.459 34.269-38.21 59.44-37.252 22.964.884 24.278-35.128 64.547-23.13 1.925.57-.091 1.182-2.099 1.281-20.874.959-34.972 18.56-42.839 30.146-8.701 12.825-29.707 9.676-44.97 28.955-15.056 19.023 2.942 35.881-18.23 55.482-18.527 17.147-70.728-8.784-57.349 38.674h.008z" fill="#3D4696"/><path d="M335.844 520.995c-1.289.719-2.57-.967-1.546-2.033 14.553-15.105 46.599-56.151 4.777-90.197-118.979-96.849 11.04-171.469 79.371-128.936 77.67 48.342 134.788 14.56 134.788 14.56s-98.064 52.532-163.049 9.735c-31.699-19.023-68.761 30.616-45.02 73.008 17.031 30.419 34.376 48.83 30.418 75.439-2.322 15.61-15.395 34.913-39.731 48.424h-.008z" fill="#F4C23B"/><path d="M290.145 55.919c1.289-.1 1.43-1.926.174-2.24-11.28-2.818-35.831-4.214-52.243 29.518-15.791 32.459-2.718 92.998 36.914 113.607 41.268 21.461 78.793 22.948 95.105 78.463 20.081 68.332 133.242 65.894 180.7 32.492-.025-.272-89.561 38.046-136.316-38.045-23.774-49.929 9.511-49.929-.793-67.365-15.189-25.7-168.503 34.848-159.793-97.246 1.388-21.08 4.479-46.697 36.252-49.184z" fill="#EB593B"/><path d="M524.324 484.742c0 2.156-.372 4.148-1.116 5.958-.744 1.818-1.777 3.379-3.099 4.702a14.168 14.168 0 01-4.677 3.098c-1.801.744-3.752 1.124-5.859 1.124s-4.057-.372-5.859-1.124c-1.801-.743-3.363-1.776-4.677-3.098-1.322-1.323-2.355-2.884-3.099-4.702-.743-1.81-1.124-3.802-1.124-5.958 0-2.157.372-4.149 1.124-5.958.744-1.81 1.777-3.38 3.099-4.702 1.322-1.323 2.884-2.356 4.677-3.099 1.802-.744 3.752-1.124 5.859-1.124s4.058.372 5.859 1.124c1.802.743 3.363 1.776 4.677 3.099 1.322 1.322 2.355 2.884 3.099 4.702.744 1.818 1.116 3.801 1.116 5.958zm-3.124 0c0-1.628-.264-3.182-.802-4.661-.537-1.479-1.297-2.777-2.297-3.901a11.085 11.085 0 00-3.661-2.677c-1.437-.669-3.065-1-4.875-1s-3.438.331-4.884 1c-1.446.669-2.661 1.562-3.661 2.677a11.783 11.783 0 00-2.297 3.901 13.549 13.549 0 00-.801 4.661c0 1.627.264 3.181.801 4.66s1.298 2.777 2.297 3.901c1 1.123 2.223 2.016 3.661 2.677 1.438.661 3.066 1 4.884 1 1.818 0 3.438-.331 4.875-1 1.438-.669 2.661-1.562 3.661-2.677a11.75 11.75 0 002.297-3.901c.538-1.479.802-3.033.802-4.66zm11.204-16.08h2.636v14.643h.083c.43-.636.934-1.19 1.521-1.636a9.48 9.48 0 011.842-1.124 8.829 8.829 0 011.984-.636 10.132 10.132 0 011.941-.198c1.463 0 2.81.247 4.017.743a9.513 9.513 0 013.14 2.058 9.299 9.299 0 012.057 3.123c.496 1.199.744 2.504.744 3.917 0 1.413-.248 2.719-.744 3.917a9.58 9.58 0 01-2.057 3.124 9.192 9.192 0 01-3.14 2.058c-1.215.495-2.554.743-4.017.743a10.26 10.26 0 01-1.941-.198 9.097 9.097 0 01-1.984-.636 9.377 9.377 0 01-1.842-1.124 7.026 7.026 0 01-1.521-1.636h-.083v3.123h-2.636v-30.261zm17.081 20.882a8.405 8.405 0 00-.496-2.917 7.02 7.02 0 00-1.421-2.363c-.612-.67-1.355-1.19-2.223-1.579-.868-.388-1.843-.578-2.942-.578-1.099 0-2.09.19-2.999.578a7.56 7.56 0 00-2.364 1.579 7.107 7.107 0 00-1.562 2.363 7.61 7.61 0 00-.562 2.917c0 1.041.19 2.016.562 2.917a7.121 7.121 0 001.562 2.364 7.277 7.277 0 002.364 1.578c.909.388 1.908.578 2.999.578 1.091 0 2.074-.19 2.942-.578a6.716 6.716 0 002.223-1.578 7.183 7.183 0 001.421-2.364 8.438 8.438 0 00.496-2.917zm20.554-4.92a4.843 4.843 0 00-1.603-1.843c-.67-.454-1.48-.678-2.438-.678-.455 0-.917.058-1.38.157a4.126 4.126 0 00-1.256.505 2.718 2.718 0 00-.901.859c-.223.347-.339.777-.339 1.281 0 .884.306 1.52.917 1.917.612.397 1.529.744 2.76 1.041l2.678.636c1.305.298 2.396.885 3.256 1.777.867.893 1.297 2.008 1.297 3.339 0 1.016-.207 1.884-.62 2.619a5.345 5.345 0 01-1.636 1.802c-.677.471-1.463.809-2.338 1.016a11.67 11.67 0 01-2.678.322c-1.438 0-2.776-.272-4.016-.818-1.239-.545-2.297-1.487-3.181-2.818l2.28-1.561c.537.851 1.207 1.537 2.017 2.041.809.504 1.776.76 2.9.76.537 0 1.066-.058 1.603-.182a4.666 4.666 0 001.422-.562c.413-.256.743-.578.999-.983.257-.397.381-.868.381-1.397 0-.934-.347-1.603-1.042-2.016-.694-.413-1.537-.744-2.52-.983l-2.562-.604a20.367 20.367 0 01-1.297-.396 5.881 5.881 0 01-1.603-.843 5.08 5.08 0 01-1.339-1.463c-.372-.603-.562-1.339-.562-2.223 0-.958.19-1.801.579-2.52a5.01 5.01 0 011.561-1.76 7.091 7.091 0 012.223-1.017 9.783 9.783 0 012.562-.339 8.74 8.74 0 013.636.761c1.124.504 1.983 1.371 2.603 2.603l-2.363 1.562v.008zm12.247 5.638c.083.934.306 1.818.678 2.636a6.881 6.881 0 003.603 3.562c.801.347 1.669.52 2.603.52 1.413 0 2.636-.322 3.661-.983 1.024-.653 1.809-1.405 2.338-2.264l2.041 1.677c-1.115 1.413-2.355 2.43-3.702 3.041-1.347.612-2.793.917-4.338.917-1.388 0-2.678-.247-3.859-.743a9.07 9.07 0 01-3.058-2.058 9.583 9.583 0 01-2.016-3.124c-.496-1.198-.744-2.503-.744-3.916 0-1.414.24-2.719.719-3.917a9.582 9.582 0 012-3.124 9.003 9.003 0 013-2.058c1.148-.496 2.388-.743 3.718-.743 1.413 0 2.678.256 3.801.76 1.116.504 2.058 1.182 2.818 2.016a8.751 8.751 0 011.744 2.958c.397 1.133.603 2.339.603 3.62v1.198h-15.601l-.009.025zm12.718-2.157c0-1.785-.537-3.231-1.603-4.338-1.066-1.108-2.562-1.661-4.479-1.661-.851 0-1.678.165-2.479.504a6.788 6.788 0 00-2.099 1.339 6.742 6.742 0 00-1.438 1.917 5.021 5.021 0 00-.537 2.239h12.643-.008zm11.242-2.084c0-.826-.017-1.669-.058-2.521-.041-.851-.074-1.958-.099-3.321h2.603v3.478h.083a6.06 6.06 0 01.801-1.462 6.468 6.468 0 011.256-1.256 6.38 6.38 0 011.719-.901c.653-.223 1.397-.339 2.223-.339.744 0 1.396.083 1.958.24l-.52 2.603c-.347-.132-.851-.198-1.521-.198-1.016 0-1.876.19-2.603.578a5.654 5.654 0 00-1.801 1.479 6.105 6.105 0 00-1.058 1.942 6.558 6.558 0 00-.339 2v10.561h-2.636v-12.883h-.008zm24.514 12.883h-2.958l-7.603-18.716h3.124l5.999 15.758h.083l5.958-15.758h3l-7.603 18.716zm26.316-11.478v-.48c0-3.222-1.603-4.842-4.801-4.842-2.19 0-4.091.735-5.719 2.198l-1.603-1.884c1.76-1.81 4.397-2.719 7.917-2.719.909 0 1.776.132 2.619.397a5.89 5.89 0 012.182 1.223c.611.545 1.107 1.231 1.479 2.058.372.826.562 1.809.562 2.958v8.363c0 .719.033 1.471.099 2.256.066.785.141 1.437.223 1.941h-2.561a14.55 14.55 0 01-.182-1.479 20.168 20.168 0 01-.058-1.561h-.083c-.776 1.256-1.685 2.156-2.735 2.702-1.058.545-2.338.818-3.859.818a8.569 8.569 0 01-2.396-.339 5.898 5.898 0 01-2.058-1.041 5.343 5.343 0 01-1.438-1.719c-.363-.678-.537-1.471-.537-2.38 0-1.52.397-2.71 1.182-3.578.785-.868 1.776-1.512 2.958-1.942 1.19-.43 2.454-.694 3.801-.802a46.898 46.898 0 013.702-.157h1.323l-.017.009zm-1.363 2.156c-.67 0-1.496.034-2.496.1s-1.959.231-2.876.479c-.917.256-1.71.644-2.363 1.182-.653.537-.984 1.264-.984 2.198 0 .611.124 1.14.381 1.578a3.27 3.27 0 001.016 1.083c.43.281.901.479 1.421.603.521.124 1.05.182 1.579.182.958 0 1.793-.157 2.495-.48a5.225 5.225 0 001.777-1.297 5.179 5.179 0 001.058-1.917 8.007 8.007 0 00.338-2.339v-1.363h-1.363l.017-.009zm23.085-6.997h-5.397v11.04c0 .694.067 1.256.199 1.702.132.438.322.777.562 1.017.239.24.529.405.859.496.331.091.702.14 1.099.14.455 0 .917-.066 1.397-.198a6.467 6.467 0 001.322-.521l.116 2.438c-.984.454-2.174.678-3.562.678a6.668 6.668 0 01-1.578-.199 3.668 3.668 0 01-1.496-.76c-.455-.372-.827-.876-1.124-1.52-.297-.637-.438-1.48-.438-2.521v-11.8h-3.958v-2.397h3.958v-5.28h2.636v5.28h5.396v2.397l.009.008zm25.789 6.956c0 1.413-.248 2.719-.744 3.917a9.591 9.591 0 01-2.057 3.124 9.175 9.175 0 01-3.14 2.057c-1.215.496-2.554.744-4.016.744-1.463 0-2.769-.248-3.983-.744a9.499 9.499 0 01-3.141-2.057 9.175 9.175 0 01-2.057-3.124c-.496-1.198-.744-2.504-.744-3.917 0-1.413.248-2.719.744-3.917a9.603 9.603 0 012.057-3.123c.876-.885 1.926-1.57 3.141-2.058 1.214-.496 2.537-.744 3.983-.744 1.446 0 2.809.248 4.016.744 1.214.496 2.264 1.182 3.14 2.058a9.299 9.299 0 012.057 3.123c.496 1.198.744 2.504.744 3.917zm-2.884 0c0-1.041-.165-2.016-.504-2.917a7.25 7.25 0 00-1.421-2.363c-.612-.67-1.355-1.19-2.223-1.579-.868-.388-1.843-.578-2.942-.578-1.099 0-2.074.19-2.942.578a6.501 6.501 0 00-2.198 1.579 7.095 7.095 0 00-1.396 2.363 8.438 8.438 0 00-.496 2.917c0 1.041.165 2.016.496 2.917.33.909.801 1.694 1.396 2.364a6.35 6.35 0 002.198 1.578c.868.388 1.843.578 2.942.578 1.099 0 2.074-.19 2.942-.578a6.716 6.716 0 002.223-1.578 7.183 7.183 0 001.421-2.364 8.44 8.44 0 00.504-2.917zm11.249-3.52c0-.826-.017-1.669-.058-2.521-.041-.851-.074-1.958-.099-3.321h2.603v3.478h.083a6.06 6.06 0 01.801-1.462 6.095 6.095 0 011.264-1.256 6.38 6.38 0 011.719-.901c.653-.223 1.397-.339 2.223-.339.744 0 1.397.083 1.959.24l-.521 2.603c-.347-.132-.851-.198-1.52-.198-1.017 0-1.885.19-2.603.578a5.747 5.747 0 00-1.802 1.479 6.124 6.124 0 00-1.058 1.942 6.555 6.555 0 00-.338 2v10.561h-2.637v-12.883h-.016zm20.116-13.035c0 .561-.199 1.016-.604 1.38-.396.363-.842.537-1.322.537-.479 0-.917-.182-1.322-.537-.405-.356-.603-.819-.603-1.38 0-.562.198-1.017.603-1.38.405-.364.843-.538 1.322-.538.48 0 .917.182 1.322.538.397.363.604.818.604 1.38zm-.604 25.922h-2.636v-18.717h2.636v18.717zm28.568-9.367c0 1.413-.248 2.719-.744 3.917a9.61 9.61 0 01-2.058 3.124 9.166 9.166 0 01-3.14 2.057c-1.215.496-2.553.744-4.016.744s-2.768-.248-3.983-.744a9.484 9.484 0 01-3.14-2.057 9.192 9.192 0 01-2.058-3.124c-.496-1.198-.744-2.504-.744-3.917 0-1.413.248-2.719.744-3.917a9.605 9.605 0 012.058-3.123c.876-.885 1.925-1.57 3.14-2.058 1.215-.496 2.537-.744 3.983-.744 1.446 0 2.81.248 4.016.744 1.215.496 2.264 1.182 3.14 2.058a9.316 9.316 0 012.058 3.123c.496 1.198.744 2.504.744 3.917zm-2.884 0c0-1.041-.166-2.016-.504-2.917a7.236 7.236 0 00-1.422-2.363c-.611-.67-1.355-1.19-2.223-1.579-.867-.388-1.843-.578-2.942-.578-1.099 0-2.074.19-2.941.578a6.481 6.481 0 00-2.198 1.579 7.098 7.098 0 00-1.397 2.363 8.438 8.438 0 00-.496 2.917c0 1.041.165 2.016.496 2.917a7.267 7.267 0 001.397 2.364 6.34 6.34 0 002.198 1.578c.867.388 1.842.578 2.941.578 1.099 0 2.075-.19 2.942-.578a6.716 6.716 0 002.223-1.578 7.168 7.168 0 001.422-2.364c.33-.909.504-1.876.504-2.917zm46.797 5.043h.083v-23.997h2.884v28.319h-3.603l-16.882-24.237h-.083v24.237h-2.884v-28.319h3.603l16.882 23.997zm24.963-7.158v-.48c0-3.222-1.604-4.842-4.802-4.842-2.19 0-4.09.735-5.718 2.198l-1.603-1.884c1.76-1.81 4.396-2.719 7.916-2.719a8.66 8.66 0 012.62.397c.843.264 1.57.678 2.181 1.223.612.545 1.108 1.231 1.48 2.058.372.826.562 1.809.562 2.958v8.363c0 .719.033 1.471.099 2.256.066.785.14 1.437.223 1.941h-2.562a15.14 15.14 0 01-.182-1.479 20.168 20.168 0 01-.058-1.561h-.082c-.777 1.256-1.686 2.156-2.744 2.702-1.057.545-2.338.818-3.859.818a8.569 8.569 0 01-2.396-.339 5.898 5.898 0 01-2.058-1.041 5.175 5.175 0 01-1.438-1.719c-.363-.678-.537-1.471-.537-2.38 0-1.52.397-2.71 1.182-3.578.785-.868 1.777-1.512 2.958-1.942 1.19-.43 2.455-.694 3.802-.802a46.86 46.86 0 013.702-.157h1.322l-.008.009zm-1.364 2.156c-.669 0-1.504.034-2.504.1s-1.958.231-2.884.479c-.917.256-1.71.644-2.363 1.182-.653.537-.984 1.264-.984 2.198 0 .611.124 1.14.381 1.578a3.27 3.27 0 001.016 1.083c.43.281.901.479 1.421.603.521.124 1.05.182 1.579.182.958 0 1.793-.157 2.503-.48a5.225 5.225 0 001.777-1.297 5.179 5.179 0 001.058-1.917 8.007 8.007 0 00.339-2.339v-1.363h-1.364l.025-.009zm27.044-4.998c-.454-.694-1.091-1.28-1.901-1.76-.818-.479-1.743-.719-2.776-.719-1.091-.025-2.074.149-2.942.521a6.44 6.44 0 00-2.223 1.562 6.71 6.71 0 00-1.396 2.38c-.323.917-.48 1.917-.48 2.983s.157 2.057.48 2.983c.322.917.785 1.71 1.396 2.38a6.378 6.378 0 002.223 1.562c.868.371 1.843.545 2.942.52 1.041 0 1.967-.239 2.776-.719.81-.479 1.447-1.066 1.901-1.76l2.157 1.636c-.934 1.091-1.983 1.901-3.157 2.422a9.43 9.43 0 01-3.677.818c-1.521.024-2.892-.207-4.124-.703-1.223-.496-2.272-1.181-3.14-2.057a8.851 8.851 0 01-1.983-3.141c-.455-1.214-.678-2.528-.678-3.941 0-1.413.223-2.727.678-3.942a8.769 8.769 0 011.983-3.14 9.146 9.146 0 013.14-2.058c1.223-.496 2.603-.727 4.124-.702a9.413 9.413 0 013.677.818c1.174.521 2.223 1.33 3.157 2.421l-2.157 1.636zm12.755-11.598c0 .561-.198 1.016-.603 1.38-.397.363-.843.537-1.322.537-.48 0-.918-.182-1.323-.537-.405-.356-.603-.819-.603-1.38 0-.562.198-1.017.603-1.38.405-.364.843-.538 1.323-.538.479 0 .917.182 1.322.538.396.363.603.818.603 1.38zm-.603 25.922h-2.636v-18.717h2.636v18.717zm28.563-9.367c0 1.413-.248 2.719-.744 3.917a9.591 9.591 0 01-2.057 3.124 9.175 9.175 0 01-3.14 2.057c-1.215.496-2.554.744-4.017.744-1.462 0-2.768-.248-3.983-.744a9.495 9.495 0 01-3.14-2.057 9.175 9.175 0 01-2.057-3.124c-.496-1.198-.744-2.504-.744-3.917 0-1.413.248-2.719.744-3.917a9.587 9.587 0 012.057-3.123c.876-.885 1.926-1.57 3.14-2.058 1.215-.496 2.537-.744 3.983-.744 1.447 0 2.81.248 4.017.744 1.214.496 2.264 1.182 3.14 2.058a9.299 9.299 0 012.057 3.123c.496 1.198.744 2.504.744 3.917zm-2.884 0c0-1.041-.165-2.016-.504-2.917a7.25 7.25 0 00-1.421-2.363c-.612-.67-1.356-1.19-2.223-1.579-.868-.388-1.843-.578-2.942-.578-1.099 0-2.074.19-2.942.578a6.491 6.491 0 00-2.198 1.579 7.114 7.114 0 00-1.397 2.363 8.46 8.46 0 00-.495 2.917c0 1.041.165 2.016.495 2.917a7.267 7.267 0 001.397 2.364 6.34 6.34 0 002.198 1.578c.868.388 1.843.578 2.942.578 1.099 0 2.074-.19 2.942-.578a6.726 6.726 0 002.223-1.578 7.183 7.183 0 001.421-2.364 8.44 8.44 0 00.504-2.917zm13.479-9.36a23.4 23.4 0 01.1 1.503c.016.496.016.992.016 1.496h.083a5.937 5.937 0 011.124-1.396c.454-.43.958-.794 1.52-1.099a8.472 8.472 0 011.777-.719 6.934 6.934 0 011.859-.257c2.396 0 4.173.637 5.322 1.901 1.148 1.264 1.719 3.074 1.719 5.421v11.883h-2.636v-10.362c0-2.083-.364-3.678-1.083-4.777-.719-1.107-2.049-1.661-4-1.661-.132 0-.504.058-1.123.157-.612.108-1.256.397-1.942.884-.678.48-1.289 1.199-1.818 2.157-.537.959-.802 2.297-.802 4v9.602h-2.636v-14.602c0-.504-.016-1.148-.058-1.917a72.647 72.647 0 00-.14-2.198h2.718v-.016zm35.002 7.245v-.48c0-3.222-1.603-4.842-4.801-4.842-2.19 0-4.091.735-5.719 2.198l-1.603-1.884c1.76-1.81 4.396-2.719 7.916-2.719a8.66 8.66 0 012.62.397 5.89 5.89 0 012.182 1.223c.611.545 1.107 1.231 1.479 2.058.372.826.562 1.809.562 2.958v8.363c0 .719.033 1.471.099 2.256.066.785.14 1.437.223 1.941h-2.562a15.14 15.14 0 01-.182-1.479 20.162 20.162 0 01-.057-1.561h-.083c-.777 1.256-1.686 2.156-2.744 2.702-1.057.545-2.338.818-3.859.818a8.574 8.574 0 01-2.396-.339 5.898 5.898 0 01-2.058-1.041 5.16 5.16 0 01-1.437-1.719c-.364-.678-.538-1.471-.538-2.38 0-1.52.397-2.71 1.182-3.578.785-.868 1.777-1.512 2.958-1.942 1.19-.43 2.455-.694 3.802-.802a46.879 46.879 0 013.702-.157h1.322l-.008.009zm-1.364 2.156c-.669 0-1.504.034-2.504.1s-1.958.231-2.884.479c-.917.256-1.71.644-2.363 1.182-.653.537-.983 1.264-.983 2.198 0 .611.124 1.14.38 1.578a3.27 3.27 0 001.016 1.083c.43.281.901.479 1.421.603.521.124 1.05.182 1.579.182.958 0 1.793-.157 2.504-.48a5.23 5.23 0 001.776-1.297c.48-.545.835-1.19 1.058-1.917a8.007 8.007 0 00.339-2.339v-1.363h-1.364l.025-.009zm16.643 9.326h-2.636v-30.237h2.636v30.237zm42.714-.001h-2.636v-3.123h-.083a6.852 6.852 0 01-1.521 1.636 9.53 9.53 0 01-1.842 1.124 8.44 8.44 0 01-1.984.636c-.677.132-1.33.198-1.942.198-1.471 0-2.809-.248-4.016-.744-1.214-.495-2.264-1.181-3.14-2.057a9.31 9.31 0 01-2.058-3.124c-.495-1.198-.743-2.504-.743-3.917 0-1.413.248-2.718.743-3.917a9.605 9.605 0 012.058-3.123 9.192 9.192 0 013.14-2.058c1.215-.496 2.554-.744 4.016-.744.612 0 1.256.066 1.942.199a9.097 9.097 0 011.984.636 9.725 9.725 0 011.842 1.124c.587.454 1.091 1 1.521 1.636h.083v-14.643h2.636v30.261zm-17.081-9.362c0 1.041.165 2.016.504 2.917a7.02 7.02 0 001.421 2.363 6.525 6.525 0 002.223 1.578c.868.389 1.843.579 2.942.579 1.099 0 2.058-.19 2.983-.579a7.39 7.39 0 002.38-1.578 7.107 7.107 0 001.562-2.363 7.61 7.61 0 00.562-2.917c0-1.042-.19-2.017-.562-2.917a7.121 7.121 0 00-1.562-2.364 7.39 7.39 0 00-2.38-1.578c-.917-.389-1.917-.579-2.983-.579s-2.074.19-2.942.579a6.833 6.833 0 00-2.223 1.578 7.183 7.183 0 00-1.421 2.364 8.437 8.437 0 00-.504 2.917zm27.968.717c.08.934.3 1.818.67 2.636a7.02 7.02 0 001.48 2.14 6.792 6.792 0 002.13 1.422c.8.347 1.67.52 2.6.52 1.41 0 2.64-.322 3.66-.983 1.02-.653 1.81-1.405 2.34-2.264l2.04 1.677c-1.12 1.413-2.36 2.43-3.7 3.041-1.35.612-2.8.917-4.34.917-1.39 0-2.68-.247-3.86-.743a9.068 9.068 0 01-3.06-2.058 9.472 9.472 0 01-2.01-3.124c-.5-1.198-.75-2.503-.75-3.916 0-1.414.24-2.719.72-3.917a9.615 9.615 0 012-3.124 8.983 8.983 0 013-2.058c1.15-.496 2.39-.743 3.72-.743 1.41 0 2.68.256 3.8.76 1.12.504 2.06 1.182 2.82 2.016.76.835 1.34 1.826 1.74 2.958.4 1.133.61 2.339.61 3.62v1.198h-15.61v.025zm12.71-2.157c0-1.785-.53-3.231-1.6-4.338-1.07-1.108-2.56-1.661-4.48-1.661-.85 0-1.68.165-2.48.504-.8.33-1.49.777-2.1 1.339a6.534 6.534 0 00-1.43 1.917 4.96 4.96 0 00-.54 2.239h12.63zm29.2 8.156h13.19v2.636h-16.08v-28.319h2.89v25.683zm38.36-6.72c0 1.413-.25 2.719-.74 3.917a9.778 9.778 0 01-2.06 3.124 9.252 9.252 0 01-3.14 2.057c-1.22.496-2.56.744-4.02.744-1.46 0-2.77-.248-3.98-.744a9.393 9.393 0 01-3.14-2.057c-.89-.876-1.57-1.917-2.06-3.124-.5-1.198-.74-2.504-.74-3.917 0-1.413.24-2.719.74-3.917s1.18-2.239 2.06-3.123c.87-.885 1.92-1.57 3.14-2.058 1.21-.496 2.54-.744 3.98-.744 1.45 0 2.81.248 4.02.744a9.513 9.513 0 013.14 2.058 9.443 9.443 0 012.06 3.123c.49 1.198.74 2.504.74 3.917zm-2.88 0c0-1.041-.17-2.016-.51-2.917-.34-.901-.81-1.694-1.42-2.363-.61-.67-1.36-1.19-2.22-1.579-.87-.388-1.85-.578-2.94-.578-1.1 0-2.08.19-2.95.578-.86.389-1.6.918-2.19 1.579-.61.669-1.07 1.454-1.4 2.363-.33.909-.5 1.876-.5 2.917s.17 2.016.5 2.917c.33.909.8 1.694 1.4 2.364.6.669 1.33 1.198 2.19 1.578.87.388 1.85.578 2.95.578 1.09 0 2.07-.19 2.94-.578.86-.388 1.6-.909 2.22-1.578a7.215 7.215 0 001.42-2.364c.33-.909.51-1.876.51-2.917zm12.4 13.125c.77 1.041 1.77 1.876 3.01 2.504 1.24.628 2.62.942 4.14.942 1.33 0 2.46-.19 3.4-.579.93-.388 1.68-.917 2.25-1.578.57-.67.99-1.446 1.24-2.339.26-.892.38-1.851.38-2.859v-3.363h-.08c-.85 1.281-1.89 2.19-3.12 2.718a9.575 9.575 0 01-3.89.802c-1.36 0-2.63-.24-3.81-.719-1.19-.479-2.23-1.14-3.1-1.983-.88-.843-1.57-1.843-2.09-3.016a9.595 9.595 0 01-.76-3.802c0-1.363.24-2.627.72-3.801a9.681 9.681 0 011.99-3.082 8.787 8.787 0 013-2.058c1.15-.496 2.43-.744 3.81-.744.57 0 1.16.058 1.78.157.63.108 1.26.298 1.88.562a8.68 8.68 0 013.58 2.876h.09v-3.123h2.63v18.559c0 1.017-.12 2.091-.38 3.24a7.833 7.833 0 01-1.48 3.157c-.73.958-1.75 1.76-3.06 2.396-1.3.636-3.01.959-5.12.959-1.87 0-3.54-.306-5-.918-1.47-.611-2.8-1.562-4-2.842l1.96-2.083.03.017zm.48-13.363c0 .984.18 1.918.53 2.777.37.868.85 1.628 1.48 2.281a7.267 7.267 0 002.2 1.562c.84.388 1.75.578 2.74.578.99 0 1.88-.173 2.75-.521a7.207 7.207 0 002.29-1.462 6.317 6.317 0 001.54-2.264c.36-.876.53-1.868.5-2.959 0-.983-.15-1.917-.47-2.776a6.866 6.866 0 00-1.4-2.281 6.753 6.753 0 00-2.24-1.562c-.88-.388-1.87-.578-2.96-.578-.98 0-1.9.19-2.74.578a7.13 7.13 0 00-2.2 1.562 7.238 7.238 0 00-1.48 2.281 7.357 7.357 0 00-.54 2.776v.008zm27.64-12.956h-2.37l4-5.76h3.64l-5.28 5.76h.01zm1.39 22.559h-2.63v-18.717h2.63v18.717zm19.57-14.282a4.877 4.877 0 00-1.61-1.843c-.67-.454-1.48-.678-2.43-.678-.46 0-.92.058-1.38.157-.48.108-.89.273-1.27.505a2.69 2.69 0 00-.9.859c-.22.347-.34.777-.34 1.281 0 .884.31 1.52.92 1.917.61.397 1.54.744 2.76 1.041l2.68.636c1.3.298 2.39.885 3.25 1.777.87.893 1.3 2.008 1.3 3.339 0 1.016-.21 1.884-.62 2.619a5.305 5.305 0 01-1.64 1.802c-.67.471-1.46.809-2.33 1.016-.88.207-1.78.322-2.68.322-1.44 0-2.78-.272-4.02-.818-1.24-.545-2.3-1.487-3.18-2.818l2.28-1.561a6.285 6.285 0 002.02 2.041c.81.504 1.77.76 2.9.76.53 0 1.06-.058 1.6-.182.53-.124 1.01-.306 1.42-.562a2.95 2.95 0 001-.983c.26-.397.38-.868.38-1.397 0-.934-.34-1.603-1.04-2.016-.69-.413-1.54-.744-2.52-.983l-2.56-.604c-.32-.082-.75-.215-1.3-.396a5.938 5.938 0 01-1.6-.843c-.52-.372-.97-.86-1.34-1.463-.37-.603-.56-1.339-.56-2.223 0-.958.19-1.801.58-2.52a4.95 4.95 0 011.56-1.76 7.003 7.003 0 012.22-1.017 9.807 9.807 0 012.56-.339c1.31 0 2.52.257 3.64.761s1.98 1.371 2.6 2.603l-2.36 1.562.01.008zm20.08-2.039h-5.4v11.04c0 .694.07 1.256.2 1.702.13.438.32.777.56 1.017.24.24.53.405.86.496.33.091.7.14 1.1.14.45 0 .92-.066 1.4-.198a6.54 6.54 0 001.32-.521l.11 2.438c-.98.454-2.17.678-3.56.678-.5 0-1.03-.066-1.58-.199a3.646 3.646 0 01-1.49-.76c-.46-.372-.83-.876-1.13-1.52-.29-.637-.43-1.48-.43-2.521v-11.8h-3.96v-2.397h3.96v-5.28h2.63v5.28h5.4v2.397l.01.008zm10.72-9.599c0 .561-.2 1.016-.61 1.38-.39.363-.84.537-1.32.537-.48 0-.92-.182-1.32-.537-.41-.356-.61-.819-.61-1.38 0-.562.2-1.017.61-1.38.4-.364.84-.538 1.32-.538.48 0 .92.182 1.32.538.4.363.61.818.61 1.38zm-.61 25.922h-2.63v-18.717h2.63v18.717zm23.28-14.324c-.45-.694-1.09-1.28-1.9-1.76-.82-.479-1.74-.719-2.78-.719-1.09-.025-2.07.149-2.94.521a6.41 6.41 0 00-2.22 1.562 6.824 6.824 0 00-1.4 2.38c-.32.917-.48 1.917-.48 2.983s.16 2.057.48 2.983c.32.917.79 1.71 1.4 2.38a6.33 6.33 0 002.22 1.562c.87.371 1.84.545 2.94.52 1.04 0 1.97-.239 2.78-.719.81-.479 1.45-1.066 1.9-1.76l2.16 1.636c-.94 1.091-1.99 1.901-3.16 2.422-1.17.52-2.4.793-3.68.818-1.52.024-2.89-.207-4.12-.703-1.22-.496-2.27-1.181-3.14-2.057a8.748 8.748 0 01-1.98-3.141c-.46-1.214-.68-2.528-.68-3.941 0-1.413.22-2.727.68-3.942a8.667 8.667 0 011.98-3.14 9.193 9.193 0 013.14-2.058c1.22-.496 2.6-.727 4.12-.702a9.42 9.42 0 013.68.818c1.17.521 2.22 1.33 3.16 2.421l-2.16 1.636zm20.92 2.842v-.48c0-3.222-1.6-4.842-4.8-4.842-2.19 0-4.09.735-5.72 2.198l-1.6-1.884c1.76-1.81 4.39-2.719 7.92-2.719.9 0 1.77.132 2.61.397.85.264 1.57.678 2.19 1.223.61.545 1.1 1.231 1.48 2.058.37.826.56 1.809.56 2.958v8.363c0 .719.03 1.471.1 2.256.06.785.14 1.437.22 1.941h-2.56c-.08-.454-.14-.95-.18-1.479-.05-.529-.06-1.049-.06-1.561h-.08c-.78 1.256-1.69 2.156-2.75 2.702-1.06.545-2.34.818-3.86.818-.82 0-1.62-.116-2.39-.339a5.84 5.84 0 01-2.06-1.041 5.265 5.265 0 01-1.44-1.719c-.36-.678-.54-1.471-.54-2.38 0-1.52.4-2.71 1.19-3.578.78-.868 1.77-1.512 2.95-1.942a14.58 14.58 0 013.81-.802c1.34-.107 2.57-.157 3.7-.157h1.32l-.01.009zm-1.36 2.156c-.67 0-1.51.034-2.51.1-1 .066-1.95.231-2.88.479-.92.256-1.71.644-2.36 1.182-.66.537-.99 1.264-.99 2.198 0 .611.13 1.14.38 1.578.26.438.6.802 1.02 1.083.43.281.9.479 1.42.603.52.124 1.05.182 1.58.182.96 0 1.79-.157 2.5-.48a5.18 5.18 0 001.78-1.297 5.27 5.27 0 001.06-1.917c.22-.736.34-1.512.34-2.339v-1.363h-1.37l.03-.009zm-82.06-224.412v-95.527h-88.31V279.4c26.7-7.437 56-12.156 88.31-14.23zm0 98.072v-78.215c-6.61.463-13.84 1.132-21.53 2.091-18.6 2.314-42.17 6.644-66.77 14.709v132.308h171.22v-70.893h-82.92z" fill="#3D4696"/><path d="M1221.57 246.386c-.48-.702-1.13-1.314-1.95-1.702l-42.79-20.543c-4-1.918-8.32 1.95-6.86 6.139l10.7 30.468 40.89-14.362h.01z" fill="#EB593B"/><path d="M1180.74 260.731l10.7 30.468c1.47 4.19 7.27 4.504 9.19.504l20.54-42.789c.4-.826.52-1.702.46-2.553l-40.89 14.362v.008zm-631.636 55.725c2.694-1.223 4.116-2.066 4.116-2.066s-1.455.776-4.116 2.066z" fill="#F4C23B"/><path d="M465.611 341.163s-2.429-18.254-3.652-19.469c-14.999-3.875-26.022-10.965-43.533-21.857-13.254-8.255-27.625-12.09-43.251-12.213 25.939 63.274 90.436 53.539 90.436 53.539z" fill="#EFAA00"/><path d="M658.421 318.77c-6.297 25.502-27.228 44.475-52.771 44.475-21.403 0-39.566-13.329-48.598-32.641l-.083.024-2-3.999c-1.173-2.339-1.735-4.818-1.925-7.223a66.673 66.673 0 01-2.116-16.684c0-33.161 24.047-61.357 54.722-61.357 21.072 0 39.012 13.305 48.185 32.377 9.957 1.314 19.882 3.578 29.798 6.809 24.006 7.834 45.954 20.667 66.125 34.418.372-4.281.571-8.636.571-13.081 0-84.57-68.819-139.704-144.687-139.704-75.868 0-144.679 55.134-144.679 139.704 0 84.569 68.819 139.704 144.679 139.704 56.432 0 108.947-30.509 132.159-80.942-32.583-21.907-57.283-36.071-79.388-41.888l.008.008z" fill="#3D4696"/><path d="M844.399 381.548v25.551c53.243 7.966 79.727-43.657 147.307-86.668 38.114-24.254 83.074-35.625 119.794-40.88 40.67-5.818 69.44-18.916 69.44-18.916l-2.48-6.611c-22.31 11.569-46.02 15.652-67.39 18.412-182.853 23.658-191.141 135.283-266.671 109.104v.008z" fill="#EB593B"/><path d="M998.132 326.228c-25.451 15.337-44.664 32.864-61.621 48.325-4.371 3.991-8.635 7.875-12.85 11.577l44.086 47.995h53.063V314.204c-7.66 3.57-15.26 7.553-22.678 12.024zm-61.063-156.586v74.62c0 13.684 1.248 25.286 2.075 36.897l-.827.413c-8.288-11.197-21.973-26.948-32.335-38.137l-68.406-73.793h-76.281v264.492h83.33V297.132c10.685 13.495 24.824 30.03 38.971 45.384l21.469 23.369c6.106-4.528 12.511-9.867 19.617-15.783 20.899-17.42 46.904-39.095 86.668-56.292 3.12-1.347 6.28-2.644 9.47-3.9V169.642h-83.751zm-784.37 69.871c-11.23-13.767-33.806-29.997-30.385-50.375 1.661-9.908 8.346-20.064 23.212-29.311 0 0-50.201 9.313-38.847 57.333 8.611 36.434 40.723 65.373 13.767 102.501-19.444 26.774-33.22 36.955-33.36 48.45-.09 7.586 4.76 12.94 6.413 14.957 10.668 13.023 28.997 11.668 31.368 11.453 9.644-1.38 19.279-2.752 28.923-4.132 28.402-86.255 17.221-128.424-1.083-150.86l-.008-.016z" fill="#3D4696"/><path d="M359.757 464.058c-4.867-57.193-116.69-25.411-135.068-52.325-16.114-23.593-12.23-69.291-46.111-53.59-41.83 24.419-91.717 9.974-91.725 9.917 7.437 58.671 90.387-1.347 118.367 41.243 13.205 20.097 30.418 23.122 79.091 32.856 43.615 7.074 68.348 40.178 46.077 78.983-.644 1.124.62 2.38 1.769 1.76 26.311-14.378 28.889-43.648 27.6-58.844z" fill="#53B9A4"/><path d="M83.355 103.926c-.435-.461-2.218-7.496-.844-8.879 1.74-1.739 3.479 0 2.583-4.07-.991-4.521 1.696-9.409-.835-9.73-.887-.113-2.835.287-1.86-3.392.973-3.678 3.556-5.94 2.269-7.418-1.287-1.478-1.54-4.73.33-6.148 1.87-1.417 3.279-3.218 3.444-6.226.165-3.01 2.496-7.323 5.679-9.08 3.182-1.756 5.565-1.73 5.348.018-.426 3.444 5.122 3.583 6.148 4.305 1.252.878 2.122 1.748-1.374 1.322-5.183-.635-4.192.765-4.696 4.078-.504 3.313-3.6 3.392-3.33 5.253.217 1.539.852 1.522 1.4 5.009.547 3.487-.21 2.87-1.131 4.487-.922 1.617-.33 4.078-1.06 7.192-.731 3.113-2.845 3.008-2.662 6.54.183 3.53-1.26 7.739-3.148 10.417-1.757 2.496-2.626 10.218-6.252 6.34l-.01-.018zm47.418-27.756c-.2-.409-.157-.913.165-1.244.348-.347.643-1.07.191-2.53-.791-2.574-3.156-2.453-2.409-3.818.748-1.365 1.557-1.304 1.148-3.513-.408-2.209.044-5.122 1.122-7.14 1.078-2.017 2.548-4.174 3.983-5.27 1.435-1.095 2.313 1.522 4.487.653 2.174-.87 2.931-5.114 2.113-5.6-.817-.488-1.687-.488-3.435-.905-.921-.217-3.461-2.191-1.443-4.096 1.174-1.113 4.67-2.722 4.365-.843-.304 1.878-.052 1.252.566 1.878.869.87-.931 1.365-.035 1.983.895.617 1.122 2.53 1.469.13.305-2.122.731-2.304 1.235-.565.809 2.791-1.261 3.348 1.079 3.07 2.339-.279 7.557-.279 5.817 1.46-2.217 2.218-2.809 2.062-3.826 4.131-.696 1.418-.183 2.261.513 2.757.644.46 1.47.591 2.261.487.548-.07 2.392.043 2.792.452.869.87-1.087 2.661-2.827 2.635-2.391-.026-2.191.096-1.861 1.774.331 1.678 1.27 5.113-.069 6.435-1.339 1.322-1.731 2.853-4.14 3.392-2.408.539-5.026 1.409-6.07 4.565-.382 1.148-3.304 2.93-5.696 1.487-.565-.339-1.182-1.07-1.521-1.782l.026.017z" fill="#3D4696"/></svg>