<svg version="1.1" id="Layer_1" xmlns="http://www.w3.org/2000/svg" x="0" y="0" viewBox="0 0 1308 566" xml:space="preserve"><style>.st1{fill:#ff5910}.st2{fill:#ffb900}.st3{fill:#0032b3}.st4{fill:#ffd300}</style><path d="M273.4 45.8c-6.6 1.4-12.7 3.2-18.2 5.5-1.7.1-2.5.7-2.4 1.8l-.9.6c-1.2.3-2.4 1-3.7 2-3 2.5-5.5 5.4-7.4 8.7-4.7 6-8.2 12.5-10.5 19.6l-2.3 4c-.2.3-.4.5-.8.6-15.4 5.4-33.6 13.7-37.8 31.5-1.4 6.1-.5 14.9-1.1 21.3-1 10.1-5.3 18.1-13 23.9-8.3 6.2-22.7 6.1-32.3 6.4-10 .4-22 1.3-25.8 12.5-.7-11.3 12-23.4 21.1-28.4.3-.2.5-.3.6-.5.3-.5.3-.7 0-.9 10.9-4.6 20.5-14.5 22.6-26.6.3-2 .4-6 0-11.9-.4-6.7-.6-13.7 1.4-19.9 8.2-25.5 34.2-29.6 57.9-25.1 3.9.7 7.6-.5 11-3.7 12.4-11.8 22.8-22.4 41.6-21.4z" fill="#00deb6"/><path class="st1" d="M273.4 45.8c4.2.1 8.5.6 12.7 1.7.5.1.8.6.7 1.1-.1.4-.4.7-.8.7-12.8.6-22.3 5.7-28.5 15.3-2.8 4.4-5 10.7-6.5 18.8-2.9 15.7-3 31.4-.3 47.1 11.5 66.2 83.2 59.7 131.6 59.4 8.3-.1 15.2.7 20.6 2.2 8.1 2.3 11.6 10.2 7.6 17.7-2.2 4-4.9 8.3-6.2 12.3-5 14.9 1 34 9.3 46.9 10.8 16.8 25.8 29.3 44.9 37.3l1.3 11.8c-3.8-1.5-8-2.6-11.5-4.2-9.9-4.6-19.4-9.8-28.6-15.7-6.5-4.1-11.3-6.8-14.3-8.1-10.8-4.7-22.1-7-33.9-6.9-1.8-4.1-3.4-7.8-4.8-12.3-5.2-17.4-13.4-32.9-27.4-44.8-15.2-13-38-20.4-57.1-29-8-3.6-13.9-6.7-17.7-9.3-31.5-21.7-44.4-67.7-34.1-103.5 2.3-7.1 5.8-13.6 10.5-19.6 3.2-4.4 6.9-8 11.1-10.8l.9-.6 2.4-1.8c5.4-2.5 11.5-4.4 18.1-5.7z"/><path class="st2" d="M255.3 51.3l-2.4 1.8c-.2-1.1.6-1.7 2.4-1.8zm-3.4 2.4c-4.2 2.8-7.9 6.4-11.1 10.8 1.9-3.3 4.4-6.2 7.4-8.7 1.3-1.1 2.5-1.8 3.7-2.1z"/><path class="st3" d="M138.9 154.5c.3.1.3.4 0 .9-.1.2-.3.4-.6.5-9 5-21.8 17.1-21.1 28.4-2.8 18.7 15.3 36.9 27.7 48.3 3.7 3.4 6.3 6.2 7.9 8.4 14.2 20.3 17.8 53 4.9 74.7-5.6 9.4-15.2 17.1-17.1 29-2.5 16 25.3 10.5 33.1 9.1 5.7-1 9.7-1.4 12.1-1.2 19.8 1.7 21.4 25.2 27.1 41 4.7 13 9.1 21.2 24.3 24.1 9.2 1.7 16.6 2.8 22.3 3.2 22.8 1.6 46.1 1.7 67.8 8 4.6 1.3 9.2 3.6 13.9 6.7 5.8 3.9 10.2 9.1 13.1 15.6 1.2 5.5 1.8 9.3 1.9 11.5.5 10.1-.7 19.6-3.7 28.5-2.8 8.3-7.8 15.8-15 22.4-2.8 2.9-6 5.1-9.7 6.6-.6.2-1.2-.1-1.4-.6-.1-.3-.1-.7.1-1 20.1-34 2.7-64.6-31.8-76.3-3.2-1.1-9.1-2.5-17.7-4.1-11.4-2.2-22.8-4.7-34.1-7.3-13.5-3.1-27.3-7.7-37-18.1-3.3-3.5-6.6-9.3-9.7-12.7-14.2-15.4-33.9-15.1-53.1-12.5-10.4 1.4-19.9 2.3-28.5 2.6-16.2.6-27.2-6.6-32.8-21.7-2.4-6.3 2.1-14.3 6.1-19.3 6.9-8.5 13.7-16.9 20.6-25.4 7.4-9.1 14-18.7 16.2-30 2.9-15.3-2.3-29.7-8.5-43.5-11.4-25.1-29.7-59.8-2.7-83.1 6.8-6 15.4-10.2 25.4-12.7zm409.5 141.4c-.3 5.4.2 11.1 1.7 17.3 6.4 29.2 32.7 51.6 63.1 45.7 19.5-3.8 34.5-18 41.5-36.6.1-.3.5-.5.8-.4 27.8 8.4 54.5 23.5 78.7 39.6.3.2.5.7.3 1-43.9 82.7-158.2 100.7-228.3 41.2-20.9-17.7-35.2-39.8-42.9-66.2l-3.7-19.2-1.3-11.8c-5.5-97.1 80.8-163.6 173.3-147.1 31.9 5.7 62.9 21.9 84.2 46.6 25.5 29.4 36.5 64.4 33.2 104.8 0 .2-.2.3-.3.3-.3-.1-.6-.2-.9-.4-29-20-59.9-35-94.5-40.2-.3 0-.5-.2-.6-.5-15-32.4-54.4-45.1-82.6-20.4-13.2 11.5-20.4 26.9-21.7 46.3zm296.3 84.3l.2 25.4.1 24.4c0 .4-.3.7-.7.7h-82.7c-.3 0-.6-.3-.6-.6V165.3c0-.7.4-1.1 1.1-1.1l74.7-.1c.8 0 1.6.3 2.1.9 24.4 26.3 48.8 52.7 73.2 79.3 9.6 10.4 18.7 21.2 27.5 32.4.1.2.4.2.6.1.1-.1.1-.2.2-.2.1-.5.1-1 .1-1.6-1.1-10.8-1.7-21.6-1.8-32.5l-.3-77.8c0-.4.2-.5.5-.5h83.1c.6 0 .9.3.9.9v120.8c0 .6-.3 1.1-.9 1.3-25 10-48.3 23.2-70 39.7-14.4 10.9-29.4 23.5-44.4 35.8-.2.2-.5.1-.7-.1-21.9-22.8-42.8-46.5-62.8-70.9-.1-.1-.3-.2-.4 0-.1.1-.1.2-.1.3 1.3 29.4 1.8 58.9 1.1 88.2zm297.9-118.5c-29.7 1.8-58.4 6.7-87.3 14.1-.5.1-.8-.1-.8-.6V164.7c0-.3.2-.5.5-.5h87.5c.5 0 .8.4.8.8v96c.1.4-.2.7-.7.7z"/><path class="st1" d="M1226.8 270.5c-1.6-.7-3.1-1.1-4.3-1.1-12.7 0-25.4.1-38.1.5-.3 0-.6.2-.7.5-.4.8-.6 1.6-.4 2.5-34.4-.6-67.9 2.6-100.5 9.7-37.6 8.1-73.5 22.5-105 45.3-14.8 10.8-28.2 21.9-42.3 34.5-14 12.6-26.7 24.1-41.8 33.6-14.8 9.3-31.1 12.5-48.8 9.7l-.2-25.4c4.7 1.2 9.6 2.8 13.8 3.4 15.1 2.2 29.3-1 42.5-9.8 17.3-11.5 32-24.9 47.9-37.6 30-24 63.3-41.5 100.1-52.5 42.8-12.9 88-17.8 133.1-17.5.9 0 1.3-.4 1.3-1.3.1-8.3.1-16.8 0-25.6-.1-6 4.3-10.1 9.4-4.8 7.7 7.9 18.7 18.9 33.1 32.9.6.4.9 1.4.9 3z"/><path class="st4" d="M1226.8 270.5c-11.6 11.9-23.4 23.6-35.3 35.2-3.1 3-7.8-.3-7.8-4 0-9.8-.1-19.4-.4-28.9-.1-.9 0-1.7.4-2.5.2-.3.4-.4.7-.5 12.7-.3 25.4-.5 38.1-.5 1.2.1 2.6.5 4.3 1.2z"/><path class="st1" d="M760.8 329.2v36.4c-.1-1-.2-1.3-.3-.7.2-1 .2-1.7.2-2.3 0-.7-.3-1-.9-.9-.4.1-.7 0-.9-.3-1.5-1.5-2.7-2.6-3.6-3.3-7.4-5.5-15.8-11.4-25.3-17.7-28.8-19.3-60.8-38.3-95.6-42.6-22.3-2.8-47.3 1.7-69.8 8.8-3.4.7-10.4 1.9-13 4-.3.2-.4.5-.4.8 0 .9-.3 1.5-.9 2-1.5-6.2-2-11.9-1.7-17.3 19.1-9.1 38.3-14.9 57.8-17.5 57.3-7.5 109.1 18 154.4 50.6z"/><path class="st3" d="M1144 359.3h82c.5 0 1 .4 1 1v69.9c0 .2-.2.4-.4.4H1055c-.2 0-.4-.2-.4-.4V299.4c0-.4.2-.7.6-.8 28.5-9.1 57.6-14.6 87.5-16.7.5 0 .8.2.8.7v76c-.2.4.1.7.5.7z"/><path class="st2" d="M371.4 282.9c11.8-.1 23.1 2.2 33.9 6.9 3 1.3 7.7 4 14.3 8.1 9.2 5.8 18.8 11 28.6 15.7 3.5 1.6 7.7 2.8 11.5 4.2l3.7 19.2c-13 .8-25.9-.1-38.7-2.7-1.5-1.2-3.3-1.9-5.5-2.3-.3 0-.5-.2-.6-.5l-.6-1.3c-.1-.3-.4-.6-.6-.8-1.5-1-3.1-1.6-4.8-1.9-2.7-.5-5.5-1.8-7.7-3.5-6.3-4.5-12.7-8.5-17.3-14.6-6.5-8.7-12-15.1-15.4-25.2-.1-.3-.3-.5-.6-.7-1-.4-1.2-.5-.6-.5-.1-.4 0-.5.4-.1z"/><path class="st4" d="M371 283.2c-.6-.1-.4.1.6.5.3.1.5.3.6.7 3.4 10.1 8.9 16.5 15.4 25.2 4.6 6.2 11.1 10.1 17.3 14.6 2.2 1.6 5 3 7.7 3.5 1.7.3 3.3 1 4.8 1.9.3.2.5.4.6.8l.6 1.3c.1.3.3.4.6.5 2.1.3 4 1.1 5.5 2.3-12.8-2.4-24.8-6.9-35.9-13.5-4.1-2.4-7.1-3.9-9.2-4.5-22.3-6.3-40.1 15.3-44.4 34.4-2.7 11.8-2.3 24.8 2.5 35.9 11.6 26.9 41.9 55.3 33 87.1-4 14.3-14.4 26.8-25.9 35.9-2.3 1.8-4.8 2.7-7.5 3.9 7.2-6.6 12.2-14.1 15-22.4 3-8.9 4.2-18.4 3.7-28.5-.1-2.2-.7-6-1.9-11.5-2.2-7.8-6.6-14.7-13.2-20.8-7-6.5-15.9-13.7-22.1-19.9-12-12-22.8-25.8-28.4-41.7-2.5-7-3.8-13.5-3.9-19.5-.4-20.2 11.3-38.6 28-49.6 17.1-11.2 35.9-16.8 56.5-16.6zm389.5 81c-1-.4-2.1-1-3.1-1.8-1.1-.9-2.1-1.5-2.9-1.9-3.5-1.8-8.2-4.7-14.1-8.7-14.7-10-29.4-18.6-44-26-13.1-6.6-28.3-13-42.3-16.5-30.7-7.7-60.2-3.9-90.3 4.3-.3.1-.6-.1-.7-.4v-.3l1.5-7c22.5-7.1 47.5-11.6 69.8-8.8 34.8 4.3 66.8 23.3 95.6 42.6 9.5 6.3 17.9 12.2 25.3 17.7 1 .7 2.2 1.8 3.6 3.3.2.3.5.4.9.3.6-.1.9.2.9.9.1.6 0 1.3-.2 2.3z"/><path class="st3" d="M1013.5 316.1c3.4-1.8 6.2-3.3 8.5-4.2.5-.2.8-.1.8.5v117.3c0 .6-.3.9-.9.9h-51.6c-.7 0-1.3-.3-1.8-.8L926.2 384c-.2-.3-.2-.5 0-.7 13-12.3 26.3-24 39.9-35.4 14.1-11.7 29.8-22.3 47.4-31.8zM1125 465.2l-8.9 3.9c-.3.2-.7 0-.9-.3l-1.4-2.7c-.2-.3 0-.7.3-.9l8.8-4.7c.3-.2.8 0 .9.3v.1l1.5 3.5c.2.3 0 .7-.3.8zm-632.1 14.9c0 9-7.3 16.2-16.2 16.2s-16.2-7.3-16.2-16.2 7.3-16.2 16.2-16.2 16.2 7.2 16.2 16.2zm-16 9.3c4.7-.1 8.4-4.4 8.3-9.5-.1-5.2-4-9.2-8.7-9.1-4.7.1-8.4 4.4-8.3 9.5.1 5.1 4 9.2 8.7 9.1zm27.5-16c6.6-3.2 11.7-2.2 15.5 2.9 4.1 5.6 2.7 14.9-3.4 18.5-3.4 2-9 2.4-12-.9-.3-.3-.5-.3-.6.2l-.2.9c-.1.3-.3.5-.7.5h-5.3c-.5 0-.8-.2-.8-.8v-29.5c0-.5.2-.7.7-.7h5.7c.4 0 .6.2.6.6v8c.1.4.3.5.5.3zm4.5 16.6c3.2.3 6-2.1 6.4-5.4s-1.9-6.3-5.1-6.7c-3.2-.3-6 2.1-6.4 5.4-.3 3.4 2 6.4 5.1 6.7zM646 477.6l-2.3-.2c-.3 0-.6-.3-.6-.7V473c0-.4.3-.7.7-.7h2.1c.4 0 .7-.3.7-.6v-6.6c0-.4.3-.7.7-.7h5.5c.4 0 .7.3.7.7v6.5c0 .4.3.6.6.7l2.2.1c.4 0 .6.3.6.7v3.8c0 .4-.3.7-.7.7l-2.1-.1c-.4 0-.7.3-.7.6v.1l.1 16.6c0 .4-.3.7-.7.7h-5.5c-.4 0-.7-.3-.7-.7v-16.6c0-.3-.3-.6-.6-.6zm58.1-13.1l5.7.1c.3 0 .5.2.5.5v4.2c0 .3-.2.5-.5.5l-5.7-.1c-.3 0-.5-.2-.5-.5V465c0-.3.2-.5.5-.5zm60.1 13.4l.2 17.2c0 .2-.2.4-.4.4h-6.8c-.2 0-.4-.2-.4-.4v-30.2c0-.2.2-.4.4-.4l6.3.1c.1 0 .2.1.3.2l11.4 18.6c.1.2.3.2.5.1.1-.1.2-.2.2-.3l-.3-18.2c0-.2.2-.4.4-.4h6.7c.2 0 .4.2.4.4v30.1c0 .2-.2.4-.4.4h-6.3c-.1 0-.2-.1-.3-.2L765 477.7c-.1-.2-.3-.2-.5-.1-.3 0-.3.1-.3.3zm81.8-13.4h5.6c.4 0 .7.3.7.7v3.9c0 .4-.3.7-.7.7H846c-.4 0-.7-.3-.7-.7v-3.9c0-.4.3-.7.7-.7zm96.2.1h6c.2 0 .4.2.4.4l-.1 30c0 .2-.2.4-.4.4h-6c-.2 0-.4-.2-.4-.4l.1-30c0-.2.2-.4.4-.4zm41.3 29.3c-.8.8-1.3 1.4-2.5 1.8-14.8 4-20.9-15.5-9.7-22.5 3.9-2.4 7.9-2.2 12.2.6.3.2.5.1.5-.3v-8.2c0-.3.3-.6.6-.6l5.7-.1c.3 0 .5.2.5.5v30c0 .4-.2.5-.5.5h-5.1c-.4 0-.6-.2-.8-.6l-.2-.8c-.1-.5-.4-.6-.7-.3zm1-9.9c0-3.3-2.7-6-6-6s-6 2.7-6 6 2.7 6 6 6 6-2.7 6-6zm60.8 4.7h7.9c.3 0 .6.3.6.6v5.6c0 .3-.3.6-.6.6h-15.9c-.3 0-.6-.3-.6-.6v-29.8c0-.3.3-.6.6-.6h6.8c.3 0 .6.3.6.6v23c0 .3.3.6.6.6zm103.4-16.9v-6.6c0-.3.3-.6.6-.6l5.6.1c.3 0 .6.3.6.6v6.6c0 .3.3.6.6.6h2.1c.3 0 .6.3.6.6v3.9c0 .3-.3.6-.6.6l-2-.1c-.3 0-.6.2-.6.6v16.8c0 .3-.3.6-.6.6h-5.6c-.3 0-.6-.3-.6-.6v-16.6c0-.3-.3-.6-.6-.6l-2.4-.1c-.3 0-.6-.3-.6-.6l.1-3.9c0-.3.3-.6.6-.6h2.2c.3 0 .6-.3.6-.7zm13.7-7.2h5.8c.3 0 .5.2.5.5v4.1c0 .3-.2.5-.5.5h-5.8c-.3 0-.5-.2-.5-.5v-4.1c0-.3.3-.5.5-.5zm-631 24.5c1.6 1.2 2.3 2.5 4.6 1.4.3-.1.5-.3.6-.6 1.7-4.9-11.3-3.2-11.5-10.8-.1-9.1 16.7-10.3 17.7-1.1 0 .3-.1.5-.4.6-2.6.6-5 .3-7.2-1-.6-.3-1-.5-1.4-.5-.7 0-1.2.3-1.4.9-.7 1.5.9 2.6 2.1 2.9 2.5.6 4.9 1.6 7.2 2.8.3.1.5.4.7.7 6.9 13.5-16.6 16.1-17.4 5 0-.4.2-.6.5-.6h4.9c.4 0 .7.1 1 .3zm50.1-15.2c1.1-1.5 2.7-2.3 4.6-2.4.3 0 .6.2.6.5v5.9c0 .3-.3.6-.6.6-3.3-.2-5 1.3-5 4.3 0 4 0 8-.1 12 0 .4-.2.5-.5.5h-5.6c-.4 0-.6-.2-.6-.6v-21.9c0-.3.2-.5.5-.5h5.4c.3 0 .5.2.5.5v.8c0 .2.2.4.4.4.3.1.4 0 .4-.1zm50.6 20.3c-3.7 2.5-7.4 2.9-11 1.3-10.5-4.9-8.8-21.1 2.6-23.6 3.2-.7 5.9 0 8.2 2.1.4.3.6.3.6-.2l.1-.7c.1-.3.3-.6.7-.6h5.7c.4 0 .5.2.5.5v21.9c0 .4-.2.6-.6.6h-5.6c-.4 0-.6-.2-.7-.5l-.2-.6c.2-.4 0-.4-.3-.2zm.9-10.2c0-3.3-2.7-6-6-6s-6 2.7-6 6 2.7 6 6 6c3.3-.1 6-2.7 6-6zm106.5-.8c.4 6.8-4.9 12.7-11.8 13.1-6.9.4-12.9-4.8-13.3-11.6-.4-6.8 4.9-12.7 11.8-13.1 6.9-.5 12.9 4.8 13.3 11.6zm-12.8 6.7c3.1.1 5.8-2.4 5.9-5.7.1-3.3-2.3-6.1-5.4-6.2-3.1-.1-5.8 2.4-5.9 5.7-.2 3.3 2.3 6.1 5.4 6.2zm78.2 4.1c-1 1-1.7 1.7-3.1 2-15.8 3.2-20-18.8-6.7-23.8 3.3-1.2 6.6-.7 10 1.6.3.2.5.1.6-.2l.3-.7c.1-.3.3-.4.6-.4h5.6c.3 0 .5.2.5.5v21.9c0 .3-.3.6-.6.6h-5.6c-.3 0-.6-.2-.7-.5l-.2-.8c-.1-.5-.3-.6-.7-.2zm-4.5-4c3.2-.2 5.7-3.1 5.5-6.4s-3-5.9-6.2-5.7c-3.2.2-5.7 3.1-5.5 6.4.1 3.4 2.9 5.9 6.2 5.7zm23.5-4.4c1.3 4.8 7.1 6.1 10.2 1.6.2-.3.5-.4.9-.5h5.3c.9 0 1.2.4.8 1.2-3 7.6-12.6 11.2-19.2 6.1-11.4-8.8-2.1-26.4 11.5-21.8 3.6 1.2 6.1 3.8 7.7 7.8.2.4 0 1-.5 1.1-.1 0-.2.1-.3.1h-5.2c-.4 0-.7-.2-.9-.5-4-6-12.1-1.5-10.3 4.9zm68.3-11.7c.7-.4 1.3-.8 1.9-1.2 3.7-2.8 9.6-.5 11.3 2.7 2.4 4.2 1.3 13.9 1.4 19.5 0 .3-.2.6-.5.6h-5.7c-.4 0-.6-.2-.6-.6.1-4.4 0-8.7-.2-12.9-.3-6-7.5-4.9-7.5 0v13c0 .3-.2.5-.5.5H886c-.4 0-.6-.2-.6-.6v-21.7c0-.5.3-.8.8-.8h4.9c.4 0 .7.3.8.7v.5c-.1.4.1.5.3.3zm36.6 20.1c-9.9 7.3-20.7-3.4-17.4-13.7 2.5-7.9 9.9-11.2 17.3-6.7.3.2.5.1.6-.2.1-.3.3-.5.5-.7.2-.2.5-.3.9-.3 1.7 0 3.4 0 5.1.1.3 0 .5.2.5.5l.1 21.7c0 .5-.2.7-.7.7h-5.6c-.4 0-.7-.2-.8-.6l-.1-.6c0-.3-.2-.4-.4-.2zm-5.5-4c3.2.2 6-2.4 6.2-5.7.2-3.3-2.3-6.2-5.6-6.3-3.2-.2-6 2.4-6.2 5.7-.2 3.3 2.3 6.1 5.6 6.3zm78.5-3.2c.9 2.5 2.6 3.7 5 3.8.8 0 2-.4 3.6-1.2 2.2-1.1 4.7-1.4 7.4-.8.3.1.4.3.2.5-3.1 5.6-7.5 7.9-13.2 6.8-12.8-2.3-13.2-20.1-1.2-23.9 8.8-2.8 16.1 4.8 15.6 13.3 0 .3-.3.6-.7.6l-16.3.1c-.3 0-.5.2-.5.5 0 .2.1.2.1.3zm.2-5.3h10.3c.1 0 .2-.1.2-.2v-.1c0-2.1-2.3-3.8-5.2-3.8h-.3c-2.9 0-5.2 1.7-5.2 3.8v.1c0 .1.1.2.2.2zm99.4 12.3c-3.4 2.9-7.2 3.3-11.3 1.3-8.8-4.4-8.4-17.6-.2-22.2 3.8-2.1 7.5-1.9 11 .6.4.3.6.2.8-.2 0-.1.1-.2.2-.3.2-.3.4-.4.7-.5l5.6-.1c.4 0 .5.2.5.5V487c0 6.3-.2 10-.6 11.4-1.3 4.3-4.7 6.8-10.2 7.6-4.2.6-13.7-1.6-13.5-7.4 0-.3.2-.5.5-.6 3.6-.7 6.8-.1 9.6 1.8.3.2.7.3 1.1.3 4.1 0 6.2-2 6.2-6.2-.1-.2-.2-.3-.4-.1zm-4.6-3.8c3.1-.3 5.4-3.3 5-6.6-.3-3.3-3.2-5.8-6.3-5.4-3.1.3-5.4 3.3-5 6.6.4 3.3 3.2 5.7 6.3 5.4zm34.9-.8c1.2 1.6 3.8 2.7 4.8.5.5-1 .1-2.3-1-2.8-.1-.1-.2-.1-.3-.1-3.7-1-9.1-2.5-9.9-6.6-1-5.1 3.8-8.4 8.5-8.6 4-.2 7 1.6 9 5.4.3.6.1 1.3-.5 1.6-.2.1-.3.1-.5.1l-4.7.1c-.3 0-.6-.1-.8-.4-.9-1.3-2.1-1.6-3.6-1-.8.3-1.2 1.2-.9 2.1.2.5.6.9 1.1 1 3.4.9 8.6 2.1 10.2 5.5 1.2 2.7.8 5.1-1.2 7.4-4.5 5.1-15.1 3.8-17.1-3.8-.1-.4.1-.7.5-.8h5.4c.4-.1.7.1 1 .4zm58.8-8.4c-6.9-8.8-15.3 4.1-7.5 8.5 2.7 1.5 5.2.8 7.5-2.1.2-.3.5-.4.9-.4h5.4c.3 0 .5.3.5.6v.1c-.9 6.1-8.5 9.6-13.8 8.8-10.2-1.4-14.1-14.1-6.8-21.3 6.6-6.4 16.8-3.4 20.4 4.7.5 1.1.1 1.6-1.1 1.6h-4.8c-.3-.1-.5-.2-.7-.5zm28.3-7.1l.2-.7c.1-.4.3-.6.8-.6l5.6.1c.4 0 .5.2.5.5v22c0 .4-.2.5-.5.5h-5.8c-.3 0-.5-.2-.6-.5l-.2-.6c-.1-.4-.3-.5-.6-.2-2.5 1.8-5.2 2.5-8 2.1-11.4-1.8-13.1-17.8-3.6-23.2 4.2-2.3 8.1-2.1 11.6.8.3.3.5.2.6-.2zm-5.7 16.4c3.2 0 5.9-2.7 5.9-6 0-3.4-2.5-6.1-5.8-6.2-3.2 0-5.9 2.7-5.9 6-.1 3.4 2.5 6.1 5.8 6.2zm-659.4-3.8c-.5.7-.5 1.3-.2 1.7 2.6 3.3 5.6 3.6 9 .8.3-.2.6-.3.9-.3l5.1-.1c.5 0 .9.4.9.8 0 .2 0 .3-.1.5-3.9 5.9-10.1 8.4-16.6 5.2-2.7-1.3-4.6-3.5-5.7-6.5-3.9-10.2 6.7-20.7 17.1-15.4 4.6 2.3 6.8 6.5 6.5 12.5 0 .3-.3.6-.6.6-5 0-9.8 0-14.6-.2-1-.1-1.5.1-1.7.4zm-.5-4.8h10c.1 0 .1-.1.1-.1v-.1c0-2.1-2.3-3.9-5.1-3.9h-.2c-2.8 0-5.1 1.7-5.1 3.9v.1c.2 0 .3.1.3.1zm130.1 2c.2 6.8-5.2 12.6-12.1 12.8-6.9.2-12.8-5.1-13-11.9-.2-6.8 5.2-12.6 12.1-12.8 7-.3 12.8 5.1 13 11.9zm-12.7 6.4c3.1.1 5.7-2.5 5.8-5.8.1-3.3-2.4-6-5.5-6.1-3.1-.1-5.7 2.5-5.8 5.8-.1 3.3 2.4 6 5.5 6.1zm23.9-16c1.1-1.5 2.6-2.2 4.5-2.3.3 0 .6.2.6.5l.1 5.5c0 .4-.3.7-.7.7-1.7 0-3.2.6-4.4 1.8-.2.2-.4.6-.4.9l-.2 13.7c0 .4-.2.7-.7.7h-5.5c-.4 0-.7-.3-.7-.6v-21.9c0-.3.2-.5.5-.5h5.2c.3 0 .6.2.6.5l.2.8c.1.2.3.4.5.3.3.1.4 0 .4-.1zm186.7 10c0 6.9-5.6 12.5-12.5 12.5s-12.5-5.6-12.5-12.5 5.6-12.5 12.5-12.5 12.5 5.6 12.5 12.5zm-12.4 6.1c3.1 0 5.6-2.8 5.5-6.1 0-3.3-2.6-6-5.7-5.9-3.1 0-5.6 2.8-5.5 6.1 0 3.2 2.6 5.9 5.7 5.9zm211.8-6c0 6.9-5.6 12.5-12.5 12.5s-12.5-5.6-12.5-12.5 5.6-12.5 12.5-12.5 12.5 5.6 12.5 12.5zm-12.5 6c3.1 0 5.6-2.6 5.7-5.9 0-3.3-2.5-6-5.5-6-3.1 0-5.6 2.6-5.7 5.9-.1 3.2 2.4 5.9 5.5 6zm-363.9-17.6h5.7c.3 0 .6.3.6.6v21.9c0 .3-.3.6-.6.6h-5.7c-.3 0-.6-.3-.6-.6V473c0-.4.2-.6.6-.6zm141.6 0h6c.3 0 .5.2.5.5V495c0 .3-.2.5-.5.5h-6c-.3 0-.5-.2-.5-.5v-22.1c0-.3.2-.5.5-.5zm269 0h5.8c.3 0 .5.2.5.5V495c0 .3-.2.5-.5.5h-5.8c-.3 0-.5-.2-.5-.5v-22.1c0-.3.2-.5.5-.5zm47.6 0h5.9c.3 0 .5.2.5.5V495c0 .3-.2.5-.5.5h-5.9c-.3 0-.5-.2-.5-.5v-22.1c0-.3.2-.5.5-.5zM601.6 486l4.1-13.4c0-.1.2-.3.3-.2l6.4.1c.2 0 .3.2.3.4v.1l-8.1 22.3c0 .1-.2.2-.3.2h-6.2c-.1 0-.3-.1-.3-.2l-8-22.4c-.1-.2 0-.4.2-.4h6.3c.2 0 .3.1.3.2l4.2 13.3c.1.2.3.3.4.2.2 0 .3-.1.4-.2z"/></svg>