<svg width="560" height="235" fill="none" xmlns="http://www.w3.org/2000/svg"><path fill="#fff" d="M0 0h560v235H0z"/><path d="M111.904 13.029c-2.914.62-5.608 1.416-8.037 2.434-.751.044-1.104.31-1.06.797l-.397.265c-.53.133-1.06.443-1.634.885-1.325 1.107-2.429 2.39-3.268 3.85-2.075 2.656-3.62 5.532-4.636 8.674l-1.016 1.77c-.088.133-.177.222-.353.266-6.8 2.39-14.838 6.063-16.692 13.94-.619 2.7-.221 6.594-.486 9.426-.442 4.47-2.34 8.01-5.74 10.577-3.666 2.744-10.025 2.7-14.264 2.832-4.416.177-9.715.575-11.393 5.532-.309-5 5.3-10.355 9.318-12.568.132-.089.22-.133.265-.222.132-.22.132-.31 0-.398 4.813-2.035 9.052-6.417 9.98-11.771.132-.886.176-2.656 0-5.267-.177-2.965-.265-6.063.618-8.806 3.62-11.285 15.102-13.1 25.568-11.108 1.722.31 3.356-.221 4.857-1.638 5.476-5.222 10.068-9.913 18.37-9.47z" fill="#00DEB6"/><path d="M111.905 13.03c1.854.043 3.753.265 5.608.751.22.045.353.266.309.487-.044.177-.177.31-.353.31-5.653.266-9.848 2.523-12.586 6.77-1.236 1.948-2.208 4.736-2.87 8.32a59.005 59.005 0 00-.132 20.845c5.078 29.296 36.74 26.42 58.112 26.286 3.665-.044 6.712.31 9.097.974 3.577 1.018 5.122 4.514 3.356 7.833-.972 1.77-2.164 3.673-2.738 5.443-2.208 6.594.442 15.047 4.107 20.756 4.769 7.434 11.393 12.966 19.827 16.507l.574 5.222c-1.678-.664-3.533-1.151-5.078-1.859a106.144 106.144 0 01-12.629-6.948c-2.871-1.814-4.99-3.009-6.315-3.585a36.271 36.271 0 00-14.97-3.053c-.795-1.815-1.501-3.452-2.119-5.443-2.297-7.701-5.918-14.56-12.1-19.826-6.712-5.753-16.78-9.028-25.214-12.834-3.533-1.593-6.139-2.965-7.817-4.116-13.91-9.603-19.606-29.96-15.058-45.803 1.016-3.142 2.562-6.019 4.637-8.674 1.413-1.947 3.047-3.54 4.902-4.78l.397-.265 1.06-.796c2.384-1.107 5.078-1.948 7.993-2.523z" fill="#FF5910"/><path d="M103.911 15.463l-1.06.796c-.088-.486.265-.752 1.06-.796zm-1.502 1.062c-1.854 1.24-3.488 2.832-4.901 4.78.839-1.46 1.943-2.744 3.268-3.85.574-.487 1.104-.797 1.633-.93z" fill="#FFB900"/><path d="M52.511 61.133c.133.045.133.178 0 .399a.453.453 0 01-.265.221c-3.974 2.213-9.626 7.568-9.317 12.568-1.237 8.276 6.756 16.33 12.232 21.375 1.634 1.505 2.782 2.744 3.488 3.718 6.27 8.983 7.86 23.454 2.164 33.058-2.473 4.159-6.712 7.567-7.551 12.833-1.104 7.081 11.172 4.647 14.616 4.027 2.517-.442 4.284-.619 5.344-.531 8.743.753 9.45 11.152 11.967 18.145 2.075 5.753 4.018 9.382 10.73 10.665 4.063.752 7.33 1.239 9.847 1.416 10.069.708 20.358.752 29.94 3.54 2.031.576 4.063 1.594 6.138 2.965 2.561 1.726 4.504 4.028 5.785 6.904.53 2.434.795 4.116.839 5.089.221 4.47-.309 8.674-1.634 12.613-1.237 3.673-3.444 6.992-6.624 9.913-1.236 1.283-2.649 2.257-4.283 2.921a.492.492 0 01-.618-.266.518.518 0 01.044-.442c8.876-15.047 1.192-28.589-14.043-33.767-1.413-.486-4.018-1.106-7.816-1.814-5.034-.974-10.068-2.08-15.058-3.231-5.961-1.371-12.055-3.407-16.339-8.01-1.457-1.548-2.914-4.115-4.283-5.62-6.27-6.815-14.97-6.682-23.448-5.532-4.593.62-8.788 1.018-12.585 1.151-7.154.266-12.011-2.921-14.484-9.603-1.06-2.788.927-6.329 2.693-8.541 3.047-3.762 6.05-7.479 9.097-11.241 3.268-4.027 6.182-8.275 7.154-13.276 1.28-6.771-1.016-13.144-3.754-19.251-5.034-11.108-13.115-26.464-1.192-36.775 3.003-2.655 6.8-4.514 11.216-5.62zm180.829 62.576c-.132 2.39.089 4.912.751 7.656 2.826 12.922 14.44 22.835 27.864 20.224 8.611-1.681 15.235-7.966 18.326-16.197a.3.3 0 01.353-.177c12.276 3.717 24.067 10.4 34.753 17.525.133.088.221.31.133.442-19.386 36.599-69.859 44.564-100.815 18.233-9.229-7.833-15.543-17.613-18.944-29.296l-1.633-8.497-.574-5.222c-2.429-42.971 35.68-72.4 76.526-65.098 14.087 2.522 27.776 9.691 37.182 20.622 11.26 13.011 16.118 28.5 14.661 46.379 0 .088-.089.133-.133.133-.132-.045-.265-.089-.397-.177-12.806-8.851-26.451-15.489-41.73-17.791-.133 0-.221-.088-.265-.221-6.624-14.338-24.022-19.959-36.475-9.028-5.829 5.089-9.009 11.905-9.583 20.49zm130.841 37.306l.089 11.241.044 10.798c0 .177-.133.31-.309.31h-36.519c-.133 0-.265-.133-.265-.266V65.913c0-.31.176-.487.485-.487l32.987-.044c.353 0 .706.133.927.398a8359.388 8359.388 0 0132.324 35.094c4.24 4.602 8.258 9.382 12.144 14.338.044.089.177.089.265.044.044-.044.044-.088.088-.088.044-.221.044-.443.044-.708-.485-4.78-.75-9.559-.794-14.383l-.133-34.43c0-.177.088-.22.221-.22h36.696c.265 0 .397.132.397.397v53.46c0 .265-.132.486-.397.575-11.04 4.425-21.329 10.267-30.911 17.569-6.359 4.824-12.983 10.4-19.607 15.843-.088.088-.221.044-.309-.044-9.671-10.09-18.9-20.579-27.732-31.377-.044-.044-.132-.088-.176 0-.044.045-.044.089-.044.133.574 13.011.795 26.066.485 39.032zm131.549-52.441c-13.115.797-25.789 2.965-38.551 6.24-.22.044-.353-.044-.353-.266v-48.9c0-.133.088-.222.221-.222h38.639c.221 0 .353.177.353.354v42.484c.044.177-.088.31-.309.31z" fill="#0032B3"/><path d="M532.912 112.468c-.707-.309-1.369-.486-1.899-.486-5.608 0-11.216.044-16.825.221a.332.332 0 00-.309.221c-.176.354-.265.708-.176 1.107-15.191-.266-29.984 1.15-44.38 4.292-16.603 3.585-32.456 9.957-46.366 20.047-6.536 4.78-12.453 9.692-18.679 15.268-6.183 5.576-11.791 10.665-18.459 14.87-6.535 4.115-13.733 5.531-21.549 4.292l-.088-11.24c2.075.531 4.239 1.239 6.094 1.504 6.667.974 12.938-.442 18.767-4.337 7.639-5.089 14.131-11.019 21.152-16.639 13.247-10.621 27.952-18.366 44.203-23.234 18.9-5.709 38.859-7.877 58.775-7.744.397 0 .574-.177.574-.576.044-3.673.044-7.434 0-11.329-.044-2.655 1.899-4.47 4.151-2.124 3.4 3.496 8.257 8.364 14.616 14.56.265.177.398.619.398 1.327z" fill="#FF5910"/><path d="M532.912 112.469c-5.122 5.266-10.333 10.444-15.588 15.577-1.369 1.328-3.444-.133-3.444-1.77 0-4.337-.044-8.585-.177-12.79-.044-.398 0-.752.177-1.106a.509.509 0 01.309-.221 709.614 709.614 0 0116.825-.221c.529.044 1.148.221 1.898.531z" fill="#FFD300"/><path d="M327.132 138.446v16.108c-.044-.442-.088-.575-.133-.309.089-.443.089-.753.089-1.018 0-.31-.133-.443-.398-.399-.176.045-.309 0-.397-.132-.663-.664-1.192-1.151-1.59-1.461a255.423 255.423 0 00-11.172-7.833c-12.718-8.541-26.848-16.949-42.216-18.852-9.847-1.239-20.887.752-30.822 3.894-1.502.31-4.593.841-5.741 1.77a.406.406 0 00-.177.354c0 .399-.132.664-.397.886-.662-2.744-.883-5.267-.751-7.656 8.435-4.028 16.913-6.594 25.524-7.745 25.303-3.319 48.177 7.966 68.181 22.393z" fill="#FF5910"/><path d="M496.349 151.766h36.21c.221 0 .442.177.442.443v30.934c0 .088-.089.177-.177.177h-75.776c-.089 0-.177-.089-.177-.177v-57.885c0-.177.088-.31.265-.354 12.585-4.027 25.435-6.461 38.639-7.391.221 0 .353.089.353.31v33.633c-.088.178.044.31.221.31z" fill="#0032B3"/><path d="M155.179 117.956a36.272 36.272 0 0114.97 3.054c1.325.575 3.4 1.77 6.315 3.584 4.062 2.567 8.301 4.868 12.629 6.948 1.546.708 3.4 1.239 5.078 1.859l1.634 8.497a65.213 65.213 0 01-17.089-1.195c-.663-.531-1.458-.841-2.429-1.018-.132 0-.221-.089-.265-.221l-.265-.576c-.044-.133-.177-.265-.265-.354a5.479 5.479 0 00-2.119-.841c-1.193-.221-2.429-.796-3.401-1.549-2.782-1.991-5.608-3.761-7.639-6.461-2.87-3.85-5.299-6.682-6.801-11.152-.044-.133-.132-.221-.264-.31-.442-.177-.53-.221-.265-.221-.045-.177 0-.221.176-.044z" fill="#FFB900"/><path d="M155.002 118.089c-.265-.045-.177.044.265.221.132.044.221.133.265.31 1.501 4.469 3.93 7.302 6.8 11.152 2.032 2.744 4.902 4.469 7.64 6.461.971.708 2.208 1.328 3.4 1.549.751.133 1.457.442 2.12.841.132.088.22.177.265.354l.264.575c.045.133.133.177.265.221.928.133 1.767.487 2.429 1.018-5.652-1.062-10.951-3.053-15.853-5.974-1.81-1.062-3.135-1.726-4.062-1.992-9.848-2.788-17.708 6.771-19.607 15.224-1.192 5.222-1.015 10.975 1.104 15.887 5.123 11.905 18.503 24.473 14.573 38.546-1.767 6.328-6.359 11.86-11.438 15.887-1.015.797-2.119 1.195-3.311 1.726 3.179-2.921 5.387-6.24 6.623-9.913 1.325-3.939 1.855-8.143 1.634-12.613-.044-.973-.309-2.655-.839-5.089-.971-3.452-2.914-6.505-5.829-9.205-3.091-2.876-7.021-6.063-9.759-8.806-5.299-5.311-10.068-11.418-12.541-18.454-1.104-3.098-1.678-5.975-1.722-8.63-.177-8.939 4.99-17.082 12.364-21.95 7.552-4.957 15.853-7.435 24.95-7.346zm171.999 35.846a5.487 5.487 0 01-1.369-.797 6.933 6.933 0 00-1.28-.841c-1.546-.796-3.621-2.08-6.227-3.85a175.768 175.768 0 00-19.43-11.506c-5.784-2.921-12.496-5.753-18.679-7.302-13.556-3.407-26.583-1.726-39.875 1.903-.132.044-.265-.044-.309-.177v-.133l.662-3.097c9.936-3.143 20.976-5.134 30.823-3.895 15.367 1.903 29.498 10.311 42.216 18.852a255.423 255.423 0 0111.172 7.833c.441.31.971.797 1.59 1.461.088.133.22.177.397.133.265-.045.397.088.397.398.045.265 0 .575-.088 1.018z" fill="#FFD300"/><path d="M438.722 132.648c1.502-.796 2.738-1.46 3.754-1.858.22-.089.353-.045.353.221v51.91c0 .266-.133.399-.398.399h-22.785c-.309 0-.574-.133-.795-.354l-18.679-20.269c-.089-.133-.089-.221 0-.31 5.74-5.443 11.613-10.621 17.619-15.666 6.226-5.177 13.159-9.868 20.931-14.073z" fill="#0032B3"/><path d="M31.439 40.638c-.141-.153-.718-2.484-.273-2.943.562-.576 1.125 0 .835-1.348-.32-1.499.55-3.118-.27-3.225-.287-.038-.917.095-.602-1.124.315-1.219 1.151-1.968.734-2.458-.416-.49-.498-1.568.108-2.037.605-.47 1.06-1.067 1.114-2.064.054-.997.808-2.426 1.838-3.008 1.03-.582 1.802-.574 1.731.005-.138 1.142 1.658 1.188 1.99 1.427.406.291.687.58-.444.438-1.678-.21-1.357.254-1.52 1.352-.164 1.097-1.166 1.123-1.078 1.74.07.51.275.504.453 1.66.177 1.155-.068.95-.366 1.487-.298.536-.107 1.352-.344 2.383-.236 1.032-.92.997-.86 2.167.058 1.17-.409 2.565-1.02 3.453-.568.827-.85 3.386-2.024 2.1l-.002-.005zm15.366-9.378a.317.317 0 01.06-.398c.128-.112.236-.343.07-.81-.29-.825-1.156-.786-.882-1.223.274-.437.57-.418.42-1.125-.15-.707.016-1.64.411-2.286.395-.646.934-1.337 1.46-1.688.525-.35.847.488 1.643.21.797-.28 1.074-1.638.774-1.794-.3-.156-.618-.156-1.258-.29-.338-.07-1.268-.702-.529-1.311.43-.357 1.71-.872 1.6-.27-.112.601-.02.4.206.601.319.278-.34.437-.012.635s.41.81.538.042c.111-.68.268-.738.452-.181.297.894-.462 1.072.395.983.857-.09 2.769-.09 2.132.468-.813.71-1.03.66-1.402 1.322-.255.454-.067.724.188.883.236.148.538.19.828.156.2-.022.876.014 1.023.145.318.278-.398.852-1.035.843-.877-.008-.803.031-.682.569.12.537.465 1.637-.026 2.06-.49.423-.634.913-1.516 1.086-.883.173-1.841.451-2.224 1.462-.14.368-1.21.938-2.086.476a1.51 1.51 0 01-.558-.57l.01.005zm181.009 171.728c0 .936-.162 1.801-.485 2.587a6.149 6.149 0 01-1.345 2.042 6.163 6.163 0 01-2.031 1.345 6.596 6.596 0 01-2.544.488 6.523 6.523 0 01-2.544-.488 6.112 6.112 0 01-2.031-1.345 6.136 6.136 0 01-1.346-2.042 6.753 6.753 0 01-.488-2.587c0-.937.161-1.802.488-2.588a6.162 6.162 0 011.346-2.041 6.197 6.197 0 012.031-1.346 6.596 6.596 0 012.544-.488c.915 0 1.762.162 2.544.488.782.323 1.46.772 2.031 1.346a6.134 6.134 0 011.345 2.041c.323.79.485 1.651.485 2.588zm-1.357 0c0-.707-.114-1.382-.348-2.024a5.17 5.17 0 00-.997-1.694 4.807 4.807 0 00-1.59-1.162c-.624-.291-1.331-.435-2.117-.435s-1.493.144-2.121.435a4.814 4.814 0 00-1.589 1.162 5.121 5.121 0 00-.998 1.694 5.887 5.887 0 00-.348 2.024c0 .707.115 1.381.348 2.023a5.18 5.18 0 00.998 1.694 4.76 4.76 0 001.589 1.163c.625.287 1.332.434 2.121.434.79 0 1.493-.144 2.117-.434a4.852 4.852 0 001.59-1.163 5.092 5.092 0 00.997-1.694 5.858 5.858 0 00.348-2.023zm4.865-6.983h1.145v6.358h.036c.186-.276.405-.516.66-.71.255-.198.52-.359.8-.488.277-.126.564-.219.861-.276a4.567 4.567 0 012.588.236c.527.216.979.514 1.363.894.38.38.682.832.894 1.356.215.521.323 1.087.323 1.701 0 .614-.108 1.181-.323 1.701-.216.52-.514.972-.894 1.356-.38.384-.836.682-1.363.894a4.581 4.581 0 01-2.588.237 3.964 3.964 0 01-.861-.277 4.008 4.008 0 01-.8-.488 3.022 3.022 0 01-.66-.71h-.036v1.356h-1.145v-13.14zm7.417 9.067c0-.452-.072-.875-.215-1.266a3.056 3.056 0 00-.617-1.026 2.894 2.894 0 00-.965-.686 3.101 3.101 0 00-1.278-.251c-.477 0-.908.083-1.302.251a3.29 3.29 0 00-1.027.686c-.29.29-.516.631-.678 1.026a3.312 3.312 0 00-.244 1.266c0 .453.083.876.244 1.267.162.395.388.736.678 1.026.291.291.632.521 1.027.686.394.168.828.251 1.302.251.474 0 .901-.083 1.278-.251.376-.169.696-.395.965-.686.265-.29.47-.631.617-1.026a3.68 3.68 0 00.215-1.267zm8.927-2.134a2.105 2.105 0 00-.696-.8c-.291-.198-.643-.295-1.059-.295-.197 0-.398.026-.599.069a1.771 1.771 0 00-.546.219 1.175 1.175 0 00-.391.373c-.097.15-.147.337-.147.556 0 .384.133.66.399.832.265.173.663.323 1.198.452l1.163.277c.567.129 1.04.384 1.413.771.377.388.564.872.564 1.45 0 .441-.09.818-.269 1.137-.18.32-.417.578-.711.783a2.965 2.965 0 01-1.015.441c-.381.09-.772.14-1.163.14a4.28 4.28 0 01-1.744-.355c-.538-.237-.997-.646-1.381-1.224l.99-.678c.233.37.524.667.876.886.351.219.771.33 1.259.33.233 0 .463-.025.696-.079.233-.053.438-.132.617-.244.18-.111.323-.251.435-.427.111-.172.165-.376.165-.606 0-.405-.151-.696-.453-.876a3.983 3.983 0 00-1.094-.427l-1.112-.262a8.254 8.254 0 01-.564-.172 2.55 2.55 0 01-.696-.366 2.197 2.197 0 01-.581-.635c-.162-.262-.244-.581-.244-.965 0-.416.082-.782.251-1.095.169-.312.395-.567.678-.764a3.1 3.1 0 01.966-.441 4.23 4.23 0 011.112-.147c.567 0 1.094.111 1.579.33.488.219.861.595 1.13 1.13l-1.026.678v.004zm5.318 2.447c.036.405.133.789.295 1.144a2.99 2.99 0 001.564 1.547c.348.151.725.226 1.13.226.614 0 1.145-.14 1.59-.427.445-.283.786-.61 1.015-.983l.887.728c-.485.614-1.023 1.055-1.608 1.321a4.512 4.512 0 01-1.884.398 4.296 4.296 0 01-1.675-.323 3.94 3.94 0 01-1.328-.893 4.173 4.173 0 01-.876-1.357 4.409 4.409 0 01-.323-1.701c0-.613.105-1.18.313-1.7.208-.521.498-.973.868-1.357s.804-.682 1.303-.893a4.015 4.015 0 011.614-.323c.614 0 1.163.111 1.651.33.484.219.893.513 1.224.875.33.366.581.793.757 1.285.172.492.262 1.016.262 1.572v.52h-6.775l-.004.011zm5.523-.937c0-.775-.234-1.403-.696-1.884-.463-.48-1.113-.721-1.945-.721-.37 0-.729.072-1.077.219a2.957 2.957 0 00-1.536 1.414 2.182 2.182 0 00-.233.972h5.49-.003zm4.876-.904c0-.358-.008-.724-.025-1.094-.018-.37-.033-.85-.044-1.443h1.131v1.511h.036a2.61 2.61 0 01.893-1.18c.215-.162.463-.291.746-.392a3.01 3.01 0 01.966-.147c.323 0 .606.036.85.104l-.226 1.131c-.151-.058-.369-.086-.66-.086-.442 0-.815.082-1.13.251-.316.168-.575.38-.783.642a2.666 2.666 0 00-.459.843 2.844 2.844 0 00-.147.869v4.586h-1.145v-5.595h-.003zm10.644 5.594h-1.284l-3.302-8.127h1.357l2.605 6.843h.036l2.587-6.843h1.302l-3.301 8.127zm11.432-4.984v-.208c0-1.399-.696-2.103-2.085-2.103-.951 0-1.776.32-2.483.955l-.696-.818c.764-.786 1.909-1.181 3.437-1.181.395 0 .772.058 1.138.173.366.114.682.294.947.531.266.236.481.534.642.893.162.359.244.786.244 1.285v3.631c0 .312.015.639.044.98.028.341.061.624.096.843h-1.112a6.402 6.402 0 01-.079-.642 8.682 8.682 0 01-.025-.679h-.036c-.337.546-.732.937-1.188 1.174-.459.237-1.015.355-1.675.355a3.72 3.72 0 01-1.041-.147 2.57 2.57 0 01-.893-.452 2.313 2.313 0 01-.625-.747c-.158-.294-.233-.638-.233-1.033 0-.66.172-1.177.513-1.554a3.156 3.156 0 011.285-.843 6.294 6.294 0 011.65-.348 20.11 20.11 0 011.608-.068h.574l-.007.003zm-.592.937c-.291 0-.65.014-1.084.043-.434.029-.85.1-1.249.208-.398.111-.742.28-1.026.513-.283.233-.427.549-.427.955 0 .265.054.495.165.685.111.19.259.348.442.47.186.122.391.208.617.262.226.054.455.079.685.079.416 0 .779-.068 1.084-.208a2.28 2.28 0 00.771-.563c.208-.237.363-.517.46-.833.096-.319.147-.657.147-1.015v-.593h-.592l.007-.003zm10.023-3.04h-2.343v4.794c0 .302.028.546.086.74.057.19.14.337.244.441a.824.824 0 00.373.215c.144.04.305.061.477.061.198 0 .399-.028.607-.086.208-.057.398-.133.574-.226l.05 1.059c-.427.197-.944.294-1.547.294a2.94 2.94 0 01-.685-.086 1.602 1.602 0 01-.649-.33 1.81 1.81 0 01-.488-.661c-.13-.276-.191-.642-.191-1.094v-5.124h-1.718v-1.041h1.718v-2.293h1.145v2.293h2.343v1.041l.004.003zm11.202 3.022a4.39 4.39 0 01-.323 1.701c-.215.52-.513.972-.893 1.356-.38.384-.836.682-1.364.894a4.573 4.573 0 01-1.743.323 4.502 4.502 0 01-1.73-.323 4.127 4.127 0 01-1.364-.894 3.984 3.984 0 01-.893-1.356 4.409 4.409 0 01-.323-1.701c0-.614.108-1.181.323-1.701.215-.52.513-.972.893-1.356a3.992 3.992 0 011.364-.894 4.531 4.531 0 011.73-.323c.627 0 1.22.108 1.743.323.528.216.984.513 1.364.894.38.38.682.832.893 1.356a4.39 4.39 0 01.323 1.701zm-1.252 0c0-.452-.072-.876-.219-1.267a3.14 3.14 0 00-.617-1.026 2.867 2.867 0 00-.965-.685 3.082 3.082 0 00-1.278-.252c-.477 0-.9.083-1.277.252a2.813 2.813 0 00-.955.685 3.102 3.102 0 00-.606 1.026 3.66 3.66 0 00-.215 1.267c0 .452.071.876.215 1.267.144.394.348.735.606 1.026.262.291.578.52.955.685.377.169.8.251 1.277.251.478 0 .901-.082 1.278-.251.377-.168.696-.394.965-.685a3.11 3.11 0 00.617-1.026c.144-.395.219-.815.219-1.267zm4.882-1.529c0-.358-.007-.724-.025-1.094-.018-.37-.032-.85-.043-1.443h1.131v1.511h.035a2.65 2.65 0 01.898-1.18c.215-.162.462-.291.746-.392a3 3 0 01.965-.147c.323 0 .607.036.851.104l-.226 1.131c-.151-.058-.37-.086-.661-.086-.441 0-.818.082-1.13.251-.312.168-.574.38-.782.642a2.669 2.669 0 00-.46.843 2.875 2.875 0 00-.147.869v4.586h-1.144v-5.595h-.008zm8.735-5.662a.765.765 0 01-.262.599.83.83 0 01-.574.233.855.855 0 01-.574-.233.759.759 0 01-.262-.599c0-.244.086-.442.262-.599a.837.837 0 01.574-.234.85.85 0 01.574.234.773.773 0 01.262.599zm-.262 11.256h-1.144v-8.127h1.144v8.127zm12.399-4.065a4.39 4.39 0 01-.323 1.701c-.215.52-.513.972-.893 1.356-.38.384-.836.682-1.364.894a4.574 4.574 0 01-1.744.323 4.5 4.5 0 01-1.729-.323 4.127 4.127 0 01-1.364-.894 3.984 3.984 0 01-.893-1.356 4.409 4.409 0 01-.323-1.701c0-.614.108-1.181.323-1.701.215-.52.513-.972.893-1.356a3.992 3.992 0 011.364-.894 4.53 4.53 0 011.729-.323c.628 0 1.22.108 1.744.323.528.216.984.513 1.364.894.38.38.682.832.893 1.356a4.39 4.39 0 01.323 1.701zm-1.252 0c0-.452-.072-.876-.219-1.267a3.158 3.158 0 00-.617-1.026 2.877 2.877 0 00-.965-.685 3.082 3.082 0 00-1.278-.252c-.477 0-.9.083-1.277.252a2.813 2.813 0 00-.955.685 3.085 3.085 0 00-.606 1.026 3.66 3.66 0 00-.215 1.267c0 .452.071.876.215 1.267.143.394.348.735.606 1.026.262.291.578.52.955.685.377.169.8.251 1.277.251.478 0 .901-.082 1.278-.251.376-.168.696-.394.965-.685.265-.291.47-.632.617-1.026.144-.395.219-.815.219-1.267zm20.325 2.189h.036v-10.42h1.252v12.297h-1.564l-7.331-10.525h-.036v10.525h-1.253v-12.297h1.565l7.331 10.42zm10.84-3.108v-.208c0-1.399-.696-2.103-2.085-2.103-.95 0-1.776.32-2.483.955l-.696-.818c.765-.786 1.909-1.181 3.438-1.181.395 0 .771.058 1.137.173.366.114.682.294.948.531.265.236.48.534.642.893.161.359.244.786.244 1.285v3.631c0 .312.014.639.043.98.029.341.061.624.097.843h-1.112a6.402 6.402 0 01-.079-.642 8.689 8.689 0 01-.026-.679h-.035c-.338.546-.732.937-1.192 1.174-.459.237-1.015.355-1.675.355a3.72 3.72 0 01-1.041-.147 2.584 2.584 0 01-.894-.452 2.245 2.245 0 01-.624-.747c-.158-.294-.233-.638-.233-1.033 0-.66.172-1.177.513-1.554a3.149 3.149 0 011.285-.843 6.294 6.294 0 011.65-.348 20.11 20.11 0 011.608-.068h.574l-.004.003zm-.592.937c-.29 0-.653.014-1.087.043-.434.029-.85.1-1.252.208-.399.111-.743.28-1.027.513-.283.233-.427.549-.427.955 0 .265.054.495.165.685.112.19.259.348.442.47.186.122.391.208.617.262.226.054.456.079.685.079.417 0 .779-.068 1.088-.208a2.28 2.28 0 00.771-.563c.208-.237.363-.517.459-.833a3.47 3.47 0 00.148-1.015v-.593h-.593l.011-.003zm11.742-2.171a2.46 2.46 0 00-.825-.765 2.346 2.346 0 00-1.206-.312 3.037 3.037 0 00-1.277.226 2.814 2.814 0 00-.966.678c-.265.291-.47.636-.606 1.034-.14.398-.208.832-.208 1.295 0 .463.068.894.208 1.296.14.398.341.742.606 1.033.266.291.589.517.966.678.376.162.8.237 1.277.226.452 0 .854-.104 1.206-.312.351-.208.628-.463.825-.764l.936.71c-.405.474-.861.826-1.37 1.052a4.099 4.099 0 01-1.597.355c-.66.011-1.256-.09-1.791-.305a4.008 4.008 0 01-1.363-.894 3.833 3.833 0 01-.861-1.363 4.834 4.834 0 01-.295-1.712c0-.613.097-1.184.295-1.711.197-.528.484-.984.861-1.364.377-.38.832-.682 1.363-.893.531-.216 1.131-.316 1.791-.305.556.01 1.087.129 1.597.355.509.226.965.577 1.37 1.051l-.936.711zm5.539-5.038a.768.768 0 01-.262.599.831.831 0 01-.575.233.855.855 0 01-.574-.233.762.762 0 01-.262-.599c0-.244.087-.442.262-.599a.837.837 0 01.574-.234c.209 0 .399.079.575.234a.776.776 0 01.262.599zm-.262 11.256h-1.145v-8.127h1.145v8.127zm12.404-4.065c0 .614-.107 1.181-.322 1.701-.216.52-.514.972-.894 1.356-.38.384-.836.682-1.363.894a4.581 4.581 0 01-1.744.323 4.506 4.506 0 01-1.73-.323 4.122 4.122 0 01-1.363-.894 3.987 3.987 0 01-.894-1.356 4.409 4.409 0 01-.323-1.701c0-.614.108-1.181.323-1.701a4.16 4.16 0 01.894-1.356c.38-.384.836-.682 1.363-.894a4.535 4.535 0 011.73-.323c.628 0 1.22.108 1.744.323.527.216.983.513 1.363.894.38.38.682.832.894 1.356.215.52.322 1.087.322 1.701zm-1.252 0c0-.452-.072-.876-.219-1.267a3.14 3.14 0 00-.617-1.026 2.857 2.857 0 00-.965-.685 3.082 3.082 0 00-1.278-.252c-.477 0-.9.083-1.277.252a2.799 2.799 0 00-.954.685 3.104 3.104 0 00-.607 1.026 3.684 3.684 0 00-.215 1.267c0 .452.072.876.215 1.267.144.394.348.735.607 1.026.261.291.577.52.954.685.377.169.8.251 1.277.251.478 0 .901-.082 1.278-.251.377-.168.696-.394.965-.685a3.11 3.11 0 00.617-1.026c.144-.395.219-.815.219-1.267zm5.856-4.066c.022.219.036.438.043.653.008.215.007.431.007.65h.036a2.61 2.61 0 01.488-.607c.198-.186.417-.344.661-.477.244-.133.502-.237.771-.312.273-.076.542-.112.807-.112 1.041 0 1.813.277 2.311.826.499.549.747 1.335.747 2.354v5.16h-1.145v-4.5c0-.904-.158-1.597-.47-2.074-.312-.481-.89-.721-1.737-.721-.057 0-.219.025-.488.068-.265.046-.545.172-.843.384-.294.208-.56.52-.789.936-.234.417-.349.998-.349 1.737v4.17h-1.144v-6.341c0-.219-.007-.499-.025-.832a32.867 32.867 0 00-.061-.955h1.18v-.007zm15.194 3.147v-.208c0-1.399-.696-2.103-2.085-2.103-.95 0-1.776.32-2.483.955l-.696-.818c.764-.786 1.909-1.181 3.438-1.181.394 0 .771.058 1.137.173.366.114.682.294.948.531.265.236.48.534.642.893.161.359.244.786.244 1.285v3.631c0 .312.014.639.043.98.029.341.061.624.097.843h-1.113a6.707 6.707 0 01-.079-.642 9.2 9.2 0 01-.025-.679h-.035c-.338.546-.733.937-1.192 1.174-.459.237-1.015.355-1.676.355-.358 0-.706-.05-1.04-.147a2.584 2.584 0 01-.894-.452 2.233 2.233 0 01-.624-.747c-.158-.294-.233-.638-.233-1.033 0-.66.172-1.177.513-1.554a3.149 3.149 0 011.285-.843 6.294 6.294 0 011.65-.348 20.11 20.11 0 011.608-.068h.574l-.004.003zm-.592.937c-.29 0-.653.014-1.087.043-.434.029-.851.1-1.252.208-.399.111-.743.28-1.027.513-.283.233-.427.549-.427.955 0 .265.054.495.165.685.112.19.259.348.442.47.186.122.391.208.617.262.226.054.456.079.685.079.417 0 .779-.068 1.088-.208a2.28 2.28 0 00.771-.563c.208-.237.362-.517.459-.833a3.47 3.47 0 00.147-1.015v-.593h-.592l.011-.003zm7.226 4.047h-1.145v-13.129h1.145v13.129zm18.55 0h-1.145v-1.356h-.036a2.946 2.946 0 01-.66.71c-.255.198-.52.359-.8.488-.277.13-.564.219-.861.277a4.468 4.468 0 01-.844.086c-.638 0-1.22-.108-1.744-.323a4.077 4.077 0 01-1.363-.894 4.031 4.031 0 01-.894-1.356 4.409 4.409 0 01-.323-1.701c0-.613.108-1.18.323-1.701.216-.52.513-.972.894-1.356a3.97 3.97 0 011.363-.893 4.562 4.562 0 011.744-.323c.266 0 .546.028.844.086.294.057.581.15.861.276.276.129.545.291.8.488s.474.434.66.711h.036v-6.359h1.145v13.14zm-7.417-4.065c0 .452.072.875.219 1.266.143.395.351.736.617 1.027.265.29.588.52.965.685.377.169.8.251 1.277.251.478 0 .894-.082 1.296-.251a3.22 3.22 0 001.033-.685c.291-.291.517-.632.678-1.027a3.29 3.29 0 00.244-1.266c0-.452-.082-.876-.244-1.267a3.071 3.071 0 00-.678-1.026 3.187 3.187 0 00-1.033-.685 3.291 3.291 0 00-1.296-.252c-.462 0-.9.083-1.277.252a2.955 2.955 0 00-.965.685 3.1 3.1 0 00-.617 1.026 3.662 3.662 0 00-.219 1.267zm12.14.312c.036.405.133.789.294 1.144.162.359.377.668.642.93.266.262.575.466.923.617.348.151.724.226 1.13.226.614 0 1.145-.14 1.59-.427.445-.283.785-.61 1.015-.983l.886.728c-.488.614-1.022 1.055-1.607 1.321a4.512 4.512 0 01-1.884.398 4.297 4.297 0 01-1.676-.323 3.925 3.925 0 01-1.327-.893 4.173 4.173 0 01-.876-1.357 4.409 4.409 0 01-.323-1.701c0-.613.104-1.18.312-1.7.208-.521.499-.973.869-1.357a3.884 3.884 0 011.302-.893 4.02 4.02 0 011.615-.323 3.99 3.99 0 011.651.33c.488.219.893.513 1.223.875.33.363.581.793.757 1.285.172.492.262 1.016.262 1.572v.52h-6.774l-.004.011zm5.522-.937c0-.775-.233-1.403-.696-1.884-.463-.48-1.112-.721-1.945-.721-.369 0-.728.072-1.076.219a3.01 3.01 0 00-.912.581c-.262.244-.47.521-.624.833a2.182 2.182 0 00-.233.972h5.486zm12.68 3.542h5.73v1.145h-6.983v-12.297h1.253v11.152zm16.658-2.917c0 .614-.108 1.181-.323 1.701a4.001 4.001 0 01-2.257 2.25 4.578 4.578 0 01-1.744.323 4.5 4.5 0 01-1.729-.323 4.127 4.127 0 01-1.364-.894 3.987 3.987 0 01-.894-1.356 4.408 4.408 0 01-.322-1.701c0-.614.107-1.181.322-1.701.216-.52.514-.972.894-1.356.38-.384.836-.682 1.364-.894a4.526 4.526 0 011.729-.323c.628 0 1.22.108 1.744.323.527.216.983.513 1.364.894.38.38.681.832.893 1.356.215.52.323 1.087.323 1.701zm-1.252 0c0-.452-.072-.876-.219-1.267a3.158 3.158 0 00-.617-1.026 2.871 2.871 0 00-.966-.685 3.077 3.077 0 00-1.277-.252c-.477 0-.901.083-1.278.252a2.809 2.809 0 00-.954.685 3.085 3.085 0 00-.606 1.026 3.661 3.661 0 00-.216 1.267c0 .452.072.876.216 1.267.143.394.348.735.606 1.026.262.291.578.52.954.685.377.169.801.251 1.278.251s.901-.082 1.277-.251c.377-.168.696-.394.966-.685.265-.291.47-.632.617-1.026.143-.395.219-.815.219-1.267zm5.387 5.698c.337.452.771.814 1.309 1.087a3.92 3.92 0 001.798.409c.578 0 1.069-.082 1.475-.251.405-.169.732-.398.98-.685.247-.291.427-.628.538-1.016.111-.387.165-.804.165-1.242v-1.46h-.036c-.37.556-.822.951-1.356 1.181a4.17 4.17 0 01-1.687.348 4.353 4.353 0 01-1.658-.313 4.034 4.034 0 01-2.58-3.821c0-.592.104-1.141.313-1.651.208-.509.495-.954.861-1.338.366-.384.8-.682 1.302-.894a4.173 4.173 0 011.658-.323c.244 0 .502.026.772.069a3.7 3.7 0 012.371 1.492h.036v-1.356h1.145v8.059c0 .442-.054.908-.165 1.407a3.465 3.465 0 01-.642 1.371c-.32.416-.761.764-1.328 1.04-.567.277-1.31.417-2.225.417-.811 0-1.536-.133-2.171-.399-.638-.265-1.216-.678-1.736-1.234l.85-.904.011.007zm.208-5.803a3.145 3.145 0 001.83 2.875c.366.168.761.251 1.191.251.431 0 .815-.075 1.191-.226a3.13 3.13 0 00.998-.635c.287-.273.513-.6.667-.983.158-.381.23-.811.219-1.285a3.42 3.42 0 00-.208-1.206 2.914 2.914 0 00-.606-.99 2.943 2.943 0 00-.973-.678 3.15 3.15 0 00-1.284-.251c-.427 0-.826.082-1.192.251a3.104 3.104 0 00-.954.678 3.102 3.102 0 00-.642.99 3.141 3.141 0 00-.234 1.206l-.003.003zm11.999-5.625h-1.026l1.736-2.501h1.579l-2.293 2.501h.004zm.606 9.796h-1.144v-8.128h1.144v8.128zm8.496-6.201a2.096 2.096 0 00-.696-.8c-.291-.198-.642-.295-1.059-.295-.197 0-.398.026-.599.069a1.789 1.789 0 00-.549.219c-.165.1-.294.222-.391.373-.097.15-.147.337-.147.556 0 .384.133.66.398.832.266.173.668.323 1.199.452l1.162.277c.567.129 1.041.384 1.414.771.377.388.563.872.563 1.45 0 .441-.089.818-.269 1.137-.179.32-.416.578-.71.783a2.962 2.962 0 01-1.016.441c-.38.09-.771.14-1.162.14a4.276 4.276 0 01-1.744-.355c-.538-.237-.998-.646-1.382-1.224l.991-.678c.229.37.524.667.875.886.352.219.772.33 1.26.33.233 0 .463-.025.696-.079.23-.053.438-.132.617-.244.179-.111.323-.251.434-.427.111-.172.165-.376.165-.606 0-.405-.15-.696-.452-.876a3.983 3.983 0 00-1.094-.427l-1.113-.262a8.258 8.258 0 01-.563-.172 2.55 2.55 0 01-.696-.366 2.147 2.147 0 01-.581-.635c-.162-.262-.244-.581-.244-.965 0-.416.082-.782.251-1.095.168-.312.394-.567.678-.764.283-.197.606-.344.965-.441a4.243 4.243 0 011.113-.147c.567 0 1.094.111 1.578.33.488.219.862.595 1.131 1.13l-1.027.678.004.004zm8.719-.887h-2.343v4.794c0 .302.028.546.086.74.057.19.14.337.244.441a.824.824 0 00.373.215c.143.04.305.061.477.061.197 0 .398-.028.606-.086.209-.057.399-.133.575-.226l.05 1.059c-.427.197-.944.294-1.547.294-.219 0-.448-.029-.685-.086a1.612 1.612 0 01-.65-.33 1.834 1.834 0 01-.488-.661c-.129-.276-.19-.642-.19-1.094v-5.124h-1.719v-1.041h1.719v-2.293h1.145v2.293h2.343v1.041l.004.003zm4.653-4.169a.765.765 0 01-.262.599.83.83 0 01-.574.233.855.855 0 01-.574-.233.759.759 0 01-.262-.599c0-.244.086-.442.262-.599a.837.837 0 01.574-.234c.208 0 .398.079.574.234a.776.776 0 01.262.599zm-.262 11.256h-1.145v-8.127h1.145v8.127zm10.112-6.218a2.46 2.46 0 00-.825-.765 2.343 2.343 0 00-1.206-.312 3.037 3.037 0 00-1.277.226 2.814 2.814 0 00-.966.678c-.265.291-.47.636-.606 1.034-.14.398-.208.832-.208 1.295 0 .463.068.894.208 1.296.14.398.341.742.606 1.033.266.291.589.517.966.678.376.162.8.237 1.277.226.452 0 .854-.104 1.206-.312.351-.208.628-.463.825-.764l.937.71c-.406.474-.862.826-1.371 1.052a4.099 4.099 0 01-1.597.355c-.66.011-1.256-.09-1.791-.305a4.008 4.008 0 01-1.363-.894 3.833 3.833 0 01-.861-1.363 4.833 4.833 0 01-.294-1.712c0-.613.096-1.184.294-1.711.197-.528.484-.984.861-1.364.377-.38.832-.682 1.363-.893.532-.216 1.131-.316 1.791-.305.556.01 1.087.129 1.597.355.509.226.965.577 1.371 1.051l-.937.711zm9.085 1.234v-.208c0-1.399-.696-2.103-2.085-2.103-.951 0-1.776.32-2.483.955l-.696-.818c.764-.786 1.909-1.181 3.437-1.181.395 0 .772.058 1.138.173.366.114.682.294.947.531.266.236.481.534.642.893.162.359.244.786.244 1.285v3.631c0 .312.015.639.043.98.029.341.061.624.097.843h-1.112a6.402 6.402 0 01-.079-.642 8.682 8.682 0 01-.025-.679h-.036c-.337.546-.732.937-1.191 1.174-.46.237-1.016.355-1.676.355a3.72 3.72 0 01-1.041-.147 2.57 2.57 0 01-.893-.452 2.233 2.233 0 01-.624-.747c-.158-.294-.234-.638-.234-1.033 0-.66.173-1.177.513-1.554a3.156 3.156 0 011.285-.843 6.31 6.31 0 011.651-.348 20.087 20.087 0 011.607-.068h.574l-.003.003zm-.592.937c-.291 0-.653.014-1.088.043-.434.029-.85.1-1.252.208a2.76 2.76 0 00-1.026.513c-.284.233-.427.549-.427.955 0 .265.054.495.165.685.111.19.258.348.441.47.187.122.391.208.617.262.227.054.456.079.686.079.416 0 .778-.068 1.087-.208.305-.14.563-.327.772-.563.208-.237.362-.517.459-.833a3.47 3.47 0 00.147-1.015v-.593h-.592l.011-.003z" fill="#3D4696"/></svg>