<?xml version="1.0" encoding="UTF-8"?>
<svg id="Layer_2" data-name="Layer 2" xmlns="http://www.w3.org/2000/svg" viewBox="0 0 236.65 82.19">
  <defs>
    <style>
      .cls-1 {
        fill: #4d4d4d;
      }

      .cls-2 {
        fill: #ffcc02;
      }
    </style>
  </defs>
  <g id="Layer_1-2" data-name="Layer 1">
    <g>
      <path class="cls-2" d="m38.35.05c8.31,0,16.63,0,24.94,0,.39,0,.78.05,1.18.08.32.03.62.11.73.47.12.39-.09.65-.36.85-.62.48-1.28.91-1.88,1.42-2.34,1.98-4.67,3.96-6.98,5.97-4.21,3.64-8.42,7.28-12.25,11.33-3.9,4.11-7.43,8.51-9.94,13.63-1.93,3.96-2.99,8.14-2.9,12.56.09,4.47,1.34,8.63,3.68,12.45,2.37,3.87,5.34,7.26,8.65,10.34,3.93,3.66,8.17,6.93,12.59,9.97.77.53,1.55,1.04,2.32,1.55.31.21.56.44.43.86-.12.39-.43.54-.81.56-.35.02-.7.02-1.06.02-14.6,0-29.19,0-43.79,0-5.61,0-10.96-4.16-12.36-9.58C.17,71.12,0,69.7,0,68.25,0,50.11,0,31.97,0,13.84c0-3.56.95-6.79,3.38-9.46C5.61,1.93,8.4.45,11.73.17c3.78-.32,7.58-.1,11.38-.12,5.08-.03,10.16,0,15.24,0h0Z"/>
      <path class="cls-1" d="m173.86,45.03c1.91,0,3.82-.06,5.72.01,3.14.11,6.15.76,8.99,2.17,3.92,1.95,6.58,5.03,7.91,9.13,1.8,5.56,1.67,11.1-.87,16.46-2,4.22-5.38,6.83-9.78,8.21-2.5.79-5.08,1.15-7.72,1.12-3.05-.04-6.09-.01-9.14,0-.62,0-1.24-.05-1.86-.14-2.01-.29-3.3-1.82-3.4-4.04-.03-.82-.02-1.65-.02-2.48,0-8.55,0-17.1,0-25.65,0-.47,0-.95.1-1.42.42-2.14,1.84-3.36,4.03-3.39,2.01-.02,4.02,0,6.03,0h0Zm-.64,18.18c0,1.01-.01,2.02,0,3.04.04,2.41-.08,4.83.07,7.25.03.49.2.63.67.64,2.05,0,4.1.1,6.15-.1,3.9-.39,6.63-2.69,7.53-6.49.55-2.33.59-4.68.24-7.07-.58-3.87-3.18-6.56-7.05-7.23-2.24-.39-4.5-.33-6.76-.34-.8,0-.85.03-.85.83,0,3.16,0,6.32,0,9.48Z"/>
      <path class="cls-2" d="m82.13,3.83c0,.43-.03.87,0,1.3.19,2.46-.92,4.21-2.77,5.75-3.74,3.12-7.91,5.58-12.05,8.09-3.05,1.85-6.02,3.81-8.65,6.24-3.85,3.56-6.32,7.89-7.22,13.05-.53,3.07-.49,6.16.12,9.23,1.14,5.77,3.81,10.8,7.59,15.26,3.6,4.24,7.99,7.55,12.7,10.45,2.86,1.76,5.8,3.37,8.8,4.88.64.32,1.15.72,1.36,1.44.35,1.21-.33,2.32-1.57,2.56-.97.19-1.87.11-2.77-.33-5.22-2.49-10.29-5.25-15.1-8.47-3.33-2.23-6.56-4.57-9.6-7.17-3.54-3.03-6.88-6.27-9.63-10.06-1.62-2.23-2.9-4.64-3.42-7.37-.65-3.46.01-6.77,1.36-9.98,1.33-3.15,3.26-5.93,5.43-8.55,2.58-3.11,5.5-5.89,8.46-8.64,1.93-1.79,3.94-3.47,5.87-5.26,2.13-1.96,4.34-3.83,6.52-5.74,2.59-2.28,5.26-4.48,7.92-6.68,1.23-1.02,2.47-2.02,3.71-3.02.53-.42,1.09-.74,1.81-.69.69.05,1.09.39,1.11,1.08.03.87,0,1.73,0,2.6,0,0,0,0,0,0Z"/>
      <path class="cls-1" d="m232.17,82.02c-1.72,0-2.9-.86-3.62-2.37-.72-1.53-1.4-3.09-2.06-4.65-.18-.43-.42-.58-.88-.58-5.08.01-10.16.01-15.24,0-.46,0-.71.13-.9.56-.67,1.56-1.35,3.11-2.08,4.64-.79,1.65-2.12,2.51-3.99,2.39-1.79-.11-3.16-.93-3.96-2.57-.59-1.21-.37-2.39.17-3.58,1.22-2.74,2.61-5.39,3.9-8.1,3.11-6.53,6.24-13.05,9.37-19.57,1.05-2.19,2.92-3.33,5.35-3.17,1.99.14,3.59,1.02,4.48,2.87,3.09,6.45,6.28,12.85,9.29,19.33,1.33,2.87,2.75,5.69,4.14,8.53,1.5,3.07-.54,6.28-3.97,6.26Zm-14.24-14.94c1.35,0,2.69,0,4.04,0,.93,0,.98-.05.61-.89-1.42-3.26-2.85-6.5-4.28-9.75-.06-.15-.11-.35-.3-.35-.23,0-.26.24-.33.4-1.47,3.32-2.93,6.65-4.41,9.97-.24.53-.06.64.45.64,1.41-.02,2.82,0,4.23,0Z"/>
      <path class="cls-1" d="m126.2,82.02c-2.22-.03-3.91-.96-4.89-2.99-2.87-5.96-5.72-11.92-8.58-17.89-1.55-3.22-3.09-6.45-4.64-9.67-.41-.85-.71-1.72-.59-2.68.16-1.26.91-2.16,1.92-2.84,2.27-1.53,5.66-1.35,7.1,1.84,3.12,6.93,6.32,13.83,9.48,20.75.04.09.08.19.12.28.06.11.09.26.23.27.18.01.21-.17.27-.3.45-.98.89-1.96,1.33-2.93,2.75-6.04,5.49-12.07,8.24-18.11.9-1.97,2.56-2.96,4.56-2.71,2.15.26,3.91,1.8,4.27,3.75.16.84-.13,1.59-.48,2.32-1.48,3.07-2.97,6.14-4.44,9.21-2.86,5.96-5.72,11.93-8.56,17.9-.67,1.41-1.44,2.7-2.98,3.34-.76.32-1.53.51-2.36.47Z"/>
      <path class="cls-2" d="m82.13,23.82c0,.64,0,1.28,0,1.92,0,1.1-.19,1.35-1.2,1.77-2.62,1.08-4.98,2.54-6.92,4.62-2.75,2.95-4.37,6.44-4.84,10.45-.53,4.56,1.04,8.49,3.81,12.01,2.05,2.6,4.69,4.47,7.74,5.75.96.4,1.43,1.04,1.4,2.09-.03,1.45-.07,2.9.02,4.34.08,1.3-.86,2.01-2.16,1.23-1.75-1.06-3.51-2.11-5.21-3.26-2.78-1.88-5.42-3.94-7.75-6.38-3.46-3.62-5.99-7.74-6.78-12.77-.82-5.27.45-9.89,4.23-13.78,2.3-2.37,5.06-4.12,7.83-5.87,2.33-1.46,4.74-2.81,7.02-4.35.45-.3.88-.62,1.35-.89.73-.42,1.4-.06,1.43.78.03.78,0,1.57,0,2.35,0,0,0,0,0,0Z"/>
      <path class="cls-1" d="m157.55,63.51c0,4.65,0,9.29,0,13.94,0,2.75-1.79,4.54-4.54,4.57-3.21.04-4.8-1.58-4.95-5.02-.02-.39-.01-.78-.01-1.18,0-8.36,0-16.72,0-25.09,0-.56-.01-1.11.07-1.67.43-2.88,2.69-4.46,5.59-4,2.09.33,3.91,2.08,3.87,4.57-.08,4.62-.02,9.25-.02,13.87Z"/>
      <path class="cls-1" d="m189.03,9.6c-.49.87-.98,1.74-1.46,2.62-.44.8-.87,1.6-1.3,2.4-.45.84-1.09,1.42-2.09,1.42-1.02,0-1.61-.65-2.05-1.47-.82-1.53-1.66-3.05-2.49-4.57-.05-.09-.11-.16-.19-.28-.22.21-.15.44-.15.65,0,2.04.01,4.09-.01,6.13-.02,1.48-.86,2.33-2.26,2.31-1.03,0-1.79-.61-1.98-1.62-.09-.44-.12-.9-.13-1.35,0-4.21,0-8.43,0-12.64,0-.41.03-.83.12-1.23.19-.89.66-1.58,1.6-1.78.96-.21,1.81.03,2.46.81.4.48.65,1.05.95,1.6,1.29,2.4,2.55,4.82,3.83,7.23.09.17.14.43.39.43.22,0,.27-.24.35-.4,1.37-2.57,2.73-5.15,4.1-7.72.25-.48.5-.95.89-1.33.69-.68,1.51-.85,2.4-.54.89.31,1.34,1,1.46,1.91.02.16.02.33.02.49,0,4.65,0,9.29,0,13.94,0,1.52-.77,2.23-2.29,2.2-1.23-.03-1.95-.79-1.99-2.14-.05-2.12-.08-4.25-.01-6.37,0-.22,0-.43,0-.65l-.18-.04Z"/>
      <path class="cls-1" d="m195.42,9.45c0-2.29,0-4.58,0-6.88,0-1.76.73-2.54,2.47-2.53,2.59.02,5.18-.13,7.77.11,1.38.13,2.62.62,3.63,1.58,2.14,2.04,1.71,5.57-.86,7.03-.48.27-.27.38.04.55,1.66.9,2.61,2.28,2.67,4.17.06,1.91-.81,3.34-2.42,4.32-1.08.65-2.27,1-3.55,1-2.51,0-5.02,0-7.52,0-1.46,0-2.2-.72-2.22-2.23-.02-2.37,0-4.75,0-7.12h0Zm7.37,1.79c-.84,0-1.46,0-2.08,0-.33,0-.5.14-.5.48,0,.95,0,1.89,0,2.84,0,.26.11.45.4.45,1.5-.02,3.02.17,4.51-.16.88-.19,1.37-.82,1.38-1.67,0-.9-.46-1.51-1.33-1.78-.85-.26-1.72-.13-2.37-.16Zm-.28-7.31c-.28,0-.45,0-.62,0q-1.69,0-1.69,1.7c0,1.72,0,1.73,1.74,1.71.97,0,1.95.09,2.9-.2.55-.16.9-.47,1.03-1.04.22-.97-.13-1.63-1.08-2-.79-.3-1.6-.11-2.29-.17Z"/>
      <path class="cls-1" d="m164.33,18.8c-3.63,0-6.57-1.34-8.16-4.71-1.65-3.51-1.59-7.07.6-10.39,1.29-1.95,3.21-3.06,5.53-3.45,1.72-.29,3.42-.25,5.1.22,2.71.77,4.55,2.49,5.47,5.12.85,2.45.86,4.96.08,7.43-1.1,3.46-4.34,5.76-8.01,5.77-.21,0-.41,0-.62,0Zm-4.31-9.18c-.04,1.12.14,2.33.82,3.42.88,1.44,2.14,2.11,3.85,1.98,1.53-.11,2.61-.86,3.25-2.22.88-1.88.86-3.82.4-5.81-.39-1.67-1.42-2.69-3.08-3.01-1.64-.33-3.08.1-4.16,1.45-.95,1.19-1.09,2.59-1.08,4.18Z"/>
      <path class="cls-1" d="m132.58,18.8c-3.6-.01-6.48-1.36-8.14-4.66-1.72-3.43-1.36-8.39,1.22-11.26.99-1.1,2.2-1.88,3.62-2.31,2.13-.64,4.29-.69,6.43-.07,2.57.74,4.41,2.34,5.35,4.86,1.08,2.89,1.05,5.79-.22,8.62-1.41,3.13-4.02,4.53-7.33,4.82-.31.03-.62,0-.93,0Zm4.28-9.31c-.02-.76.02-1.52-.15-2.28-.46-1.95-2.09-3.3-4.04-3.31-2.2-.01-3.65,1.12-4.13,3.26-.35,1.55-.34,3.12.04,4.66.45,1.85,1.79,3.03,3.59,3.19,1.9.17,3.34-.69,4.2-2.44.48-.99.5-2.03.49-3.09Z"/>
      <path class="cls-1" d="m234.34,18.81c-.87.01-1.45-.45-1.82-1.18-.35-.68-.64-1.39-.94-2.09-.17-.41-.42-.59-.89-.59-2.34.02-4.68.02-7.02,0-.53,0-.84.17-1.02.68-.23.66-.52,1.31-.84,1.93-.75,1.46-2.64,1.68-3.75.46-.66-.72-.66-1.52-.26-2.36.57-1.19,1.16-2.38,1.73-3.57,1.67-3.46,3.32-6.93,5-10.38.67-1.38,1.89-1.9,3.36-1.54.78.19,1.34.65,1.68,1.35,1.58,3.23,3.14,6.46,4.71,9.7.71,1.47,1.43,2.93,2.11,4.42.75,1.63-.25,3.16-2.05,3.16Zm-7.14-13.18c-.92,1.79-1.62,3.48-2.34,5.16-.17.39.15.4.41.4,1.26,0,2.53,0,3.79,0,.42,0,.51-.18.35-.54-.71-1.62-1.43-3.24-2.21-5.02Z"/>
      <path class="cls-1" d="m112.62,9.41c-.02.87-.03,1.75.25,2.58.8,2.31,2.25,3.13,4.83,2.87,1.09-.11,2.06-.61,3.04-1.04,1.12-.49,1.83-.35,2.34.46.59.94.42,2.02-.43,2.73-.81.67-1.76,1.08-2.77,1.37-2.25.65-4.5.67-6.71-.15-2.73-1.01-4.44-2.97-5.17-5.76-.85-3.26-.53-6.36,1.51-9.14,1.39-1.89,3.36-2.82,5.65-3.14,2.28-.31,4.46,0,6.5,1.09.37.2.72.41,1.03.68.79.7.98,1.68.51,2.63-.38.75-1.25,1.06-2.14.73-.29-.11-.57-.25-.83-.42-1.57-1.05-3.3-1.09-5.02-.64-1.47.38-2.15,1.59-2.46,3-.16.71-.15,1.43-.14,2.16Z"/>
      <path class="cls-2" d="m76.74,43.23c-.21-3.36,2.96-6.3,6.06-6.25,3.57.05,6.34,2.74,6.37,6.34.03,3.41-2.95,6.22-6.46,6.19-2.85-.03-6.19-2.68-5.98-6.28Z"/>
      <path class="cls-1" d="m143.18,9.45c0-2.31-.03-4.62,0-6.94.03-1.92,1.81-2.99,3.57-2.18.97.44,1.32,1.24,1.32,2.26,0,3.76,0,7.51,0,11.27q0,.91.93.91c1.72,0,3.44-.01,5.16,0,1.25.01,2.1.85,2.1,2.05,0,1.15-.71,1.95-1.87,1.97-3.13.03-6.26.02-9.39,0-.95,0-1.55-.6-1.74-1.55-.09-.43-.11-.86-.11-1.29,0-2.17,0-4.34,0-6.5,0,0,0,0,0,0Z"/>
      <path class="cls-1" d="m217,9.29c0,1.92,0,3.84,0,5.76,0,.6,0,1.19-.09,1.79-.2,1.37-1.06,2.01-2.67,1.96-1.16-.04-2.05-.94-2.14-2.16-.11-1.61-.11-3.22-.11-4.83,0-2.83,0-5.66,0-8.48,0-.41.04-.82.1-1.23.19-1.32,1.19-2.12,2.52-2.05,1.42.08,2.35.98,2.36,2.37.02,2.29,0,4.58,0,6.87,0,0,0,0,0,0Z"/>
      <path class="cls-1" d="m217.71,32.49c0-1.59,0-3.18,0-4.77,0-.23.01-.45.04-.68.04-.41.31-.57.68-.57.39,0,.7.15.76.57.04.26.04.53.04.8,0,2.87.01,5.74-.01,8.61,0,.58.15.81.77.8,1.62-.02,3.23-.09,4.85.09.44.05.66-.13.84-.53,1.37-3.08,2.77-6.14,4.16-9.21.07-.15.15-.29.22-.44.17-.38.41-.68.88-.66.5.02.75.33.95.77,1.4,3.11,2.82,6.21,4.24,9.31.16.36.32.72.46,1.08.16.4,0,.69-.35.88-.38.2-.66,0-.83-.31-.35-.66-.69-1.32-.97-2.01-.23-.55-.53-.75-1.17-.72-1.61.07-3.23.04-4.85.01-.49,0-.76.14-.92.61-.21.6-.5,1.18-.76,1.76-.22.5-.52.81-1.16.64-.51-.14-1.02.12-1.54.12-1.72-.02-3.44,0-5.16,0-1.03,0-1.17-.13-1.17-1.19,0-1.65,0-3.31,0-4.96h0Zm13.25,1.75h0c.7,0,1.41,0,2.11,0,.33,0,.45-.11.29-.46-.73-1.57-1.43-3.16-2.15-4.74-.06-.12-.09-.31-.26-.31-.17,0-.2.19-.25.32-.72,1.55-1.29,3.18-2.1,4.69-.18.34-.07.5.31.5.68,0,1.37,0,2.05,0Z"/>
      <path class="cls-1" d="m150.94,29.32c-.29.42-.23.71-.23,1,0,2.33,0,4.66,0,7,0,.19,0,.37-.01.56-.04.4-.28.66-.67.71-.38.05-.63-.2-.73-.54-.08-.27-.12-.57-.13-.85-.01-3.16-.02-6.32-.02-9.47,0-.12,0-.25.02-.37.04-.36.14-.7.53-.83.42-.14.73.06.98.36.33.4.62.82.94,1.23,1.75,2.27,3.51,4.55,5.27,6.82.17.22.23.53.51.68.18-.25.1-.51.1-.74,0-2.33,0-4.66.02-7,0-.29.05-.57.07-.86.03-.41.32-.51.65-.51.34,0,.62.13.67.51.04.33.1.66.1.98,0,2.33.09,4.66-.06,6.99-.06.92.15,1.85-.01,2.78-.06.34-.11.66-.48.8-.4.15-.63-.13-.84-.37-1.56-1.8-2.96-3.72-4.37-5.63-.73-.98-1.45-1.96-2.17-2.94-.06-.08-.08-.19-.12-.29Z"/>
      <path class="cls-1" d="m192.19,32.46c0-1.69,0-3.39,0-5.08,0-.78.14-.94.89-.93,1.53.02,3.07-.13,4.59.09,2.65.39,4.49,2.43,4.67,5.1.06.85.05,1.69-.11,2.52-.43,2.28-2.11,3.92-4.4,4.32-1.58.27-3.18.15-4.78.13-.69,0-.87-.28-.88-1,0-1.71,0-3.43,0-5.14Zm3.46,4.77v-.03c.41,0,.83.02,1.24,0,2.01-.09,3.28-1.17,3.68-3.13.22-1.11.22-2.22-.04-3.32-.31-1.33-1.08-2.24-2.42-2.66-1.3-.4-2.63-.25-3.95-.25-.33,0-.4.23-.4.51,0,2.79,0,5.58,0,8.37,0,.37.17.52.53.51.46,0,.91,0,1.37,0Z"/>
      <path class="cls-1" d="m117.79,32.01c.02-.89.27-2.11.99-3.2,1.4-2.13,3.47-2.67,5.81-2.22,2.11.4,3.47,1.72,3.99,3.85.39,1.6.39,3.19-.17,4.75-.91,2.54-3.05,3.51-5.46,3.38-3.77-.2-5.16-3.31-5.16-6.56Zm1.64.99c-.03.51.08,1.34.42,2.13.51,1.21,1.44,1.92,2.73,2.07,1.48.17,2.92-.02,3.81-1.39,1.2-1.86,1.16-3.88.43-5.88-.97-2.66-5.04-2.78-6.46-.81-.77,1.07-.88,2.29-.92,3.89Z"/>
      <path class="cls-1" d="m139.7,32.58c0-1.61,0-3.22,0-4.83,0-1.11.22-1.31,1.31-1.31,1.76,0,3.52,0,5.28,0,.27,0,.54.04.8.08.38.06.51.32.48.67-.03.39-.26.52-.63.52-1.55,0-3.11,0-4.66,0q-.92,0-.93.91c0,.83.02,1.65-.01,2.48-.02.53.19.68.69.67,1.24-.02,2.49,0,3.73-.01.38,0,.75.04,1.1.14.27.08.41.27.42.55,0,.29-.18.46-.44.53-.42.11-.85.16-1.29.16-1.18,0-2.36.02-3.54,0-.52,0-.69.19-.67.7.03.89.03,1.78,0,2.66-.02.56.17.77.75.75,1.3-.04,2.61-.02,3.92-.01.37,0,.74.06,1.11.12.33.06.49.28.46.63-.03.32-.18.55-.51.62-.12.02-.25.03-.37.03-1.97,0-3.94,0-5.9,0-.79,0-1.09-.3-1.09-1.09-.01-1.65,0-3.3,0-4.95h0Z"/>
      <path class="cls-1" d="m204.28,32.46c0-1.65,0-3.3,0-4.96,0-.87.16-1.05,1-1.06,1.97-.02,3.94,0,5.91,0,.29,0,.59.02.8.27.18.22.14.46.05.7-.11.3-.36.3-.62.3-1.58,0-3.15,0-4.73,0-.81,0-.86.04-.86.82,0,.85,0,1.69-.02,2.54-.02.51.18.7.69.69,1.33-.02,2.65-.01,3.98-.01.29,0,.58,0,.86.1.28.11.45.3.43.61-.02.3-.19.5-.49.57-.49.11-.99.11-1.48.1-1.01-.02-2.03.03-3.04-.05-.79-.06-.91.08-.92.85-.01.87.01,1.73-.02,2.6-.02.51.19.7.69.7,1.33-.02,2.65-.01,3.98,0,.35,0,.7.05,1.05.09.36.04.58.25.56.62-.01.34-.2.59-.56.65-.18.03-.37.04-.56.04-1.89,0-3.77,0-5.66,0-.81,0-1.04-.21-1.05-1.03-.02-1.71,0-3.43,0-5.14h0Z"/>
      <path class="cls-1" d="m175.4,37.79c.04-.12.09-.32.18-.5,1.46-3.31,2.93-6.6,4.5-9.86.05-.11.12-.22.17-.33.17-.37.42-.61.85-.61.43,0,.68.26.85.62.85,1.84,1.71,3.67,2.55,5.51.55,1.2,1.09,2.41,1.63,3.61.14.32.29.64.42.96.3.75.25,1.24-.18,1.35-.67.18-.9-.36-1.13-.82-.29-.59-.53-1.21-.8-1.81-.11-.26-.25-.44-.59-.44-1.78.03-3.56.03-5.34.02-.4,0-.63.13-.81.51-.35.75-.59,1.55-1.08,2.22-.17.24-.39.45-.74.3-.28-.13-.48-.32-.49-.74Zm5.77-3.55h0c.52,0,1.03,0,1.55,0q.95,0,.56-.87c-.64-1.45-1.28-2.91-1.92-4.36-.06-.14-.12-.35-.32-.32-.17.02-.18.21-.23.34-.66,1.49-1.31,2.98-1.96,4.48-.28.65-.22.73.51.74.6,0,1.2,0,1.8,0Z"/>
      <path class="cls-1" d="m111.05,26.45c.93.03,1.86-.08,2.79.1,1.99.39,3.05,1.87,2.88,4.04-.14,1.74-1.52,2.94-3.44,2.97-1.04.02-2.07.01-3.11,0-.55,0-.85.2-.78.81.13,1.07,0,2.14,0,3.21,0,.63-.31,1.02-.76,1.01-.42,0-.79-.46-.79-1.02-.02-.97,0-1.94,0-2.91,0-2.35,0-4.71,0-7.06,0-.97.17-1.14,1.16-1.16.35,0,.7,0,1.06,0,.33,0,.66,0,.99,0Zm.21,5.92c.66.03,1.36,0,2.06-.11,1.2-.18,1.85-.96,1.86-2.24.01-1.26-.6-1.98-1.81-2.19-1.17-.2-2.35-.06-3.53-.1-.37-.01-.44.2-.45.51-.04,1.19.13,2.39.01,3.58-.04.36.15.54.51.54.43,0,.87,0,1.35,0Z"/>
      <path class="cls-1" d="m166.8,37.24c.84.08,1.69-.29,2.5-.86.39-.27.82-.78,1.35-.2.33.36.13.85-.61,1.34-2.98,1.96-8.29,1.51-9.07-3.85-.17-1.19-.13-2.35.26-3.48.89-2.63,3.31-4.09,6.08-3.73.97.13,1.84.49,2.66.98.21.12.4.3.56.48.26.29.32.64.06.96-.27.34-.61.19-.89,0-.99-.69-2.03-1.14-3.29-1.09-2.03.07-3.37,1.13-3.7,3.13-.15.91-.22,1.83-.09,2.77.33,2.37,1.64,3.55,4.2,3.55Z"/>
      <path class="cls-1" d="m134.53,33.02c0,1.47,0,2.93,0,4.4,0,.21,0,.42-.05.61-.12.42-.46.58-.87.54-.38-.03-.6-.27-.63-.65-.02-.21-.01-.41-.01-.62,0-2.91-.02-5.82,0-8.74,0-.57-.19-.76-.76-.75-.93,0-1.86-.07-2.79-.09-.41,0-.68-.13-.7-.59-.03-.43.21-.59.59-.62.27-.02.54-.07.8-.07,2.36,0,4.73-.01,7.09-.01.35,0,.7.05,1.05.1.29.04.52.17.48.52-.04.35-.16.64-.59.66-.91.03-1.82.08-2.73.1-.87.02-.88.02-.88.86,0,1.45,0,2.89,0,4.34Z"/>
      <path class="cls-1" d="m173.96,32.58c0,1.57,0,3.13,0,4.7,0,.19,0,.37-.01.56-.05.43-.24.77-.73.77-.49,0-.75-.27-.81-.76-.11-.9-.09-1.81-.08-2.72.02-2.55.04-5.11.07-7.66,0-.32-.04-.67.3-.89.54-.34,1.2,0,1.22.68.03,1.17.02,2.35.02,3.53,0,.6,0,1.2,0,1.79h0Z"/>
    </g>
  </g>
</svg>