<svg width="162" height="35" viewBox="0 0 162 35" fill="none" xmlns="http://www.w3.org/2000/svg">
<path d="M32.6591 12.396L30.9238 13.0536L30.7566 13.5223L30.368 13.7753C30.2578 12.3339 30.1868 11.7621 30.156 11.7621L30.7829 11.7538L31.9374 10.345L30.2585 11.0654L30.1074 11.5559L28.4598 12.8052C28.4963 13.1138 28.5904 14.0519 28.527 14.9701L28.8914 14.7249C29.0489 21.5898 25.9107 24.1722 25.9107 24.1722C25.1173 23.8059 24.9124 23.5376 24.9124 23.5376C27.7747 20.3482 27.6434 15.7372 27.6383 15.5726L27.3367 15.7718C27.3367 15.7718 27.4603 14.3131 27.3796 13.6235L26.852 14.0237C26.8398 13.5524 26.8123 13.1605 26.7802 12.8871C27.0991 12.9083 27.4282 12.8602 27.6985 12.6656C27.9834 12.4587 28.1345 11.8492 28.1819 11.5873C28.2293 11.3267 28.1736 11.2383 28.0154 11.1358C27.8573 11.034 27.5243 10.7324 27.3892 10.5967C27.3892 10.5967 27.662 10.4795 28.3004 10.7792C28.9894 11.1051 29.5125 10.9463 30.1003 10.0748L29.3947 10.1779L29.4568 9.69127C29.4683 9.69639 29.4805 9.70279 29.4933 9.71048C29.5913 9.77835 29.9249 9.90065 30.083 9.93203C30.2418 9.96405 30.2373 9.94099 30.3372 10.0005C30.4371 10.0588 30.5223 10.0838 30.5748 10.0588C30.5748 10.0588 30.9686 10.2804 31.1268 10.0588C31.1268 10.0588 31.2792 10.1497 31.356 10.1773C31.4745 10.2208 31.6659 10.2887 31.728 10.2765C31.7914 10.2644 31.9419 10.3284 31.9662 10.3399C32.2147 10.4648 32.3664 10.4001 32.4016 10.3399C32.4381 10.2804 32.2473 10.0831 32.1 9.96021C31.9534 9.83726 31.8266 9.81357 31.8266 9.81357C31.8747 9.78155 31.8625 9.73353 31.7671 9.61891C31.6723 9.50301 31.3598 9.34934 31.3598 9.34934C31.3637 9.25777 31.0064 9.03622 30.7938 8.87422C30.578 8.71157 30.6664 8.7199 30.4403 8.48682C30.2149 8.25182 29.1802 7.43093 28.6647 7.06338C28.1499 6.69583 26.7361 5.61817 25.5265 5.22949C24.3195 4.84018 23.6042 4.92854 23.0939 5.2455C22.5823 5.56246 22.7091 5.98636 22.8013 6.24825C22.8909 6.51014 23.067 6.83863 23.1701 7.04033C23.2725 7.24267 23.1893 7.23883 23.1419 7.27149C23.0945 7.30158 23.1451 7.38162 23.099 7.3733C23.0516 7.36561 23.0222 7.42516 22.9626 7.4924C22.9332 7.52633 22.8454 7.55579 22.7315 7.57884C22.7091 7.48343 22.7686 7.41172 22.7686 7.41172C22.6886 7.36497 22.5515 7.3496 22.5515 7.3496C22.5682 7.31631 22.6309 7.29326 22.6309 7.29326C22.5439 7.27084 22.3774 7.3003 22.3774 7.3003C22.4043 7.2574 22.428 7.25035 22.428 7.25035C22.2717 7.19721 22.1321 7.32399 22.0758 7.3861C22.0066 7.26252 21.9183 7.17544 21.8305 7.09283C21.7364 7.00511 21.6884 6.87833 21.5872 6.77908C21.5872 6.77908 21.6698 6.65357 21.6103 6.52807C21.552 6.40321 21.39 6.30268 21.2952 6.27898C21.2952 6.27898 21.3791 6.23608 21.3669 6.14131C21.3554 6.04655 21.2664 6.01069 21.171 6.04142C21.075 6.07024 20.9635 6.07024 20.8918 6.13619C20.8918 6.13619 20.8137 6.14452 20.7529 6.13683C20.831 5.87622 20.87 5.5202 20.4231 5.24486C19.9128 4.9279 19.2001 4.84018 17.9912 5.22885C16.7829 5.61817 15.3684 6.69519 14.8542 7.06274C14.3394 7.43029 13.3033 8.25118 13.0799 8.48618C12.8526 8.71926 12.9396 8.71093 12.7271 8.87358C12.5125 9.03558 12.1559 9.25713 12.1597 9.3487C12.1597 9.3487 11.8472 9.50301 11.7518 9.61827C11.6571 9.73289 11.6449 9.78091 11.6916 9.81293C11.6916 9.81293 11.5661 9.83662 11.4189 9.95956C11.2722 10.0825 11.0821 10.2797 11.1173 10.3393C11.1538 10.3995 11.303 10.4641 11.5533 10.3393C11.5764 10.3278 11.7275 10.2637 11.7909 10.2759C11.8543 10.2874 12.0451 10.2202 12.1636 10.1766C12.2404 10.1485 12.3934 10.0582 12.3934 10.0582C12.5516 10.2797 12.9441 10.0582 12.9441 10.0582C12.9953 10.0825 13.0831 10.0582 13.181 9.9999C13.2803 9.94035 13.2764 9.96341 13.434 9.93139C13.5934 9.90001 13.927 9.77835 14.025 9.70984C14.0384 9.69959 14.0525 9.69383 14.0647 9.68935L14.1281 10.1779L13.4224 10.0748C14.0083 10.9463 14.5321 11.1057 15.2211 10.7792C15.8602 10.4795 16.1329 10.5967 16.1329 10.5967C15.9985 10.7324 15.6642 11.034 15.5067 11.1358C15.3485 11.2389 15.2928 11.3267 15.3409 11.5873C15.3876 11.8492 15.5374 12.4587 15.8243 12.6656C16.0945 12.8602 16.4236 12.9076 16.7425 12.8871C16.7105 13.1599 16.6836 13.5524 16.6702 14.0237L16.1374 13.6197C16.0567 14.3086 16.1797 15.7718 16.1797 15.7718L15.8787 15.5726C15.8723 15.7378 15.7423 20.3482 18.6059 23.5376C18.6059 23.5376 18.399 23.8059 17.607 24.1722C17.607 24.1722 14.4675 21.5891 14.6275 14.7249L14.9919 14.9701C14.9272 14.0493 15.022 13.108 15.0578 12.802L13.4154 11.5559L13.2636 11.0654L11.5847 10.345L12.7405 11.7538L13.3667 11.7621C13.3347 11.7621 13.2636 12.3339 13.1529 13.7753L12.7655 13.5223L12.5983 13.0536L10.8637 12.396L12.0912 13.7663L12.7014 13.7279C12.7014 13.7279 12.0765 19.8052 14.1396 23.0753C15.8582 25.7961 18.3581 25.8178 20.6338 24.2894C20.5531 24.5551 20.2784 25.3459 19.5094 26.7873C19.5094 26.7873 19.9531 26.7873 20.4282 26.868C20.4282 26.868 20.3341 27.2637 20.2842 27.3828C20.2355 27.5051 20.2438 27.7055 20.4775 27.7164C20.7125 27.7234 21.0173 27.7529 21.0173 27.7529C21.0173 27.7529 20.9757 28.0385 20.9693 28.1902C20.9623 28.3951 20.9424 28.4803 21.7582 28.5149C22.613 28.4803 22.5573 28.3951 22.549 28.1902C22.5426 28.0385 22.5035 27.7529 22.5035 27.7529C22.5035 27.7529 22.8089 27.7241 23.0433 27.7164C23.277 27.7055 23.2854 27.5051 23.236 27.3828C23.188 27.263 23.0901 26.868 23.0901 26.868C23.5665 26.7873 24.0102 26.7873 24.0102 26.7873C23.2399 25.3408 22.9639 24.5525 22.8826 24.2894C25.1602 25.8172 27.662 25.7986 29.3819 23.0753C31.4444 19.8052 30.8194 13.7279 30.8194 13.7279L31.4296 13.7663L32.6591 12.396ZM22.7283 10.0434C22.7961 9.73737 22.8512 9.47996 22.9146 9.5235C22.9774 9.56705 23.0888 9.57153 23.1285 9.5203C23.1688 9.46715 23.1803 9.46075 23.2124 9.51518C23.2444 9.57025 23.4339 9.66181 23.5613 9.4441C23.6881 9.22639 23.6523 9.33717 23.6881 9.42041C23.7246 9.50301 23.8232 9.53887 23.934 9.45179C24.0448 9.36534 24.1319 9.2885 24.2113 9.24944C24.2894 9.21103 24.2932 9.23024 24.3368 9.15084C24.3809 9.0708 24.452 9.03494 24.4552 8.98371C24.4591 8.93184 24.4078 8.87293 24.484 8.83323C24.559 8.79353 24.5948 8.76536 24.6627 8.79738C24.7306 8.82939 24.7491 8.76536 24.785 8.8089C24.8202 8.85245 24.8669 8.85693 24.9118 8.8089C24.9553 8.76152 24.9873 8.6866 25.0386 8.77368C25.0898 8.86013 25.2044 8.87998 25.2281 8.83644C25.2531 8.79353 25.2723 8.78905 25.3037 8.85693C25.3357 8.92416 25.4503 8.97603 25.5732 8.95618C25.5732 8.95618 25.6878 9.11434 25.8274 9.09064C25.967 9.06631 26.0215 8.99588 26.0247 8.90175C26.0291 8.80634 25.9773 8.48618 26.072 8.55597C26.1674 8.62705 26.1636 8.59567 26.1905 8.53933C26.2187 8.48554 26.2622 8.54317 26.3102 8.531C26.3576 8.52076 26.3493 8.45993 26.4287 8.53933C26.5087 8.61937 26.5158 8.65843 26.5913 8.67828C26.6663 8.69749 26.6983 8.71798 26.7777 8.80122C26.8577 8.88446 26.9448 8.97539 27.0863 8.92352C27.0863 8.92352 27.1772 9.04198 27.2733 9.0343C27.2733 9.0343 27.4673 9.24496 27.5781 9.21359C27.5781 9.21359 27.7676 9.29171 27.8316 9.28466C27.8957 9.27698 27.9072 9.23408 27.9475 9.25585C27.9866 9.28082 27.9712 9.18093 28.0301 9.24816C28.0884 9.31604 28.1966 9.43514 28.2639 9.41529C28.2639 9.41529 28.4233 9.54976 28.545 9.56384C28.6686 9.58049 28.7044 9.61699 28.7435 9.61699C28.7825 9.61699 28.7633 9.57729 28.835 9.633C28.9055 9.68871 29.0098 9.7156 29.0771 9.68871C29.1443 9.65989 29.1712 9.66373 29.232 9.67206C29.2519 9.67462 29.2775 9.67206 29.3057 9.6695C29.1065 9.90642 28.8466 10.0947 28.3631 9.94548C27.7222 9.74698 27.5301 9.84174 27.3975 9.97685C27.2624 10.1107 26.9698 10.5 26.8891 10.7459C26.8116 10.9911 26.8513 11.1813 27.3245 11.7365C27.3245 11.7365 26.7066 11.7755 25.8915 11.5136C25.0751 11.253 24.322 11.1576 23.562 11.4989C23.4301 11.5585 23.3078 11.6129 23.1938 11.6699C23.1093 11.5841 22.8986 11.367 22.8205 11.2684C22.8205 11.2684 22.8717 11.0155 22.8679 10.8682C22.8634 10.7017 22.8563 10.6236 22.7968 10.5397C22.736 10.4597 22.6623 10.3482 22.7283 10.0434ZM25.9926 12.7264C25.6328 12.9537 25.0213 13.2207 24.1152 13.2207C23.4083 13.2207 22.8634 13.0581 22.4766 12.8769C22.6373 12.7783 23.2604 12.4242 24.0448 12.4037C24.956 12.3793 25.3523 12.5055 25.7884 12.6579C25.8479 12.679 25.9177 12.7014 25.9926 12.7264ZM22.2391 11.4323C22.2442 11.4349 22.2487 11.4362 22.2538 11.4381C22.4145 11.5015 22.5816 11.4778 22.5816 11.4778C22.6335 11.5098 22.8589 11.7217 22.9402 11.8018C22.7103 11.9266 22.5074 12.0573 22.3089 12.2257C22.2608 12.0291 22.1904 11.7083 22.2109 11.6007C22.2224 11.5405 22.2327 11.4829 22.2391 11.4323ZM21.1102 7.09924C21.1992 7.15815 21.3721 7.25996 21.4323 7.40723C21.4489 7.45142 21.4623 7.49368 21.4739 7.53402C21.3477 7.50264 21.2504 7.50072 21.1761 7.51289C21.0474 7.30478 20.904 7.16903 20.7702 7.07939C20.9104 7.05954 21.0314 7.04609 21.1102 7.09924ZM20.3475 7.03969C20.3495 7.03521 20.352 7.032 20.3539 7.02496C20.4628 7.18568 20.6978 7.46422 21.0743 7.54554C21.0353 7.56475 21.0058 7.58909 20.9847 7.61022C20.7804 7.58332 20.6011 7.54554 20.5531 7.49112C20.4935 7.42388 20.4666 7.36433 20.4186 7.37202C20.3719 7.38034 20.4225 7.29966 20.3757 7.2702C20.3277 7.23883 20.2464 7.24203 20.3475 7.03969ZM20.1907 9.58049C20.2073 9.68743 20.2361 9.80525 20.2918 9.92243C20.2771 9.94932 20.263 9.97621 20.2496 10.0044C20.2176 9.76042 20.1177 9.60162 20.0978 9.57217C20.1305 9.58305 20.1619 9.58433 20.1907 9.58049ZM16.1957 11.739C16.6708 11.1832 16.7099 10.9937 16.6311 10.7484C16.5517 10.5026 16.2591 10.1132 16.124 9.97941C15.9895 9.84495 15.8 9.74954 15.1577 9.94804C14.6743 10.0966 14.4162 9.91026 14.2158 9.6727C14.2427 9.67462 14.2664 9.67654 14.285 9.67398C14.3458 9.66566 14.372 9.66245 14.4412 9.69063C14.5078 9.71752 14.6115 9.69063 14.682 9.63492C14.7537 9.57985 14.7338 9.61891 14.7729 9.61891C14.8126 9.61891 14.8484 9.58241 14.9707 9.56577C15.0937 9.55104 15.2525 9.41721 15.2525 9.41721C15.3204 9.43642 15.426 9.31732 15.4868 9.25009C15.5464 9.18285 15.5297 9.28274 15.5701 9.25777C15.6091 9.236 15.622 9.2789 15.6847 9.28658C15.7475 9.29363 15.9389 9.21551 15.9389 9.21551C16.0491 9.24752 16.2443 9.03622 16.2443 9.03622C16.3385 9.04454 16.43 8.92544 16.43 8.92544C16.5722 8.97731 16.6606 8.88574 16.74 8.80314C16.8181 8.7199 16.8501 8.69941 16.9257 8.6802C17.0012 8.65971 17.0083 8.62065 17.087 8.54125C17.1671 8.46185 17.1581 8.52332 17.2061 8.53292C17.2535 8.54509 17.2977 8.48682 17.3252 8.54125C17.354 8.5976 17.3495 8.62897 17.4437 8.5579C17.5378 8.48746 17.4872 8.80762 17.4911 8.90367C17.4968 8.9978 17.5513 9.06887 17.6896 9.09257C17.8285 9.1169 17.9438 8.9581 17.9438 8.9581C18.0654 8.97731 18.1813 8.92608 18.2127 8.85885C18.2447 8.79097 18.2646 8.79546 18.2876 8.83836C18.3113 8.88254 18.4266 8.86205 18.4791 8.77561C18.5297 8.68852 18.5604 8.7628 18.6052 8.81082C18.6488 8.85885 18.6961 8.85437 18.732 8.81082C18.7672 8.76728 18.7884 8.83067 18.8556 8.7993C18.9222 8.76728 18.9587 8.79546 19.033 8.83516C19.1079 8.87486 19.0573 8.93377 19.0611 8.98563C19.065 9.03686 19.1373 9.07272 19.1802 9.15276C19.2244 9.23216 19.2289 9.21231 19.307 9.25137C19.3864 9.29043 19.4735 9.36726 19.5843 9.45371C19.6861 9.53311 19.7764 9.48252 19.8193 9.41465C19.8353 9.48508 19.859 9.60034 19.8929 9.60034C19.9269 9.60034 19.9557 9.5107 19.9806 9.45499C20.0159 9.50365 20.0549 9.49149 20.0933 9.50622C20.0748 9.54207 19.7975 10.0992 20.1356 10.598H20.1362C20.1522 10.598 20.1651 10.5775 20.1772 10.5442C20.2124 10.8682 20.1932 10.9412 20.1932 10.9412C20.1932 10.9412 20.0408 11.1352 19.9313 11.4778C19.1809 11.1518 18.4362 11.2543 17.6313 11.5117C16.8136 11.7723 16.1957 11.739 16.1957 11.739ZM19.6688 12.4158C19.5747 12.6982 19.4505 12.9877 19.2814 13.2182C18.4439 13.1945 17.8708 12.9448 17.5282 12.7264C17.6038 12.7014 17.6723 12.679 17.7325 12.6579C18.1685 12.5055 18.5655 12.38 19.4761 12.4037C19.542 12.4056 19.6054 12.4114 19.6688 12.4158ZM16.9705 12.8372C17.0435 12.8244 17.1158 12.8212 17.1997 12.8007C17.4341 13.0357 18.0923 13.5601 19.3326 13.5601C20.9386 13.5601 21.7588 12.7885 21.7588 12.7885C21.7588 12.7885 22.5778 13.5627 24.1837 13.5627C25.4253 13.5627 26.0823 13.044 26.316 12.8096C26.4018 12.8301 26.4729 12.8244 26.5459 12.8365C26.7405 14.4502 26.4172 16.7412 26.4172 16.7412H21.7582H17.0985C17.0985 16.7419 16.7765 14.4508 16.9705 12.8372ZM17.0985 17.0204H21.7582H26.4165C26.4165 17.0204 26.2737 18.8031 25.5137 20.2982H21.7582H18.0014C17.2407 18.8024 17.0985 17.0204 17.0985 17.0204ZM21.7582 24.6512C18.9657 22.6297 18.1442 20.5614 18.1442 20.5614H21.7582H25.3709C25.3709 20.5614 24.5526 22.6297 21.7582 24.6512Z" fill="white"/>
<path d="M23.5044 16.5248C23.6664 16.521 23.8156 16.4633 23.9411 16.3673C24.0083 16.3897 24.0768 16.4012 24.1485 16.3987C24.3995 16.3961 24.6179 16.2322 24.7376 15.9921C24.8516 16.0074 24.9669 15.9921 25.0719 15.9363C25.3005 15.814 25.4048 15.5381 25.3555 15.2589C25.369 15.2506 25.3792 15.2403 25.3914 15.2313C25.5989 15.0578 25.5944 14.7146 25.385 14.4598C25.3786 14.4514 25.3728 14.445 25.3645 14.4386C25.4356 14.3855 25.483 14.3093 25.483 14.2196C25.483 14.0615 25.2921 13.9347 25.1167 13.9347C24.9432 13.9347 24.7517 14.0615 24.7517 14.2196V14.2209C24.7517 14.2299 24.6422 14.26 24.5795 14.3144C24.4905 14.3874 24.4668 14.495 24.4546 14.6115C24.4226 14.623 24.4027 14.6333 24.372 14.6506C24.3291 14.6717 24.2984 14.7024 24.2651 14.7345C24.2138 14.7217 24.1671 14.7146 24.1133 14.7165C24.0371 14.7172 23.9654 14.7345 23.8962 14.7626C23.7707 14.6768 23.6254 14.6275 23.4679 14.632C23.0152 14.639 22.6572 15.0713 22.6668 15.5931C22.6771 16.1176 23.0529 16.5331 23.5044 16.5248Z" fill="white"/>
<path d="M18.164 15.2307C18.1749 15.2397 18.1864 15.2499 18.1999 15.2582C18.1506 15.5374 18.2543 15.8134 18.4823 15.9357C18.586 15.9914 18.7025 16.0068 18.8171 15.9914C18.9369 16.2315 19.1546 16.3955 19.4056 16.398C19.4773 16.4006 19.5465 16.3897 19.6131 16.3666C19.7379 16.4627 19.8871 16.5203 20.0491 16.5242C20.5018 16.5325 20.8764 16.1169 20.8873 15.5931C20.8963 15.0706 20.5377 14.639 20.085 14.632C19.9287 14.6275 19.7821 14.6768 19.6553 14.762C19.5881 14.7345 19.5145 14.7178 19.4376 14.7165C19.3845 14.7146 19.3326 14.7217 19.2846 14.7332C19.25 14.7024 19.2129 14.6717 19.1693 14.6506C19.1392 14.6333 19.1066 14.6218 19.0746 14.6115C19.0637 14.495 19.0489 14.3874 18.9593 14.3144C18.8965 14.2593 18.7723 14.2299 18.7723 14.2209V14.2196C18.7723 14.0615 18.5962 13.9347 18.4221 13.9347C18.2466 13.9347 18.0878 14.0615 18.0878 14.2196C18.0878 14.3093 18.125 14.3855 18.1954 14.4386C18.1896 14.4444 18.18 14.4514 18.173 14.4598C17.9617 14.7127 17.9559 15.0565 18.164 15.2307Z" fill="white"/>
<path d="M21.7883 20.0985L22.1751 19.5126L22.1014 19.2353L22.4056 19.277C22.4261 19.4037 22.508 19.5491 22.6297 19.567C22.7526 19.5888 22.9556 19.567 22.9556 19.567L23.0709 19.4326C22.9287 19.2968 22.7526 19.1822 22.7526 19.1822C22.7116 18.3735 22.5701 17.8241 22.4658 17.5327C22.3646 17.2414 22.2295 17.233 21.9708 17.267C21.7134 17.3009 21.0141 17.7229 21.0141 17.7229L20.9661 18.1289L21.205 18.1551C21.205 18.1551 21.0686 18.6104 21.0206 18.7743C20.9732 18.9382 21.0141 18.9305 21.1019 18.9926C21.1896 19.0528 21.5232 19.1335 21.5232 19.1335L21.4278 19.5549L21.7883 20.0985Z" fill="white"/>
<path d="M20.879 14.9561C21.018 15.7584 21.5347 15.8314 21.739 15.8269C21.7358 16.1099 21.6871 16.334 21.6871 16.334L21.9413 16.5082C21.9689 16.1714 21.9631 15.9044 21.942 15.6918C22.5528 15.6034 22.6777 14.6948 22.6777 14.6948C22.0828 14.9631 21.9573 15.3934 21.9311 15.5887C21.8888 15.2647 21.8113 15.088 21.7704 15.015C22.1571 14.9721 22.4568 14.6449 22.4568 14.2466C22.4568 14.0238 22.3627 13.8227 22.2096 13.6818L22.3364 13.4443L22.0668 13.4981L21.9561 13.2919L21.7582 13.4513L21.6397 13.2919L21.5129 13.475L21.2747 13.3405L21.3413 13.5563C21.0865 13.6818 20.911 13.9437 20.911 14.2466C20.911 14.6295 21.1902 14.9458 21.5552 15.0092C21.6756 15.1981 21.723 15.4382 21.7364 15.6623C21.4028 15.1296 20.879 14.9561 20.879 14.9561ZM21.7172 15.0022C21.5309 15.0022 21.3791 14.6692 21.3791 14.2575C21.3791 13.849 21.5309 13.516 21.7172 13.516C21.9035 13.516 22.0547 13.849 22.0547 14.2575C22.0547 14.6692 21.9035 15.0022 21.7172 15.0022Z" fill="white"/>
<path d="M22.3915 21.5578C22.323 21.392 22.323 21.228 22.3915 21.0609H21.4617C21.3926 21.228 21.3926 21.392 21.4617 21.5578H22.3915Z" fill="white"/>
<path d="M21.4623 22.7212C21.3932 22.887 21.3932 23.22 21.4623 23.3871H22.3921C22.3236 23.22 22.3236 22.8877 22.3921 22.7212H21.4623Z" fill="white"/>
<path d="M22.613 22.0578L22.8204 21.7249H21.3996L21.2433 21.5577H21.1787H20.6504L20.724 21.7249H20.8668L21.0186 22.0578H22.613Z" fill="white"/>
<path d="M22.6015 23.5537H22.549H22.3134H22.1129H21.8779H21.7268H21.4758H21.3983L21.3125 23.3872H21.0001L21.0955 23.5767L21.3503 23.717H22.5759L22.8231 23.5742L22.8576 23.3872H22.6572L22.6015 23.5537Z" fill="white"/>
<path d="M60.4901 11.7108C59.148 10.3955 57.1617 9.6976 55.4175 9.6976C51.0159 9.6976 48.4661 12.9985 48.493 16.971C48.493 20.4064 50.5331 23.7348 55.4175 23.7348C57.0279 23.7348 58.5038 23.332 60.0067 22.0706V18.2594H54.7733V15.5758H62.7985V23.2789C60.9198 25.3458 58.5845 26.5535 55.4175 26.5535C48.5199 26.5535 45.5405 21.9643 45.5405 16.9717C45.5405 11.5501 49.0027 6.93396 55.4175 6.93396C57.9134 6.93396 60.4363 7.87331 62.3688 9.77892L60.4901 11.7108Z" fill="white"/>
<path d="M84.4639 16.7969C84.4639 21.89 81.3647 26.5529 74.8161 26.5529C68.2675 26.5529 65.1683 21.7825 65.1683 16.8238C65.1683 11.0833 69.1838 6.93335 74.8699 6.93335C81.3109 6.96024 84.4639 11.7031 84.4639 16.7969ZM74.8161 23.7764C79.5052 23.7764 81.4729 20.4615 81.4729 16.85C81.4729 13.3737 79.4783 9.7623 74.8705 9.68162C70.5048 9.68162 68.1599 12.727 68.1599 16.85C68.2137 20.1925 70.1539 23.7764 74.8161 23.7764Z" fill="white"/>
<path d="M96.2771 26.5522H93.0217L84.9255 6.99292H88.4312L94.636 22.8243L100.868 6.99292H104.346L96.2771 26.5522Z" fill="white"/>
<path d="M106.383 24.5788C106.383 27.2105 102.451 27.2105 102.451 24.5788C102.451 21.9785 106.383 21.9785 106.383 24.5788Z" fill="white"/>
<path d="M125.428 23.7419C123.482 25.6603 120.969 26.5523 118.321 26.5523C111.457 26.5523 108.376 21.8228 108.349 16.8507C108.322 11.8786 111.565 6.93274 118.321 6.93274C120.861 6.93274 123.321 7.8785 125.239 9.79755L123.212 11.7435C121.861 10.4193 120.077 9.79755 118.321 9.79755C113.511 9.79755 111.322 13.3379 111.349 16.8238C111.376 20.2828 113.43 23.715 118.321 23.715C120.077 23.715 122.023 22.985 123.347 21.6608L125.428 23.7419Z" fill="white"/>
<path d="M147.205 16.8264C147.205 21.9041 144.116 26.5522 137.587 26.5522C131.058 26.5522 127.969 21.7966 127.969 16.8533C127.969 11.1307 131.972 6.99292 137.641 6.99292C144.062 7.01981 147.205 11.7486 147.205 16.8264ZM137.587 23.7854C142.262 23.7854 144.223 20.4807 144.223 16.8802C144.223 13.4141 142.235 9.81419 137.641 9.73351C133.289 9.73351 130.951 12.7693 130.951 16.8802C131.004 20.2118 132.939 23.7854 137.587 23.7854Z" fill="white"/>
<path d="M39.8032 3.00891H37.692V14.7806H39.8032V3.00891Z" fill="#FBD000"/>
<path d="M39.8032 14.7806H37.692V22.6284H39.8032V14.7806Z" fill="#00549F"/>
<path d="M39.8032 22.6284H37.692V30.4769H39.8032V22.6284Z" fill="#D21A3A"/>
</svg>
