<?xml version="1.0" encoding="utf-8"?>
<!-- Generator: Adobe Illustrator 27.8.0, SVG Export Plug-In . SVG Version: 6.00 Build 0)  -->
<svg version="1.1" id="Layer_1" xmlns="http://www.w3.org/2000/svg" xmlns:xlink="http://www.w3.org/1999/xlink" x="0px" y="0px"
	 viewBox="0 0 1308 566" style="enable-background:new 0 0 1308 566;" xml:space="preserve">
<style type="text/css">
	.st0{fill:#00DEB6;}
	.st1{fill:#FF5910;}
	.st2{fill:#FFB900;}
	.st3{fill:#0032B3;}
	.st4{fill:#FFD300;}
</style>
<g>
	<path class="st0" d="M273.4,45.8c-6.6,1.4-12.7,3.2-18.2,5.5c-1.7,0.1-2.5,0.7-2.4,1.8l-0.9,0.6c-1.2,0.3-2.4,1-3.7,2
		c-3,2.5-5.5,5.4-7.4,8.7c-4.7,6-8.2,12.5-10.5,19.6l-2.3,4c-0.2,0.3-0.4,0.5-0.8,0.6c-15.4,5.4-33.6,13.7-37.8,31.5
		c-1.4,6.1-0.5,14.9-1.1,21.3c-1,10.1-5.3,18.1-13,23.9c-8.3,6.2-22.7,6.1-32.3,6.4c-10,0.4-22,1.3-25.8,12.5
		c-0.7-11.3,12-23.4,21.1-28.4c0.3-0.2,0.5-0.3,0.6-0.5c0.3-0.5,0.3-0.7,0-0.9c10.9-4.6,20.5-14.5,22.6-26.6c0.3-2,0.4-6,0-11.9
		c-0.4-6.7-0.6-13.7,1.4-19.9c8.2-25.5,34.2-29.6,57.9-25.1c3.9,0.7,7.6-0.5,11-3.7C244.2,55.4,254.6,44.8,273.4,45.8z"/>
	<path class="st1" d="M273.4,45.8c4.2,0.1,8.5,0.6,12.7,1.7c0.5,0.1,0.8,0.6,0.7,1.1c-0.1,0.4-0.4,0.7-0.8,0.7
		c-12.8,0.6-22.3,5.7-28.5,15.3c-2.8,4.4-5,10.7-6.5,18.8c-2.9,15.7-3,31.4-0.3,47.1c11.5,66.2,83.2,59.7,131.6,59.4
		c8.3-0.1,15.2,0.7,20.6,2.2c8.1,2.3,11.6,10.2,7.6,17.7c-2.2,4-4.9,8.3-6.2,12.3c-5,14.9,1,34,9.3,46.9
		c10.8,16.8,25.8,29.3,44.9,37.3l1.3,11.8c-3.8-1.5-8-2.6-11.5-4.2c-9.9-4.6-19.4-9.8-28.6-15.7c-6.5-4.1-11.3-6.8-14.3-8.1
		c-10.8-4.7-22.1-7-33.9-6.9c-1.8-4.1-3.4-7.8-4.8-12.3c-5.2-17.4-13.4-32.9-27.4-44.8c-15.2-13-38-20.4-57.1-29
		c-8-3.6-13.9-6.7-17.7-9.3c-31.5-21.7-44.4-67.7-34.1-103.5c2.3-7.1,5.8-13.6,10.5-19.6c3.2-4.4,6.9-8,11.1-10.8l0.9-0.6l2.4-1.8
		C260.7,49,266.8,47.1,273.4,45.8z"/>
	<path class="st2" d="M255.3,51.3l-2.4,1.8C252.7,52,253.5,51.4,255.3,51.3z"/>
	<path class="st2" d="M251.9,53.7c-4.2,2.8-7.9,6.4-11.1,10.8c1.9-3.3,4.4-6.2,7.4-8.7C249.5,54.7,250.7,54,251.9,53.7z"/>
	<path class="st3" d="M138.9,154.5c0.3,0.1,0.3,0.4,0,0.9c-0.1,0.2-0.3,0.4-0.6,0.5c-9,5-21.8,17.1-21.1,28.4
		c-2.8,18.7,15.3,36.9,27.7,48.3c3.7,3.4,6.3,6.2,7.9,8.4c14.2,20.3,17.8,53,4.9,74.7c-5.6,9.4-15.2,17.1-17.1,29
		c-2.5,16,25.3,10.5,33.1,9.1c5.7-1,9.7-1.4,12.1-1.2c19.8,1.7,21.4,25.2,27.1,41c4.7,13,9.1,21.2,24.3,24.1
		c9.2,1.7,16.6,2.8,22.3,3.2c22.8,1.6,46.1,1.7,67.8,8c4.6,1.3,9.2,3.6,13.9,6.7c5.8,3.9,10.2,9.1,13.1,15.6
		c1.2,5.5,1.8,9.3,1.9,11.5c0.5,10.1-0.7,19.6-3.7,28.5c-2.8,8.3-7.8,15.8-15,22.4c-2.8,2.9-6,5.1-9.7,6.6c-0.6,0.2-1.2-0.1-1.4-0.6
		c-0.1-0.3-0.1-0.7,0.1-1c20.1-34,2.7-64.6-31.8-76.3c-3.2-1.1-9.1-2.5-17.7-4.1c-11.4-2.2-22.8-4.7-34.1-7.3
		c-13.5-3.1-27.3-7.7-37-18.1c-3.3-3.5-6.6-9.3-9.7-12.7c-14.2-15.4-33.9-15.1-53.1-12.5c-10.4,1.4-19.9,2.3-28.5,2.6
		c-16.2,0.6-27.2-6.6-32.8-21.7c-2.4-6.3,2.1-14.3,6.1-19.3c6.9-8.5,13.7-16.9,20.6-25.4c7.4-9.1,14-18.7,16.2-30
		c2.9-15.3-2.3-29.7-8.5-43.5c-11.4-25.1-29.7-59.8-2.7-83.1C120.3,161.2,128.9,157,138.9,154.5z"/>
	<path class="st3" d="M548.4,295.9c-0.3,5.4,0.2,11.1,1.7,17.3c6.4,29.2,32.7,51.6,63.1,45.7c19.5-3.8,34.5-18,41.5-36.6
		c0.1-0.3,0.5-0.5,0.8-0.4c27.8,8.4,54.5,23.5,78.7,39.6c0.3,0.2,0.5,0.7,0.3,1c-43.9,82.7-158.2,100.7-228.3,41.2
		c-20.9-17.7-35.2-39.8-42.9-66.2l-3.7-19.2l-1.3-11.8c-5.5-97.1,80.8-163.6,173.3-147.1c31.9,5.7,62.9,21.9,84.2,46.6
		c25.5,29.4,36.5,64.4,33.2,104.8c0,0.2-0.2,0.3-0.3,0.3c0,0,0,0,0,0c-0.3-0.1-0.6-0.2-0.9-0.4c-29-20-59.9-35-94.5-40.2
		c-0.3,0-0.5-0.2-0.6-0.5c-15-32.4-54.4-45.1-82.6-20.4C556.9,261.1,549.7,276.5,548.4,295.9z"/>
	<path class="st3" d="M844.7,380.2l0.2,25.4l0.1,24.4c0,0.4-0.3,0.7-0.7,0.7h0h-82.7c-0.3,0-0.6-0.3-0.6-0.6l0-65.1l0-36.4l0-163.3
		c0-0.7,0.4-1.1,1.1-1.1l74.7-0.1c0.8,0,1.6,0.3,2.1,0.9c24.4,26.3,48.8,52.7,73.2,79.3c9.6,10.4,18.7,21.2,27.5,32.4
		c0.1,0.2,0.4,0.2,0.6,0.1c0.1-0.1,0.1-0.2,0.2-0.2c0.1-0.5,0.1-1,0.1-1.6c-1.1-10.8-1.7-21.6-1.8-32.5c-0.1-25.9-0.2-51.8-0.3-77.8
		c0-0.4,0.2-0.5,0.5-0.5l83.1,0c0.6,0,0.9,0.3,0.9,0.9l0,120.8c0,0.6-0.3,1.1-0.9,1.3c-25,10-48.3,23.2-70,39.7
		c-14.4,10.9-29.4,23.5-44.4,35.8c-0.2,0.2-0.5,0.1-0.7-0.1c-21.9-22.8-42.8-46.5-62.8-70.9c-0.1-0.1-0.3-0.2-0.4,0
		c-0.1,0.1-0.1,0.2-0.1,0.3C844.9,321.4,845.4,350.9,844.7,380.2z"/>
	<path class="st3" d="M1142.6,261.7c-29.7,1.8-58.4,6.7-87.3,14.1c-0.5,0.1-0.8-0.1-0.8-0.6V164.7c0-0.3,0.2-0.5,0.5-0.5l0,0l87.5,0
		c0.5,0,0.8,0.4,0.8,0.8v96C1143.4,261.4,1143.1,261.7,1142.6,261.7z"/>
	<path class="st1" d="M1226.8,270.5c-1.6-0.7-3.1-1.1-4.3-1.1c-12.7,0-25.4,0.1-38.1,0.5c-0.3,0-0.6,0.2-0.7,0.5
		c-0.4,0.8-0.6,1.6-0.4,2.5c-34.4-0.6-67.9,2.6-100.5,9.7c-37.6,8.1-73.5,22.5-105,45.3c-14.8,10.8-28.2,21.9-42.3,34.5
		c-14,12.6-26.7,24.1-41.8,33.6c-14.8,9.3-31.1,12.5-48.8,9.7l-0.2-25.4c4.7,1.2,9.6,2.8,13.8,3.4c15.1,2.2,29.3-1,42.5-9.8
		c17.3-11.5,32-24.9,47.9-37.6c30-24,63.3-41.5,100.1-52.5c42.8-12.9,88-17.8,133.1-17.5c0.9,0,1.3-0.4,1.3-1.3
		c0.1-8.3,0.1-16.8,0-25.6c-0.1-6,4.3-10.1,9.4-4.8c7.7,7.9,18.7,18.9,33.1,32.9C1226.5,267.9,1226.8,268.9,1226.8,270.5z"/>
	<path class="st4" d="M1226.8,270.5c-11.6,11.9-23.4,23.6-35.3,35.2c-3.1,3-7.8-0.3-7.8-4c0-9.8-0.1-19.4-0.4-28.9
		c-0.1-0.9,0-1.7,0.4-2.5c0.2-0.3,0.4-0.4,0.7-0.5c12.7-0.3,25.4-0.5,38.1-0.5C1223.7,269.4,1225.1,269.8,1226.8,270.5z"/>
	<path class="st1" d="M760.8,329.2l0,36.4c-0.1-1-0.2-1.3-0.3-0.7c0.2-1,0.2-1.7,0.2-2.3c0-0.7-0.3-1-0.9-0.9
		c-0.4,0.1-0.7,0-0.9-0.3c-1.5-1.5-2.7-2.6-3.6-3.3c-7.4-5.5-15.8-11.4-25.3-17.7c-28.8-19.3-60.8-38.3-95.6-42.6
		c-22.3-2.8-47.3,1.7-69.8,8.8c-3.4,0.7-10.4,1.9-13,4c-0.3,0.2-0.4,0.5-0.4,0.8c0,0.9-0.3,1.5-0.9,2c-1.5-6.2-2-11.9-1.7-17.3
		c19.1-9.1,38.3-14.9,57.8-17.5C663.7,271.1,715.5,296.6,760.8,329.2z"/>
	<path class="st3" d="M1144,359.3l82,0c0.5,0,1,0.4,1,1l0,69.9c0,0.2-0.2,0.4-0.4,0.4h-171.6c-0.2,0-0.4-0.2-0.4-0.4l0,0V299.4
		c0-0.4,0.2-0.7,0.6-0.8c28.5-9.1,57.6-14.6,87.5-16.7c0.5,0,0.8,0.2,0.8,0.7l0,76C1143.3,359,1143.6,359.3,1144,359.3z"/>
	<path class="st2" d="M371.4,282.9c11.8-0.1,23.1,2.2,33.9,6.9c3,1.3,7.7,4,14.3,8.1c9.2,5.8,18.8,11,28.6,15.7
		c3.5,1.6,7.7,2.8,11.5,4.2l3.7,19.2c-13,0.8-25.9-0.1-38.7-2.7c-1.5-1.2-3.3-1.9-5.5-2.3c-0.3,0-0.5-0.2-0.6-0.5l-0.6-1.3
		c-0.1-0.3-0.4-0.6-0.6-0.8c-1.5-1-3.1-1.6-4.8-1.9c-2.7-0.5-5.5-1.8-7.7-3.5c-6.3-4.5-12.7-8.5-17.3-14.6
		c-6.5-8.7-12-15.1-15.4-25.2c-0.1-0.3-0.3-0.5-0.6-0.7c-1-0.4-1.2-0.5-0.6-0.5C370.9,282.6,371,282.5,371.4,282.9z"/>
	<path class="st4" d="M371,283.2c-0.6-0.1-0.4,0.1,0.6,0.5c0.3,0.1,0.5,0.3,0.6,0.7c3.4,10.1,8.9,16.5,15.4,25.2
		c4.6,6.2,11.1,10.1,17.3,14.6c2.2,1.6,5,3,7.7,3.5c1.7,0.3,3.3,1,4.8,1.9c0.3,0.2,0.5,0.4,0.6,0.8l0.6,1.3c0.1,0.3,0.3,0.4,0.6,0.5
		c2.1,0.3,4,1.1,5.5,2.3c-12.8-2.4-24.8-6.9-35.9-13.5c-4.1-2.4-7.1-3.9-9.2-4.5c-22.3-6.3-40.1,15.3-44.4,34.4
		c-2.7,11.8-2.3,24.8,2.5,35.9c11.6,26.9,41.9,55.3,33,87.1c-4,14.3-14.4,26.8-25.9,35.9c-2.3,1.8-4.8,2.7-7.5,3.9
		c7.2-6.6,12.2-14.1,15-22.4c3-8.9,4.2-18.4,3.7-28.5c-0.1-2.2-0.7-6-1.9-11.5c-2.2-7.8-6.6-14.7-13.2-20.8
		c-7-6.5-15.9-13.7-22.1-19.9c-12-12-22.8-25.8-28.4-41.7c-2.5-7-3.8-13.5-3.9-19.5c-0.4-20.2,11.3-38.6,28-49.6
		C331.6,288.6,350.4,283,371,283.2z"/>
	<path class="st4" d="M760.5,364.2c-1-0.4-2.1-1-3.1-1.8c-1.1-0.9-2.1-1.5-2.9-1.9c-3.5-1.8-8.2-4.7-14.1-8.7
		c-14.7-10-29.4-18.6-44-26c-13.1-6.6-28.3-13-42.3-16.5c-30.7-7.7-60.2-3.9-90.3,4.3c-0.3,0.1-0.6-0.1-0.7-0.4c0-0.1,0-0.2,0-0.3
		l1.5-7c22.5-7.1,47.5-11.6,69.8-8.8c34.8,4.3,66.8,23.3,95.6,42.6c9.5,6.3,17.9,12.2,25.3,17.7c1,0.7,2.2,1.8,3.6,3.3
		c0.2,0.3,0.5,0.4,0.9,0.3c0.6-0.1,0.9,0.2,0.9,0.9C760.8,362.5,760.7,363.2,760.5,364.2z"/>
	<path class="st3" d="M1013.5,316.1c3.4-1.8,6.2-3.3,8.5-4.2c0.5-0.2,0.8-0.1,0.8,0.5l0,117.3c0,0.6-0.3,0.9-0.9,0.9l-51.6,0
		c-0.7,0-1.3-0.3-1.8-0.8L926.2,384c-0.2-0.3-0.2-0.5,0-0.7c13-12.3,26.3-24,39.9-35.4C980.2,336.2,995.9,325.6,1013.5,316.1z"/>
	<path class="st3" d="M1125,465.2l-8.9,3.9c-0.3,0.2-0.7,0-0.9-0.3l-1.4-2.7c-0.2-0.3,0-0.7,0.3-0.9l8.8-4.7c0.3-0.2,0.8,0,0.9,0.3
		c0,0,0,0,0,0.1l1.5,3.5C1125.5,464.7,1125.3,465.1,1125,465.2z"/>
	<path class="st3" d="M492.9,480.1c0,9-7.3,16.2-16.2,16.2s-16.2-7.3-16.2-16.2s7.3-16.2,16.2-16.2S492.9,471.1,492.9,480.1z
		 M476.9,489.4c4.7-0.1,8.4-4.4,8.3-9.5c0,0,0,0,0,0c-0.1-5.2-4-9.2-8.7-9.1c0,0,0,0,0,0c-4.7,0.1-8.4,4.4-8.3,9.5l0,0
		C468.3,485.4,472.2,489.5,476.9,489.4C476.9,489.4,476.9,489.4,476.9,489.4z"/>
	<path class="st3" d="M504.4,473.4c6.6-3.2,11.7-2.2,15.5,2.9c4.1,5.6,2.7,14.9-3.4,18.5c-3.4,2-9,2.4-12-0.9
		c-0.3-0.3-0.5-0.3-0.6,0.2l-0.2,0.9c-0.1,0.3-0.3,0.5-0.7,0.5l-5.3,0c-0.5,0-0.8-0.2-0.8-0.8l0-29.5c0-0.5,0.2-0.7,0.7-0.7l5.7,0
		c0.4,0,0.6,0.2,0.6,0.6v8C504,473.5,504.2,473.6,504.4,473.4z M508.9,490c3.2,0.3,6-2.1,6.4-5.4s-1.9-6.3-5.1-6.7c0,0,0,0,0,0
		c-3.2-0.3-6,2.1-6.4,5.4C503.5,486.7,505.8,489.7,508.9,490L508.9,490z"/>
	<path class="st3" d="M646,477.6l-2.3-0.2c-0.3,0-0.6-0.3-0.6-0.7l0-3.7c0-0.4,0.3-0.7,0.7-0.7c0,0,0,0,0,0l2.1,0
		c0.4,0,0.7-0.3,0.7-0.6c0,0,0,0,0,0l0-6.6c0-0.4,0.3-0.7,0.7-0.7l5.5,0c0.4,0,0.7,0.3,0.7,0.7v0l0,6.5c0,0.4,0.3,0.6,0.6,0.7
		l2.2,0.1c0.4,0,0.6,0.3,0.6,0.7l0,3.8c0,0.4-0.3,0.7-0.7,0.7c0,0,0,0,0,0l-2.1-0.1c-0.4,0-0.7,0.3-0.7,0.6c0,0,0,0,0,0.1l0.1,16.6
		c0,0.4-0.3,0.7-0.7,0.7c0,0,0,0,0,0l-5.5,0c-0.4,0-0.7-0.3-0.7-0.7l0-16.6C646.6,477.9,646.3,477.6,646,477.6z"/>
	<path class="st3" d="M704.1,464.5l5.7,0.1c0.3,0,0.5,0.2,0.5,0.5l0,4.2c0,0.3-0.2,0.5-0.5,0.5l-5.7-0.1c-0.3,0-0.5-0.2-0.5-0.5
		l0-4.2C703.6,464.7,703.8,464.5,704.1,464.5z"/>
	<path class="st3" d="M764.2,477.9l0.2,17.2c0,0.2-0.2,0.4-0.4,0.4l-6.8,0c-0.2,0-0.4-0.2-0.4-0.4l0-30.2c0-0.2,0.2-0.4,0.4-0.4
		l6.3,0.1c0.1,0,0.2,0.1,0.3,0.2l11.4,18.6c0.1,0.2,0.3,0.2,0.5,0.1c0.1-0.1,0.2-0.2,0.2-0.3l-0.3-18.2c0-0.2,0.2-0.4,0.4-0.4
		c0,0,0,0,0,0l6.7,0c0.2,0,0.4,0.2,0.4,0.4v30.1c0,0.2-0.2,0.4-0.4,0.4l-6.3,0c-0.1,0-0.2-0.1-0.3-0.2l-11.1-17.6
		c-0.1-0.2-0.3-0.2-0.5-0.1C764.2,477.6,764.2,477.7,764.2,477.9z"/>
	<path class="st3" d="M846,464.5l5.6,0c0.4,0,0.7,0.3,0.7,0.7l0,3.9c0,0.4-0.3,0.7-0.7,0.7l-5.6,0c-0.4,0-0.7-0.3-0.7-0.7l0-3.9
		C845.3,464.8,845.6,464.5,846,464.5z"/>
	<path class="st3" d="M942.2,464.6l6,0c0.2,0,0.4,0.2,0.4,0.4l-0.1,30c0,0.2-0.2,0.4-0.4,0.4l-6,0c-0.2,0-0.4-0.2-0.4-0.4l0.1-30
		C941.8,464.8,942,464.6,942.2,464.6z"/>
	<path class="st3" d="M983.5,493.9c-0.8,0.8-1.3,1.4-2.5,1.8c-14.8,4-20.9-15.5-9.7-22.5c3.9-2.4,7.9-2.2,12.2,0.6
		c0.3,0.2,0.5,0.1,0.5-0.3l0-8.2c0-0.3,0.3-0.6,0.6-0.6l5.7-0.1c0.3,0,0.5,0.2,0.5,0.5l0,30c0,0.4-0.2,0.5-0.5,0.5l-5.1,0
		c-0.4,0-0.6-0.2-0.8-0.6l-0.2-0.8C984.1,493.7,983.8,493.6,983.5,493.9z M984.5,484c0-3.3-2.7-6-6-6l0,0c-3.3,0-6,2.7-6,6l0,0
		c0,3.3,2.7,6,6,6c0,0,0,0,0,0C981.8,490,984.5,487.3,984.5,484L984.5,484z"/>
	<path class="st3" d="M1045.3,488.7l7.9,0c0.3,0,0.6,0.3,0.6,0.6c0,0,0,0,0,0l0,5.6c0,0.3-0.3,0.6-0.6,0.6l-15.9,0
		c-0.3,0-0.6-0.3-0.6-0.6l0-29.8c0-0.3,0.3-0.6,0.6-0.6l6.8,0c0.3,0,0.6,0.3,0.6,0.6l0,23C1044.7,488.4,1045,488.7,1045.3,488.7
		L1045.3,488.7z"/>
	<path class="st3" d="M1148.7,471.8l0-6.6c0-0.3,0.3-0.6,0.6-0.6h0l5.6,0.1c0.3,0,0.6,0.3,0.6,0.6l0,6.6c0,0.3,0.3,0.6,0.6,0.6
		c0,0,0,0,0,0l2.1,0c0.3,0,0.6,0.3,0.6,0.6c0,0,0,0,0,0l0,3.9c0,0.3-0.3,0.6-0.6,0.6c0,0,0,0,0,0l-2-0.1c-0.3,0-0.6,0.2-0.6,0.6
		c0,0,0,0,0,0v16.8c0,0.3-0.3,0.6-0.6,0.6l-5.6,0c-0.3,0-0.6-0.3-0.6-0.6c0,0,0,0,0,0l0-16.6c0-0.3-0.3-0.6-0.6-0.6l-2.4-0.1
		c-0.3,0-0.6-0.3-0.6-0.6l0.1-3.9c0-0.3,0.3-0.6,0.6-0.6l2.2,0C1148.4,472.5,1148.7,472.2,1148.7,471.8z"/>
	<path class="st3" d="M1162.4,464.6l5.8,0c0.3,0,0.5,0.2,0.5,0.5l0,4.1c0,0.3-0.2,0.5-0.5,0.5l-5.8,0c-0.3,0-0.5-0.2-0.5-0.5l0-4.1
		C1161.9,464.8,1162.2,464.6,1162.4,464.6z"/>
	<path class="st3" d="M531.4,489.1c1.6,1.2,2.3,2.5,4.6,1.4c0.3-0.1,0.5-0.3,0.6-0.6c1.7-4.9-11.3-3.2-11.5-10.8
		c-0.1-9.1,16.7-10.3,17.7-1.1c0,0.3-0.1,0.5-0.4,0.6c-2.6,0.6-5,0.3-7.2-1c-0.6-0.3-1-0.5-1.4-0.5c-0.7,0-1.2,0.3-1.4,0.9
		c-0.7,1.5,0.9,2.6,2.1,2.9c2.5,0.6,4.9,1.6,7.2,2.8c0.3,0.1,0.5,0.4,0.7,0.7c6.9,13.5-16.6,16.1-17.4,5c0-0.4,0.2-0.6,0.5-0.6
		l4.9,0C530.8,488.8,531.1,488.9,531.4,489.1z"/>
	<path class="st3" d="M581.5,473.9c1.1-1.5,2.7-2.3,4.6-2.4c0.3,0,0.6,0.2,0.6,0.5c0,0,0,0,0,0v5.9c0,0.3-0.3,0.6-0.6,0.6
		c0,0,0,0,0,0c-3.3-0.2-5,1.3-5,4.3c0,4,0,8-0.1,12c0,0.4-0.2,0.5-0.5,0.5l-5.6,0c-0.4,0-0.6-0.2-0.6-0.6l0-21.9
		c0-0.3,0.2-0.5,0.5-0.5l5.4,0c0.3,0,0.5,0.2,0.5,0.5l0,0.8c0,0.2,0.2,0.4,0.4,0.4C581.4,474.1,581.5,474,581.5,473.9z"/>
	<path class="st3" d="M632.1,494.2c-3.7,2.5-7.4,2.9-11,1.3c-10.5-4.9-8.8-21.1,2.6-23.6c3.2-0.7,5.9,0,8.2,2.1
		c0.4,0.3,0.6,0.3,0.6-0.2l0.1-0.7c0.1-0.3,0.3-0.6,0.7-0.6l5.7,0c0.4,0,0.5,0.2,0.5,0.5l0,21.9c0,0.4-0.2,0.6-0.6,0.6l-5.6,0
		c-0.4,0-0.6-0.2-0.7-0.5l-0.2-0.6C632.6,494,632.4,494,632.1,494.2z M633,484c0-3.3-2.7-6-6-6c-3.3,0-6,2.7-6,6c0,0,0,0,0,0
		c0,3.3,2.7,6,6,6h0C630.3,489.9,633,487.3,633,484z"/>
	<path class="st3" d="M739.5,483.2c0.4,6.8-4.9,12.7-11.8,13.1c0,0,0,0,0,0c-6.9,0.4-12.9-4.8-13.3-11.6c0,0,0,0,0,0
		c-0.4-6.8,4.9-12.7,11.8-13.1c0,0,0,0,0,0C733.1,471.1,739.1,476.4,739.5,483.2C739.5,483.2,739.5,483.2,739.5,483.2z M726.7,489.9
		c3.1,0.1,5.8-2.4,5.9-5.7c0.1-3.3-2.3-6.1-5.4-6.2l0,0c-3.1-0.1-5.8,2.4-5.9,5.7l0,0C721.1,487,723.6,489.8,726.7,489.9z"/>
	<path class="st3" d="M804.9,494c-1,1-1.7,1.7-3.1,2c-15.8,3.2-20-18.8-6.7-23.8c3.3-1.2,6.6-0.7,10,1.6c0.3,0.2,0.5,0.1,0.6-0.2
		l0.3-0.7c0.1-0.3,0.3-0.4,0.6-0.4h5.6c0.3,0,0.5,0.2,0.5,0.5l0,21.9c0,0.3-0.3,0.6-0.6,0.6l-5.6,0c-0.3,0-0.6-0.2-0.7-0.5l-0.2-0.8
		C805.5,493.7,805.3,493.6,804.9,494z M800.4,490c3.2-0.2,5.7-3.1,5.5-6.4s-3-5.9-6.2-5.7c0,0,0,0,0,0c-3.2,0.2-5.7,3.1-5.5,6.4
		C794.3,487.7,797.1,490.2,800.4,490C800.4,490,800.4,490,800.4,490z"/>
	<path class="st3" d="M823.9,485.6c1.3,4.8,7.1,6.1,10.2,1.6c0.2-0.3,0.5-0.4,0.9-0.5l5.3,0c0.9,0,1.2,0.4,0.8,1.2
		c-3,7.6-12.6,11.2-19.2,6.1c-11.4-8.8-2.1-26.4,11.5-21.8c3.6,1.2,6.1,3.8,7.7,7.8c0.2,0.4,0,1-0.5,1.1c-0.1,0-0.2,0.1-0.3,0.1
		l-5.2,0c-0.4,0-0.7-0.2-0.9-0.5C830.2,474.7,822.1,479.2,823.9,485.6z"/>
	<path class="st3" d="M892.2,473.9c0.7-0.4,1.3-0.8,1.9-1.2c3.7-2.8,9.6-0.5,11.3,2.7c2.4,4.2,1.3,13.9,1.4,19.5
		c0,0.3-0.2,0.6-0.5,0.6h0l-5.7,0c-0.4,0-0.6-0.2-0.6-0.6c0.1-4.4,0-8.7-0.2-12.9c-0.3-6-7.5-4.9-7.5,0c0,4.3,0,8.7,0,13
		c0,0.3-0.2,0.5-0.5,0.5l-5.8,0c-0.4,0-0.6-0.2-0.6-0.6l0-21.7c0-0.5,0.3-0.8,0.8-0.8l4.9,0c0.4,0,0.7,0.3,0.8,0.7l0,0.5
		C891.8,474,892,474.1,892.2,473.9z"/>
	<path class="st3" d="M928.8,494c-9.9,7.3-20.7-3.4-17.4-13.7c2.5-7.9,9.9-11.2,17.3-6.7c0.3,0.2,0.5,0.1,0.6-0.2
		c0.1-0.3,0.3-0.5,0.5-0.7c0.2-0.2,0.5-0.3,0.9-0.3c1.7,0,3.4,0,5.1,0.1c0.3,0,0.5,0.2,0.5,0.5l0.1,21.7c0,0.5-0.2,0.7-0.7,0.7
		l-5.6,0c-0.4,0-0.7-0.2-0.8-0.6l-0.1-0.6C929.2,493.9,929,493.8,928.8,494z M923.3,490c3.2,0.2,6-2.4,6.2-5.7
		c0.2-3.3-2.3-6.2-5.6-6.3c-3.2-0.2-6,2.4-6.2,5.7C917.5,487,920,489.8,923.3,490z"/>
	<path class="st3" d="M1001.8,486.8c0.9,2.5,2.6,3.7,5,3.8c0.8,0,2-0.4,3.6-1.2c2.2-1.1,4.7-1.4,7.4-0.8c0.3,0.1,0.4,0.3,0.2,0.5
		c-3.1,5.6-7.5,7.9-13.2,6.8c-12.8-2.3-13.2-20.1-1.2-23.9c8.8-2.8,16.1,4.8,15.6,13.3c0,0.3-0.3,0.6-0.7,0.6l-16.3,0.1
		c-0.3,0-0.5,0.2-0.5,0.5C1001.7,486.7,1001.8,486.7,1001.8,486.8z M1002,481.5h10.3c0.1,0,0.2-0.1,0.2-0.2l0,0v-0.1
		c0-2.1-2.3-3.8-5.2-3.8c0,0,0,0,0,0h-0.3c-2.9,0-5.2,1.7-5.2,3.8v0.1C1001.8,481.4,1001.9,481.5,1002,481.5L1002,481.5z"/>
	<path class="st3" d="M1101.4,493.8c-3.4,2.9-7.2,3.3-11.3,1.3c-8.8-4.4-8.4-17.6-0.2-22.2c3.8-2.1,7.5-1.9,11,0.6
		c0.4,0.3,0.6,0.2,0.8-0.2c0-0.1,0.1-0.2,0.2-0.3c0.2-0.3,0.4-0.4,0.7-0.5l5.6-0.1c0.4,0,0.5,0.2,0.5,0.5c0,4.7,0,9.4,0,14.1
		c0,6.3-0.2,10-0.6,11.4c-1.3,4.3-4.7,6.8-10.2,7.6c-4.2,0.6-13.7-1.6-13.5-7.4c0-0.3,0.2-0.5,0.5-0.6c3.6-0.7,6.8-0.1,9.6,1.8
		c0.3,0.2,0.7,0.3,1.1,0.3c4.1,0,6.2-2,6.2-6.2C1101.7,493.7,1101.6,493.6,1101.4,493.8z M1096.8,490c3.1-0.3,5.4-3.3,5-6.6
		c0,0,0,0,0,0c-0.3-3.3-3.2-5.8-6.3-5.4c0,0,0,0,0,0c-3.1,0.3-5.4,3.3-5,6.6c0,0,0,0,0,0C1090.9,487.9,1093.7,490.3,1096.8,490
		C1096.8,490,1096.8,490,1096.8,490z"/>
	<path class="st3" d="M1131.7,489.2c1.2,1.6,3.8,2.7,4.8,0.5c0.5-1,0.1-2.3-1-2.8c-0.1-0.1-0.2-0.1-0.3-0.1c-3.7-1-9.1-2.5-9.9-6.6
		c-1-5.1,3.8-8.4,8.5-8.6c4-0.2,7,1.6,9,5.4c0.3,0.6,0.1,1.3-0.5,1.6c-0.2,0.1-0.3,0.1-0.5,0.1l-4.7,0.1c-0.3,0-0.6-0.1-0.8-0.4
		c-0.9-1.3-2.1-1.6-3.6-1c-0.8,0.3-1.2,1.2-0.9,2.1c0.2,0.5,0.6,0.9,1.1,1c3.4,0.9,8.6,2.1,10.2,5.5c1.2,2.7,0.8,5.1-1.2,7.4
		c-4.5,5.1-15.1,3.8-17.1-3.8c-0.1-0.4,0.1-0.7,0.5-0.8c0.1,0,0.1,0,0.2,0l5.2,0C1131.1,488.7,1131.4,488.9,1131.7,489.2z"/>
	<path class="st3" d="M1190.5,480.8c-6.9-8.8-15.3,4.1-7.5,8.5c2.7,1.5,5.2,0.8,7.5-2.1c0.2-0.3,0.5-0.4,0.9-0.4l5.4,0
		c0.3,0,0.5,0.3,0.5,0.6c0,0,0,0.1,0,0.1c-0.9,6.1-8.5,9.6-13.8,8.8c-10.2-1.4-14.1-14.1-6.8-21.3c6.6-6.4,16.8-3.4,20.4,4.7
		c0.5,1.1,0.1,1.6-1.1,1.6l-4.8,0C1190.9,481.2,1190.7,481.1,1190.5,480.8z"/>
	<path class="st3" d="M1218.8,473.7l0.2-0.7c0.1-0.4,0.3-0.6,0.8-0.6l5.6,0.1c0.4,0,0.5,0.2,0.5,0.5l0,22c0,0.4-0.2,0.5-0.5,0.5
		l-5.8,0c-0.3,0-0.5-0.2-0.6-0.5l-0.2-0.6c-0.1-0.4-0.3-0.5-0.6-0.2c-2.5,1.8-5.2,2.5-8,2.1c-11.4-1.8-13.1-17.8-3.6-23.2
		c4.2-2.3,8.1-2.1,11.6,0.8C1218.5,474.2,1218.7,474.1,1218.8,473.7z M1213.1,490.1c3.2,0,5.9-2.7,5.9-6c0,0,0,0,0,0
		c0-3.4-2.5-6.1-5.8-6.2c-3.2,0-5.9,2.7-5.9,6v0C1207.2,487.3,1209.8,490,1213.1,490.1z"/>
	<path class="st3" d="M553.7,486.3c-0.5,0.7-0.5,1.3-0.2,1.7c2.6,3.3,5.6,3.6,9,0.8c0.3-0.2,0.6-0.3,0.9-0.3l5.1-0.1
		c0.5,0,0.9,0.4,0.9,0.8c0,0.2,0,0.3-0.1,0.5c-3.9,5.9-10.1,8.4-16.6,5.2c-2.7-1.3-4.6-3.5-5.7-6.5c-3.9-10.2,6.7-20.7,17.1-15.4
		c4.6,2.3,6.8,6.5,6.5,12.5c0,0.3-0.3,0.6-0.6,0.6c-5,0-9.8,0-14.6-0.2C554.4,485.8,553.9,486,553.7,486.3z M553.2,481.5l10,0
		c0.1,0,0.1-0.1,0.1-0.1v0v-0.1c0-2.1-2.3-3.9-5.1-3.9c0,0,0,0,0,0h-0.2c-2.8,0-5.1,1.7-5.1,3.9v0.1
		C553.1,481.4,553.2,481.5,553.2,481.5z"/>
	<path class="st3" d="M683.3,483.5c0.2,6.8-5.2,12.6-12.1,12.8l0,0c-6.9,0.2-12.8-5.1-13-11.9v0c-0.2-6.8,5.2-12.6,12.1-12.8
		c0,0,0,0,0,0C677.3,471.3,683.1,476.7,683.3,483.5z M670.6,489.9c3.1,0.1,5.7-2.5,5.8-5.8c0,0,0,0,0,0c0.1-3.3-2.4-6-5.5-6.1h0
		c-3.1-0.1-5.7,2.5-5.8,5.8c0,0,0,0,0,0C665,487.1,667.5,489.8,670.6,489.9C670.6,489.9,670.6,489.9,670.6,489.9z"/>
	<path class="st3" d="M694.5,473.9c1.1-1.5,2.6-2.2,4.5-2.3c0.3,0,0.6,0.2,0.6,0.5c0,0,0,0,0,0l0.1,5.5c0,0.4-0.3,0.7-0.7,0.7
		c0,0,0,0,0,0c-1.7,0-3.2,0.6-4.4,1.8c-0.2,0.2-0.4,0.6-0.4,0.9l-0.2,13.7c0,0.4-0.2,0.7-0.7,0.7l-5.5,0c-0.4,0-0.7-0.3-0.7-0.6
		c0,0,0,0,0,0v-21.9c0-0.3,0.2-0.5,0.5-0.5l5.2,0c0.3,0,0.6,0.2,0.6,0.5l0.2,0.8c0.1,0.2,0.3,0.4,0.5,0.3
		C694.4,474.1,694.5,474,694.5,473.9z"/>
	<path class="st3" d="M881.2,483.9c0,6.9-5.6,12.5-12.5,12.5c0,0,0,0,0,0c-6.9,0-12.5-5.6-12.5-12.5s5.6-12.5,12.5-12.5
		C875.6,471.4,881.2,477,881.2,483.9L881.2,483.9z M868.8,490c3.1,0,5.6-2.8,5.5-6.1c0,0,0,0,0,0c0-3.3-2.6-6-5.7-5.9c0,0,0,0,0,0
		c-3.1,0-5.6,2.8-5.5,6.1c0,0,0,0,0,0C863.1,487.3,865.7,490,868.8,490L868.8,490z"/>
	<path class="st3" d="M1080.6,484c0,6.9-5.6,12.5-12.5,12.5l0,0c-6.9,0-12.5-5.6-12.5-12.5l0,0c0-6.9,5.6-12.5,12.5-12.5
		S1080.6,477.1,1080.6,484z M1068.1,490c3.1,0,5.6-2.6,5.7-5.9c0,0,0,0,0,0c0-3.3-2.5-6-5.5-6l0,0c-3.1,0-5.6,2.6-5.7,5.9v0
		C1062.5,487.2,1065,489.9,1068.1,490L1068.1,490z"/>
	<path class="st3" d="M704.2,472.4l5.7,0c0.3,0,0.6,0.3,0.6,0.6l0,21.9c0,0.3-0.3,0.6-0.6,0.6l-5.7,0c-0.3,0-0.6-0.3-0.6-0.6l0-21.9
		C703.6,472.6,703.8,472.4,704.2,472.4z"/>
	<path class="st3" d="M845.8,472.4l6,0c0.3,0,0.5,0.2,0.5,0.5l0,22.1c0,0.3-0.2,0.5-0.5,0.5l-6,0c-0.3,0-0.5-0.2-0.5-0.5l0-22.1
		C845.3,472.6,845.5,472.4,845.8,472.4z"/>
	<path class="st3" d="M1114.8,472.4h5.8c0.3,0,0.5,0.2,0.5,0.5V495c0,0.3-0.2,0.5-0.5,0.5h-5.8c-0.3,0-0.5-0.2-0.5-0.5v-22.1
		C1114.3,472.6,1114.5,472.4,1114.8,472.4z"/>
	<path class="st3" d="M1162.4,472.4l5.9,0c0.3,0,0.5,0.2,0.5,0.5l0,22.1c0,0.3-0.2,0.5-0.5,0.5l-5.9,0c-0.3,0-0.5-0.2-0.5-0.5
		l0-22.1C1161.9,472.6,1162.1,472.4,1162.4,472.4z"/>
	<path class="st3" d="M601.6,486l4.1-13.4c0-0.1,0.2-0.3,0.3-0.2l6.4,0.1c0.2,0,0.3,0.2,0.3,0.4c0,0,0,0.1,0,0.1l-8.1,22.3
		c0,0.1-0.2,0.2-0.3,0.2l-6.2,0c-0.1,0-0.3-0.1-0.3-0.2l-8-22.4c-0.1-0.2,0-0.4,0.2-0.4c0,0,0.1,0,0.1,0l6.2,0
		c0.2,0,0.3,0.1,0.3,0.2l4.2,13.3c0.1,0.2,0.3,0.3,0.4,0.2C601.4,486.2,601.5,486.1,601.6,486z"/>
</g>
</svg>
