<svg width="560" height="235" viewBox="0 0 560 235" fill="none" xmlns="http://www.w3.org/2000/svg">
<rect width="560" height="235" fill="white"/>
<path d="M111.904 13.029C108.99 13.6486 106.296 14.4451 103.867 15.463C103.116 15.5072 102.763 15.7728 102.807 16.2596L102.41 16.5251C101.88 16.6578 101.35 16.9676 100.776 17.4102C99.4513 18.5165 98.3473 19.7999 97.5083 21.2603C95.4328 23.9156 93.8873 26.7921 92.8716 29.9341L91.856 31.7043C91.7677 31.8371 91.6793 31.9256 91.5027 31.9698C84.7023 34.3596 76.6654 38.0327 74.8108 45.9099C74.1925 48.6095 74.59 52.5038 74.325 55.3361C73.8834 59.8058 71.9846 63.3461 68.5844 65.9129C64.9192 68.6567 58.5604 68.6124 54.3212 68.7452C49.9053 68.9222 44.6063 69.3205 42.9283 74.277C42.6192 69.2762 48.2273 63.9215 52.2457 61.7087C52.3782 61.6202 52.4665 61.576 52.5107 61.4875C52.6432 61.2662 52.6432 61.1777 52.5107 61.0892C57.324 59.0535 61.5632 54.6723 62.4905 49.3175C62.623 48.4324 62.6672 46.6623 62.4905 44.0513C62.3139 41.0862 62.2256 37.9884 63.1087 35.2447C66.7297 23.9598 78.211 22.1454 88.6766 24.1368C90.3987 24.4466 92.0326 23.9156 93.534 22.4994C99.0097 17.2774 103.602 12.5864 111.904 13.029Z" fill="#00DEB6"/>
<path d="M111.905 13.0291C113.759 13.0733 115.658 13.2946 117.513 13.7814C117.733 13.8256 117.866 14.0469 117.822 14.2682C117.778 14.4452 117.645 14.578 117.469 14.578C111.816 14.8435 107.621 17.1005 104.883 21.3489C103.647 23.2961 102.675 26.0841 102.013 29.6687C100.732 36.6166 100.688 43.5645 101.881 50.5125C106.959 79.8088 138.621 76.9323 159.993 76.7995C163.658 76.7553 166.705 77.1093 169.09 77.7731C172.667 78.791 174.212 82.2871 172.446 85.6061C171.474 87.3763 170.282 89.2792 169.708 91.0494C167.5 97.6433 170.15 106.096 173.815 111.805C178.584 119.239 185.208 124.771 193.642 128.312L194.216 133.534C192.538 132.87 190.683 132.383 189.138 131.675C184.766 129.639 180.571 127.338 176.509 124.727C173.638 122.913 171.519 121.718 170.194 121.142C165.425 119.062 160.435 118.045 155.224 118.089C154.429 116.274 153.723 114.637 153.105 112.646C150.808 104.945 147.187 98.0858 141.005 92.8196C134.293 87.0665 124.225 83.7917 115.791 79.9858C112.258 78.3927 109.652 77.0208 107.974 75.8702C94.0645 66.267 88.368 45.91 92.9164 30.067C93.932 26.9249 95.4776 24.0484 97.553 21.3931C98.9661 19.4459 100.6 17.8528 102.455 16.6137L102.852 16.3481L103.912 15.5515C106.296 14.4452 108.99 13.6044 111.905 13.0291Z" fill="#FF5910"/>
<path d="M103.911 15.4629L102.851 16.2595C102.763 15.7727 103.116 15.5071 103.911 15.4629Z" fill="#FFB900"/>
<path d="M102.409 16.5251C100.555 17.7643 98.9209 19.3574 97.5078 21.3046C98.3468 19.8442 99.4508 18.5608 100.776 17.4545C101.35 16.9677 101.88 16.6579 102.409 16.5251Z" fill="#FFB900"/>
<path d="M52.5112 61.1335C52.6437 61.1778 52.6437 61.3106 52.5112 61.5318C52.467 61.6203 52.3787 61.7089 52.2462 61.7531C48.272 63.9658 42.6197 69.3206 42.9288 74.3213C41.6923 82.5969 49.685 90.6512 55.1607 95.6962C56.7946 97.2008 57.9427 98.4399 58.6492 99.4135C64.9198 108.397 66.5095 122.868 60.813 132.472C58.3401 136.631 54.1009 140.039 53.2619 145.305C52.1579 152.386 64.434 149.952 67.8784 149.332C70.3954 148.89 72.1618 148.713 73.2216 148.801C81.965 149.554 82.6715 159.953 85.1886 166.946C87.264 172.699 89.207 176.328 95.9191 177.611C99.9817 178.363 103.249 178.85 105.766 179.027C115.835 179.735 126.124 179.779 135.706 182.567C137.737 183.143 139.769 184.161 141.844 185.532C144.405 187.258 146.348 189.56 147.629 192.436C148.159 194.87 148.424 196.552 148.468 197.525C148.689 201.995 148.159 206.199 146.834 210.138C145.597 213.811 143.39 217.13 140.21 220.051C138.974 221.334 137.561 222.308 135.927 222.972C135.662 223.06 135.397 222.927 135.309 222.706C135.264 222.573 135.264 222.396 135.353 222.264C144.229 207.217 136.545 193.675 121.31 188.497C119.897 188.011 117.292 187.391 113.494 186.683C108.46 185.709 103.426 184.603 98.4361 183.452C92.4747 182.081 86.3808 180.045 82.0974 175.442C80.6402 173.894 79.183 171.327 77.8141 169.822C71.5435 163.007 62.8443 163.14 54.3659 164.29C49.7734 164.91 45.5783 165.308 41.7807 165.441C34.627 165.707 29.7695 162.52 27.2966 155.838C26.2368 153.05 28.224 149.509 29.9903 147.297C33.0373 143.535 36.04 139.818 39.087 136.056C42.3547 132.029 45.2692 127.781 46.2407 122.78C47.5213 116.009 45.225 109.636 42.4872 103.529C37.4531 92.4214 29.3721 77.0651 41.2949 66.7538C44.2977 64.0986 48.0953 62.2399 52.5112 61.1335Z" fill="#0032B3"/>
<path d="M233.34 123.709C233.208 126.099 233.429 128.621 234.091 131.365C236.917 144.287 248.531 154.2 261.955 151.589C270.566 149.908 277.19 143.623 280.281 135.392C280.325 135.259 280.502 135.171 280.634 135.215C292.91 138.932 304.701 145.615 315.387 152.74C315.52 152.828 315.608 153.05 315.52 153.182C296.134 189.781 245.661 197.746 214.705 171.415C205.476 163.582 199.162 153.802 195.761 142.119L194.128 133.622L193.554 128.4C191.125 85.429 229.234 55.9999 270.08 63.3018C284.167 65.8243 297.856 72.9935 307.262 83.9243C318.522 96.9351 323.38 112.424 321.923 130.303C321.923 130.391 321.834 130.436 321.79 130.436C321.658 130.391 321.525 130.347 321.393 130.259C308.587 121.408 294.942 114.77 279.663 112.468C279.53 112.468 279.442 112.38 279.398 112.247C272.774 97.9087 255.376 92.2884 242.923 103.219C237.094 108.308 233.914 115.124 233.34 123.709Z" fill="#0032B3"/>
<path d="M364.181 161.015L364.27 172.256L364.314 183.054C364.314 183.231 364.181 183.364 364.005 183.364H327.486C327.353 183.364 327.221 183.231 327.221 183.098V65.9129C327.221 65.6031 327.397 65.4261 327.706 65.4261L360.693 65.3818C361.046 65.3818 361.399 65.5146 361.62 65.7801C372.395 77.419 383.17 89.1022 393.944 100.874C398.184 105.476 402.202 110.256 406.088 115.212C406.132 115.301 406.265 115.301 406.353 115.256C406.397 115.212 406.397 115.168 406.441 115.168C406.485 114.947 406.485 114.725 406.485 114.46C406 109.68 405.735 104.901 405.691 100.077C405.646 88.6154 405.602 77.1535 405.558 65.6474C405.558 65.4703 405.646 65.4261 405.779 65.4261H442.475C442.74 65.4261 442.872 65.5589 442.872 65.8244V119.284C442.872 119.549 442.74 119.77 442.475 119.859C431.435 124.284 421.146 130.126 411.564 137.428C405.205 142.252 398.581 147.828 391.957 153.271C391.869 153.359 391.736 153.315 391.648 153.227C381.977 143.137 372.748 132.648 363.916 121.85C363.872 121.806 363.784 121.762 363.74 121.85C363.696 121.895 363.696 121.939 363.696 121.983C364.27 134.994 364.491 148.049 364.181 161.015Z" fill="#0032B3"/>
<path d="M495.73 108.574C482.615 109.371 469.941 111.539 457.179 114.814C456.959 114.858 456.826 114.77 456.826 114.548V65.6473C456.826 65.5145 456.914 65.426 457.047 65.426H495.686C495.907 65.426 496.039 65.603 496.039 65.7801V108.264C496.083 108.441 495.951 108.574 495.73 108.574Z" fill="#0032B3"/>
<path d="M532.912 112.468C532.205 112.159 531.543 111.982 531.013 111.982C525.405 111.982 519.797 112.026 514.188 112.203C514.056 112.203 513.923 112.291 513.879 112.424C513.703 112.778 513.614 113.132 513.703 113.531C498.512 113.265 483.719 114.681 469.323 117.823C452.72 121.408 436.867 127.78 422.957 137.87C416.421 142.65 410.504 147.562 404.278 153.138C398.095 158.714 392.487 163.803 385.819 168.008C379.284 172.123 372.086 173.539 364.27 172.3L364.182 161.06C366.257 161.591 368.421 162.299 370.276 162.564C376.943 163.538 383.214 162.122 389.043 158.227C396.682 153.138 403.174 147.208 410.195 141.588C423.442 130.967 438.147 123.222 454.398 118.354C473.298 112.645 493.257 110.477 513.173 110.61C513.57 110.61 513.747 110.433 513.747 110.034C513.791 106.361 513.791 102.6 513.747 98.7054C513.703 96.0501 515.646 94.2357 517.898 96.5812C521.298 100.077 526.155 104.945 532.514 111.141C532.779 111.318 532.912 111.76 532.912 112.468Z" fill="#FF5910"/>
<path d="M532.912 112.469C527.79 117.735 522.579 122.913 517.324 128.046C515.955 129.374 513.88 127.913 513.88 126.276C513.88 121.939 513.836 117.691 513.703 113.486C513.659 113.088 513.703 112.734 513.88 112.38C513.968 112.247 514.057 112.203 514.189 112.159C519.797 112.026 525.405 111.938 531.014 111.938C531.543 111.982 532.162 112.159 532.912 112.469Z" fill="#FFD300"/>
<path d="M327.132 138.446V154.554C327.088 154.112 327.044 153.979 326.999 154.245C327.088 153.802 327.088 153.492 327.088 153.227C327.088 152.917 326.955 152.784 326.69 152.828C326.514 152.873 326.381 152.828 326.293 152.696C325.63 152.032 325.101 151.545 324.703 151.235C321.435 148.801 317.726 146.19 313.531 143.402C300.813 134.861 286.683 126.453 271.315 124.55C261.468 123.311 250.428 125.302 240.493 128.444C238.991 128.754 235.9 129.285 234.752 130.214C234.62 130.303 234.575 130.436 234.575 130.568C234.575 130.967 234.443 131.232 234.178 131.454C233.516 128.71 233.295 126.187 233.427 123.798C241.862 119.77 250.34 117.204 258.951 116.053C284.254 112.734 307.128 124.019 327.132 138.446Z" fill="#FF5910"/>
<path d="M496.349 151.766H532.559C532.78 151.766 533.001 151.943 533.001 152.209V183.143C533.001 183.231 532.912 183.32 532.824 183.32H457.048C456.959 183.32 456.871 183.231 456.871 183.143V125.258C456.871 125.081 456.959 124.948 457.136 124.904C469.721 120.877 482.571 118.443 495.775 117.513C495.996 117.513 496.128 117.602 496.128 117.823V151.456C496.04 151.634 496.172 151.766 496.349 151.766Z" fill="#0032B3"/>
<path d="M155.179 117.956C160.39 117.912 165.38 118.93 170.149 121.01C171.474 121.585 173.549 122.78 176.464 124.594C180.526 127.161 184.765 129.462 189.093 131.542C190.639 132.25 192.493 132.781 194.171 133.401L195.805 141.898C190.064 142.252 184.368 141.853 178.716 140.703C178.053 140.172 177.258 139.862 176.287 139.685C176.155 139.685 176.066 139.596 176.022 139.464L175.757 138.888C175.713 138.755 175.58 138.623 175.492 138.534C174.83 138.092 174.123 137.826 173.373 137.693C172.18 137.472 170.944 136.897 169.972 136.144C167.19 134.153 164.364 132.383 162.333 129.683C159.463 125.833 157.034 123.001 155.532 118.531C155.488 118.398 155.4 118.31 155.268 118.221C154.826 118.044 154.738 118 155.003 118C154.958 117.823 155.003 117.779 155.179 117.956Z" fill="#FFB900"/>
<path d="M155.002 118.089C154.737 118.044 154.825 118.133 155.267 118.31C155.399 118.354 155.488 118.443 155.532 118.62C157.033 123.089 159.462 125.922 162.332 129.772C164.364 132.516 167.234 134.241 169.972 136.233C170.943 136.941 172.18 137.561 173.372 137.782C174.123 137.915 174.829 138.224 175.492 138.623C175.624 138.711 175.712 138.8 175.757 138.977L176.021 139.552C176.066 139.685 176.154 139.729 176.286 139.773C177.214 139.906 178.053 140.26 178.715 140.791C173.063 139.729 167.764 137.738 162.862 134.817C161.052 133.755 159.727 133.091 158.8 132.825C148.952 130.037 141.092 139.596 139.193 148.049C138.001 153.271 138.178 159.024 140.297 163.936C145.42 175.841 158.8 188.409 154.87 202.482C153.103 208.81 148.511 214.342 143.432 218.369C142.417 219.166 141.313 219.564 140.121 220.095C143.3 217.174 145.508 213.855 146.744 210.182C148.069 206.243 148.599 202.039 148.378 197.569C148.334 196.596 148.069 194.914 147.539 192.48C146.568 189.028 144.625 185.975 141.71 183.275C138.619 180.399 134.689 177.212 131.951 174.469C126.652 169.158 121.883 163.051 119.41 156.015C118.306 152.917 117.732 150.04 117.688 147.385C117.511 138.446 122.678 130.303 130.052 125.435C137.604 120.478 145.905 118 155.002 118.089Z" fill="#FFD300"/>
<path d="M327.001 153.935C326.559 153.758 326.074 153.492 325.632 153.138C325.146 152.74 324.705 152.474 324.352 152.297C322.806 151.501 320.731 150.217 318.125 148.447C311.634 144.022 305.143 140.216 298.695 136.941C292.911 134.02 286.199 131.188 280.016 129.639C266.46 126.232 253.433 127.913 240.141 131.542C240.009 131.586 239.876 131.498 239.832 131.365V131.232L240.494 128.135C250.43 124.992 261.47 123.001 271.317 124.24C286.684 126.143 300.815 134.551 313.533 143.092C317.728 145.88 321.437 148.491 324.705 150.925C325.146 151.235 325.676 151.722 326.295 152.386C326.383 152.519 326.515 152.563 326.692 152.519C326.957 152.474 327.089 152.607 327.089 152.917C327.134 153.182 327.089 153.492 327.001 153.935Z" fill="#FFD300"/>
<path d="M438.722 132.648C440.224 131.852 441.46 131.188 442.476 130.79C442.696 130.701 442.829 130.745 442.829 131.011V182.921C442.829 183.187 442.696 183.32 442.431 183.32H419.646C419.337 183.32 419.072 183.187 418.851 182.966L400.172 162.697C400.083 162.564 400.083 162.476 400.172 162.387C405.912 156.944 411.785 151.766 417.791 146.721C424.017 141.544 430.95 136.853 438.722 132.648Z" fill="#0032B3"/>
<path d="M31.4385 40.6376C31.2978 40.4849 30.7207 38.1535 31.1655 37.6953C31.7284 37.119 32.2914 37.6953 32.0015 36.3467C31.6806 34.8482 32.5504 33.2286 31.7312 33.122C31.4441 33.0845 30.8136 33.2171 31.1289 31.9981C31.4441 30.7791 32.2801 30.0299 31.8635 29.54C31.447 29.0501 31.3653 27.9723 31.9705 27.5026C32.5757 27.0328 33.0317 26.4363 33.0852 25.4392C33.1386 24.4421 33.893 23.0128 34.9232 22.4307C35.9534 21.8486 36.7247 21.8572 36.6543 22.4364C36.5164 23.5776 38.3122 23.6237 38.6444 23.8629C39.0497 24.154 39.3312 24.4421 38.1997 24.3009C36.522 24.0906 36.8429 24.5545 36.6797 25.6525C36.5164 26.7504 35.5143 26.7764 35.6016 27.3931C35.672 27.9031 35.8774 27.8974 36.0548 29.053C36.2321 30.2085 35.9872 30.0039 35.6889 30.5399C35.3905 31.0759 35.5819 31.8915 35.3454 32.9231C35.109 33.9548 34.425 33.9202 34.4841 35.0902C34.5432 36.2602 34.076 37.655 33.4652 38.5426C32.8966 39.3696 32.6151 41.9286 31.4413 40.6434L31.4385 40.6376Z" fill="#3D4696"/>
<path d="M46.8047 31.2599C46.7314 31.129 46.7473 30.9675 46.8652 30.8617C46.9926 30.7503 47.1009 30.5192 46.9353 30.0514C46.6454 29.2271 45.7789 29.2661 46.0528 28.8289C46.3268 28.3917 46.6231 28.4112 46.4733 27.7039C46.3236 26.9966 46.4893 26.0638 46.8843 25.4178C47.2793 24.7717 47.8177 24.0811 48.3433 23.7303C48.869 23.3794 49.1907 24.2176 49.9872 23.9391C50.7836 23.6607 51.0608 22.3018 50.7613 22.1458C50.4618 21.9899 50.1433 21.9899 49.5029 21.8562C49.1653 21.7866 48.235 21.1545 48.9741 20.5447C49.4042 20.1882 50.6848 19.6731 50.5733 20.2746C50.4618 20.876 50.5542 20.6755 50.7804 20.876C51.099 21.1545 50.4395 21.3132 50.7677 21.5109C51.0958 21.7086 51.1786 22.3213 51.306 21.5527C51.4175 20.8732 51.5736 20.8148 51.7584 21.3717C52.0547 22.2656 51.2965 22.4438 52.1534 22.3547C53.0104 22.2656 54.9218 22.2656 54.2847 22.8225C53.4723 23.5326 53.2557 23.4824 52.883 24.1452C52.6281 24.5991 52.8161 24.8692 53.0709 25.0279C53.3067 25.1755 53.6093 25.2173 53.8992 25.1839C54.0999 25.1616 54.7753 25.1978 54.9218 25.3287C55.2404 25.6071 54.5236 26.1808 53.8865 26.1724C53.0104 26.164 53.0837 26.203 53.2047 26.7405C53.3258 27.2779 53.6698 28.3778 53.1792 28.8011C52.6886 29.2244 52.5453 29.7144 51.6628 29.8871C50.7804 30.0597 49.8215 30.3382 49.4392 31.349C49.2991 31.7166 48.2287 32.2874 47.3526 31.8252C47.1455 31.7166 46.9193 31.4827 46.7951 31.2543L46.8047 31.2599Z" fill="#3D4696"/>
<path d="M227.814 202.988C227.814 203.924 227.652 204.789 227.329 205.575C227.006 206.364 226.558 207.042 225.984 207.617C225.41 208.191 224.735 208.639 223.953 208.962C223.171 209.285 222.324 209.45 221.409 209.45C220.494 209.45 219.647 209.289 218.865 208.962C218.082 208.639 217.404 208.191 216.834 207.617C216.259 207.042 215.811 206.364 215.488 205.575C215.165 204.789 215 203.924 215 202.988C215 202.051 215.161 201.186 215.488 200.4C215.811 199.615 216.259 198.933 216.834 198.359C217.408 197.785 218.086 197.336 218.865 197.013C219.647 196.69 220.494 196.525 221.409 196.525C222.324 196.525 223.171 196.687 223.953 197.013C224.735 197.336 225.413 197.785 225.984 198.359C226.558 198.933 227.006 199.611 227.329 200.4C227.652 201.19 227.814 202.051 227.814 202.988ZM226.457 202.988C226.457 202.281 226.343 201.606 226.109 200.964C225.876 200.322 225.546 199.758 225.112 199.27C224.678 198.786 224.147 198.395 223.522 198.108C222.898 197.817 222.191 197.673 221.405 197.673C220.619 197.673 219.912 197.817 219.284 198.108C218.656 198.398 218.129 198.786 217.695 199.27C217.261 199.758 216.927 200.322 216.697 200.964C216.464 201.606 216.349 202.281 216.349 202.988C216.349 203.695 216.464 204.369 216.697 205.011C216.931 205.654 217.261 206.217 217.695 206.705C218.129 207.193 218.66 207.581 219.284 207.868C219.909 208.155 220.616 208.302 221.405 208.302C222.195 208.302 222.898 208.158 223.522 207.868C224.147 207.577 224.678 207.19 225.112 206.705C225.546 206.217 225.88 205.654 226.109 205.011C226.343 204.369 226.457 203.695 226.457 202.988Z" fill="#3D4696"/>
<path d="M231.322 196.005H232.467V202.363H232.503C232.689 202.087 232.908 201.847 233.163 201.653C233.418 201.455 233.683 201.294 233.963 201.165C234.24 201.039 234.527 200.946 234.824 200.889C235.119 200.831 235.399 200.802 235.668 200.802C236.303 200.802 236.888 200.91 237.412 201.125C237.939 201.341 238.391 201.639 238.775 202.019C239.155 202.399 239.457 202.851 239.669 203.375C239.884 203.896 239.992 204.462 239.992 205.076C239.992 205.69 239.884 206.257 239.669 206.777C239.453 207.297 239.155 207.749 238.775 208.133C238.395 208.517 237.939 208.815 237.412 209.027C236.884 209.242 236.303 209.35 235.668 209.35C235.402 209.35 235.122 209.321 234.824 209.264C234.53 209.206 234.243 209.113 233.963 208.987C233.687 208.862 233.418 208.697 233.163 208.499C232.908 208.302 232.689 208.065 232.503 207.789H232.467V209.145H231.322V196.016V196.005ZM238.739 205.072C238.739 204.62 238.667 204.197 238.524 203.806C238.38 203.411 238.172 203.07 237.907 202.78C237.641 202.489 237.318 202.263 236.942 202.094C236.565 201.926 236.141 201.843 235.664 201.843C235.187 201.843 234.756 201.926 234.362 202.094C233.967 202.263 233.626 202.493 233.335 202.78C233.045 203.07 232.819 203.411 232.657 203.806C232.496 204.201 232.413 204.62 232.413 205.072C232.413 205.525 232.496 205.948 232.657 206.339C232.819 206.734 233.045 207.075 233.335 207.365C233.626 207.656 233.967 207.886 234.362 208.051C234.756 208.219 235.19 208.302 235.664 208.302C236.138 208.302 236.565 208.219 236.942 208.051C237.318 207.882 237.638 207.656 237.907 207.365C238.172 207.075 238.377 206.734 238.524 206.339C238.667 205.944 238.739 205.525 238.739 205.072Z" fill="#3D4696"/>
<path d="M247.666 202.938C247.494 202.601 247.26 202.335 246.97 202.138C246.679 201.94 246.327 201.843 245.911 201.843C245.714 201.843 245.513 201.869 245.312 201.912C245.111 201.958 244.928 202.03 244.766 202.131C244.605 202.227 244.472 202.353 244.375 202.504C244.278 202.654 244.228 202.841 244.228 203.06C244.228 203.444 244.361 203.72 244.627 203.892C244.892 204.065 245.29 204.215 245.825 204.344L246.988 204.621C247.555 204.75 248.028 205.005 248.401 205.392C248.778 205.78 248.965 206.264 248.965 206.842C248.965 207.283 248.875 207.66 248.696 207.979C248.516 208.299 248.279 208.557 247.985 208.762C247.691 208.966 247.35 209.113 246.97 209.203C246.589 209.293 246.198 209.343 245.807 209.343C245.183 209.343 244.601 209.225 244.063 208.988C243.525 208.751 243.066 208.342 242.682 207.764L243.672 207.086C243.905 207.456 244.196 207.753 244.548 207.972C244.899 208.191 245.319 208.302 245.807 208.302C246.04 208.302 246.27 208.277 246.503 208.223C246.736 208.17 246.941 208.091 247.12 207.979C247.3 207.868 247.443 207.728 247.555 207.552C247.666 207.38 247.72 207.176 247.72 206.946C247.72 206.541 247.569 206.25 247.267 206.07C246.966 205.891 246.6 205.747 246.173 205.643L245.061 205.381C244.921 205.346 244.734 205.288 244.497 205.209C244.26 205.13 244.027 205.008 243.801 204.843C243.575 204.678 243.381 204.47 243.22 204.208C243.058 203.946 242.976 203.627 242.976 203.243C242.976 202.827 243.058 202.461 243.227 202.148C243.396 201.836 243.622 201.581 243.905 201.384C244.189 201.187 244.512 201.04 244.871 200.943C245.229 200.846 245.599 200.796 245.983 200.796C246.55 200.796 247.077 200.907 247.562 201.126C248.05 201.345 248.423 201.721 248.692 202.256L247.666 202.934V202.938Z" fill="#3D4696"/>
<path d="M252.984 205.385C253.02 205.79 253.117 206.174 253.279 206.529C253.44 206.888 253.655 207.197 253.921 207.459C254.186 207.721 254.495 207.925 254.843 208.076C255.191 208.227 255.568 208.302 255.973 208.302C256.587 208.302 257.118 208.162 257.563 207.875C258.008 207.592 258.349 207.265 258.578 206.892L259.465 207.62C258.98 208.234 258.442 208.675 257.857 208.941C257.272 209.206 256.644 209.339 255.973 209.339C255.371 209.339 254.811 209.231 254.298 209.016C253.781 208.801 253.34 208.503 252.97 208.123C252.6 207.742 252.306 207.29 252.094 206.766C251.879 206.246 251.771 205.679 251.771 205.065C251.771 204.452 251.876 203.885 252.084 203.365C252.292 202.844 252.582 202.392 252.952 202.008C253.322 201.624 253.756 201.326 254.255 201.115C254.753 200.899 255.292 200.792 255.869 200.792C256.483 200.792 257.032 200.903 257.52 201.122C258.004 201.341 258.413 201.635 258.744 201.997C259.074 202.363 259.325 202.79 259.501 203.282C259.673 203.774 259.763 204.298 259.763 204.854V205.374H252.988L252.984 205.385ZM258.507 204.448C258.507 203.673 258.273 203.045 257.811 202.564C257.348 202.084 256.698 201.843 255.866 201.843C255.496 201.843 255.137 201.915 254.789 202.062C254.441 202.206 254.136 202.399 253.878 202.643C253.619 202.887 253.408 203.164 253.253 203.476C253.099 203.788 253.02 204.115 253.02 204.448H258.51H258.507Z" fill="#3D4696"/>
<path d="M263.383 203.544C263.383 203.186 263.375 202.82 263.358 202.45C263.34 202.08 263.325 201.6 263.314 201.007H264.445V202.518H264.481C264.563 202.299 264.678 202.088 264.829 201.883C264.979 201.682 265.162 201.499 265.374 201.338C265.589 201.176 265.837 201.047 266.12 200.946C266.404 200.85 266.727 200.799 267.086 200.799C267.409 200.799 267.692 200.835 267.936 200.903L267.71 202.034C267.559 201.976 267.341 201.948 267.05 201.948C266.608 201.948 266.235 202.03 265.92 202.199C265.604 202.367 265.345 202.579 265.137 202.841C264.929 203.103 264.775 203.383 264.678 203.684C264.581 203.986 264.531 204.276 264.531 204.553V209.139H263.386V203.544H263.383Z" fill="#3D4696"/>
<path d="M274.027 209.138H272.743L269.441 201.011H270.798L273.403 207.854H273.439L276.026 201.011H277.328L274.027 209.138Z" fill="#3D4696"/>
<path d="M285.459 204.154V203.946C285.459 202.547 284.763 201.843 283.374 201.843C282.423 201.843 281.598 202.163 280.891 202.798L280.195 201.98C280.959 201.194 282.104 200.799 283.632 200.799C284.027 200.799 284.404 200.857 284.77 200.972C285.136 201.086 285.452 201.266 285.717 201.503C285.983 201.739 286.198 202.037 286.359 202.396C286.521 202.755 286.603 203.182 286.603 203.681V207.312C286.603 207.624 286.618 207.951 286.647 208.292C286.675 208.633 286.708 208.916 286.743 209.135H285.631C285.595 208.938 285.57 208.722 285.552 208.493C285.534 208.263 285.527 208.037 285.527 207.814H285.491C285.154 208.36 284.759 208.751 284.303 208.988C283.844 209.225 283.288 209.343 282.628 209.343C282.269 209.343 281.921 209.293 281.587 209.196C281.25 209.099 280.952 208.948 280.694 208.744C280.435 208.539 280.223 208.292 280.069 207.997C279.911 207.703 279.836 207.359 279.836 206.964C279.836 206.304 280.008 205.787 280.349 205.41C280.69 205.033 281.121 204.754 281.634 204.567C282.15 204.38 282.699 204.266 283.284 204.219C283.869 204.172 284.404 204.151 284.892 204.151H285.466L285.459 204.154ZM284.867 205.091C284.576 205.091 284.217 205.105 283.783 205.134C283.349 205.163 282.933 205.234 282.534 205.342C282.136 205.453 281.792 205.622 281.508 205.855C281.225 206.088 281.081 206.404 281.081 206.81C281.081 207.075 281.135 207.305 281.246 207.495C281.357 207.685 281.505 207.843 281.688 207.965C281.874 208.087 282.079 208.173 282.305 208.227C282.531 208.281 282.76 208.306 282.99 208.306C283.406 208.306 283.769 208.238 284.074 208.098C284.379 207.958 284.637 207.771 284.845 207.535C285.053 207.298 285.208 207.018 285.305 206.702C285.401 206.383 285.452 206.045 285.452 205.687V205.094H284.86L284.867 205.091Z" fill="#3D4696"/>
<path d="M294.89 202.051H292.547V206.845C292.547 207.147 292.575 207.391 292.633 207.585C292.69 207.775 292.773 207.922 292.877 208.026C292.981 208.13 293.106 208.202 293.25 208.241C293.394 208.281 293.555 208.302 293.727 208.302C293.925 208.302 294.126 208.274 294.334 208.216C294.542 208.159 294.732 208.083 294.908 207.99L294.958 209.049C294.531 209.246 294.014 209.343 293.411 209.343C293.193 209.343 292.963 209.314 292.726 209.257C292.489 209.199 292.27 209.088 292.077 208.927C291.879 208.765 291.718 208.546 291.589 208.266C291.459 207.99 291.398 207.624 291.398 207.172V202.048H289.68V201.007H291.398V198.714H292.543V201.007H294.886V202.048L294.89 202.051Z" fill="#3D4696"/>
<path d="M306.092 205.073C306.092 205.687 305.985 206.254 305.769 206.774C305.554 207.294 305.256 207.746 304.876 208.13C304.496 208.514 304.04 208.812 303.512 209.024C302.985 209.239 302.404 209.347 301.769 209.347C301.133 209.347 300.566 209.239 300.039 209.024C299.511 208.808 299.059 208.511 298.675 208.13C298.291 207.75 297.994 207.298 297.782 206.774C297.567 206.254 297.459 205.687 297.459 205.073C297.459 204.459 297.567 203.892 297.782 203.372C297.997 202.852 298.295 202.4 298.675 202.016C299.056 201.632 299.511 201.334 300.039 201.122C300.566 200.907 301.141 200.799 301.769 200.799C302.396 200.799 302.989 200.907 303.512 201.122C304.04 201.338 304.496 201.635 304.876 202.016C305.256 202.396 305.558 202.848 305.769 203.372C305.985 203.892 306.092 204.459 306.092 205.073ZM304.84 205.073C304.84 204.621 304.768 204.197 304.621 203.806C304.474 203.415 304.27 203.071 304.004 202.78C303.738 202.489 303.416 202.263 303.039 202.095C302.662 201.926 302.239 201.843 301.761 201.843C301.284 201.843 300.861 201.926 300.484 202.095C300.107 202.263 299.788 202.493 299.529 202.78C299.267 203.071 299.067 203.412 298.923 203.806C298.779 204.201 298.708 204.621 298.708 205.073C298.708 205.525 298.779 205.949 298.923 206.34C299.067 206.734 299.271 207.075 299.529 207.366C299.791 207.657 300.107 207.886 300.484 208.051C300.861 208.22 301.284 208.302 301.761 208.302C302.239 208.302 302.662 208.22 303.039 208.051C303.416 207.883 303.735 207.657 304.004 207.366C304.27 207.075 304.474 206.734 304.621 206.34C304.765 205.945 304.84 205.525 304.84 205.073Z" fill="#3D4696"/>
<path d="M309.722 203.544C309.722 203.186 309.715 202.82 309.697 202.45C309.679 202.08 309.665 201.6 309.654 201.007H310.785V202.518H310.82C310.903 202.299 311.018 202.088 311.169 201.883C311.319 201.678 311.502 201.499 311.718 201.338C311.933 201.176 312.18 201.047 312.464 200.946C312.747 200.85 313.07 200.799 313.429 200.799C313.752 200.799 314.036 200.835 314.28 200.903L314.054 202.034C313.903 201.976 313.684 201.948 313.393 201.948C312.952 201.948 312.575 202.03 312.263 202.199C311.951 202.367 311.689 202.579 311.481 202.841C311.273 203.103 311.118 203.383 311.021 203.684C310.925 203.986 310.874 204.276 310.874 204.553V209.139H309.73V203.544H309.722Z" fill="#3D4696"/>
<path d="M318.457 197.882C318.457 198.126 318.371 198.323 318.195 198.481C318.023 198.639 317.829 198.714 317.621 198.714C317.413 198.714 317.223 198.635 317.047 198.481C316.871 198.327 316.785 198.126 316.785 197.882C316.785 197.638 316.871 197.44 317.047 197.283C317.223 197.125 317.413 197.049 317.621 197.049C317.829 197.049 318.02 197.128 318.195 197.283C318.368 197.44 318.457 197.638 318.457 197.882ZM318.195 209.138H317.051V201.011H318.195V209.138Z" fill="#3D4696"/>
<path d="M330.594 205.073C330.594 205.687 330.487 206.254 330.271 206.774C330.056 207.294 329.758 207.746 329.378 208.13C328.998 208.514 328.542 208.812 328.014 209.024C327.487 209.239 326.906 209.347 326.27 209.347C325.635 209.347 325.068 209.239 324.541 209.024C324.013 208.808 323.561 208.511 323.177 208.13C322.793 207.75 322.496 207.298 322.284 206.774C322.069 206.254 321.961 205.687 321.961 205.073C321.961 204.459 322.069 203.892 322.284 203.372C322.499 202.852 322.797 202.4 323.177 202.016C323.558 201.632 324.013 201.334 324.541 201.122C325.068 200.907 325.643 200.799 326.27 200.799C326.898 200.799 327.49 200.907 328.014 201.122C328.542 201.338 328.998 201.635 329.378 202.016C329.758 202.396 330.06 202.848 330.271 203.372C330.487 203.892 330.594 204.459 330.594 205.073ZM329.342 205.073C329.342 204.621 329.27 204.197 329.123 203.806C328.976 203.415 328.771 203.071 328.506 202.78C328.24 202.489 327.917 202.263 327.541 202.095C327.164 201.926 326.741 201.843 326.263 201.843C325.786 201.843 325.363 201.926 324.986 202.095C324.609 202.263 324.29 202.493 324.031 202.78C323.769 203.071 323.568 203.412 323.425 203.806C323.281 204.201 323.21 204.621 323.21 205.073C323.21 205.525 323.281 205.949 323.425 206.34C323.568 206.734 323.773 207.075 324.031 207.366C324.293 207.657 324.609 207.886 324.986 208.051C325.363 208.22 325.786 208.302 326.263 208.302C326.741 208.302 327.164 208.22 327.541 208.051C327.917 207.883 328.237 207.657 328.506 207.366C328.771 207.075 328.976 206.734 329.123 206.34C329.267 205.945 329.342 205.525 329.342 205.073Z" fill="#3D4696"/>
<path d="M349.667 207.262H349.703V196.842H350.955V209.139H349.391L342.06 198.614H342.024V209.139H340.771V196.842H342.336L349.667 207.262Z" fill="#3D4696"/>
<path d="M360.507 204.154V203.946C360.507 202.547 359.811 201.843 358.422 201.843C357.472 201.843 356.646 202.163 355.939 202.798L355.243 201.98C356.008 201.194 357.152 200.799 358.681 200.799C359.076 200.799 359.452 200.857 359.818 200.972C360.184 201.086 360.5 201.266 360.766 201.503C361.031 201.739 361.246 202.037 361.408 202.396C361.569 202.755 361.652 203.182 361.652 203.681V207.312C361.652 207.624 361.666 207.951 361.695 208.292C361.724 208.633 361.756 208.916 361.792 209.135H360.68C360.644 208.938 360.619 208.722 360.601 208.493C360.583 208.263 360.575 208.037 360.575 207.814H360.54C360.202 208.36 359.808 208.751 359.348 208.988C358.889 209.225 358.333 209.343 357.673 209.343C357.314 209.343 356.966 209.293 356.632 209.196C356.295 209.099 355.997 208.948 355.738 208.744C355.477 208.543 355.268 208.292 355.114 207.997C354.956 207.703 354.881 207.359 354.881 206.964C354.881 206.304 355.053 205.787 355.394 205.41C355.735 205.033 356.165 204.754 356.679 204.567C357.195 204.38 357.744 204.266 358.329 204.219C358.914 204.172 359.449 204.151 359.937 204.151H360.511L360.507 204.154ZM359.915 205.091C359.625 205.091 359.262 205.105 358.828 205.134C358.394 205.163 357.978 205.234 357.576 205.342C357.177 205.453 356.833 205.622 356.549 205.855C356.266 206.088 356.122 206.404 356.122 206.81C356.122 207.075 356.176 207.305 356.287 207.495C356.399 207.685 356.546 207.843 356.729 207.965C356.915 208.087 357.12 208.173 357.346 208.227C357.572 208.281 357.802 208.306 358.031 208.306C358.448 208.306 358.81 208.238 359.119 208.098C359.424 207.958 359.682 207.771 359.89 207.535C360.098 207.298 360.253 207.018 360.349 206.702C360.446 206.383 360.497 206.045 360.497 205.687V205.094H359.904L359.915 205.091Z" fill="#3D4696"/>
<path d="M371.657 202.92C371.46 202.618 371.183 202.363 370.832 202.155C370.476 201.947 370.074 201.843 369.626 201.843C369.152 201.832 368.725 201.908 368.349 202.069C367.972 202.231 367.652 202.457 367.383 202.747C367.118 203.038 366.913 203.383 366.777 203.781C366.637 204.179 366.569 204.613 366.569 205.076C366.569 205.539 366.637 205.97 366.777 206.372C366.917 206.77 367.118 207.114 367.383 207.405C367.649 207.696 367.972 207.922 368.349 208.083C368.725 208.245 369.149 208.32 369.626 208.309C370.078 208.309 370.48 208.205 370.832 207.997C371.183 207.789 371.46 207.534 371.657 207.233L372.593 207.943C372.188 208.417 371.732 208.769 371.223 208.995C370.713 209.221 370.182 209.339 369.626 209.35C368.966 209.361 368.37 209.26 367.835 209.045C367.304 208.83 366.849 208.532 366.472 208.151C366.095 207.767 365.808 207.315 365.611 206.788C365.413 206.26 365.316 205.69 365.316 205.076C365.316 204.463 365.413 203.892 365.611 203.365C365.808 202.837 366.095 202.381 366.472 202.001C366.849 201.621 367.304 201.319 367.835 201.108C368.366 200.892 368.966 200.792 369.626 200.803C370.182 200.813 370.713 200.932 371.223 201.158C371.732 201.384 372.188 201.735 372.593 202.209L371.657 202.92Z" fill="#3D4696"/>
<path d="M377.196 197.882C377.196 198.126 377.109 198.323 376.934 198.481C376.761 198.639 376.568 198.714 376.359 198.714C376.151 198.714 375.961 198.635 375.785 198.481C375.61 198.327 375.523 198.126 375.523 197.882C375.523 197.638 375.61 197.44 375.785 197.283C375.961 197.125 376.151 197.049 376.359 197.049C376.568 197.049 376.758 197.128 376.934 197.283C377.106 197.44 377.196 197.638 377.196 197.882ZM376.934 209.138H375.789V201.011H376.934V209.138Z" fill="#3D4696"/>
<path d="M389.338 205.073C389.338 205.687 389.231 206.254 389.016 206.774C388.8 207.294 388.502 207.746 388.122 208.13C387.742 208.514 387.286 208.812 386.759 209.024C386.231 209.239 385.65 209.347 385.015 209.347C384.379 209.347 383.813 209.239 383.285 209.024C382.758 208.808 382.305 208.511 381.922 208.13C381.538 207.75 381.24 207.298 381.028 206.774C380.813 206.254 380.705 205.687 380.705 205.073C380.705 204.459 380.813 203.892 381.028 203.372C381.243 202.852 381.541 202.4 381.922 202.016C382.302 201.632 382.758 201.334 383.285 201.122C383.813 200.907 384.387 200.799 385.015 200.799C385.643 200.799 386.235 200.907 386.759 201.122C387.286 201.338 387.742 201.635 388.122 202.016C388.502 202.396 388.804 202.848 389.016 203.372C389.231 203.892 389.338 204.459 389.338 205.073ZM388.086 205.073C388.086 204.621 388.014 204.197 387.867 203.806C387.72 203.415 387.516 203.071 387.25 202.78C386.985 202.489 386.662 202.263 386.285 202.095C385.908 201.926 385.485 201.843 385.007 201.843C384.53 201.843 384.107 201.926 383.73 202.095C383.353 202.263 383.034 202.493 382.776 202.78C382.514 203.071 382.313 203.412 382.169 203.806C382.026 204.201 381.954 204.621 381.954 205.073C381.954 205.525 382.026 205.949 382.169 206.34C382.313 206.734 382.517 207.075 382.776 207.366C383.037 207.657 383.353 207.886 383.73 208.051C384.107 208.22 384.53 208.302 385.007 208.302C385.485 208.302 385.908 208.22 386.285 208.051C386.662 207.883 386.981 207.657 387.25 207.366C387.516 207.075 387.72 206.734 387.867 206.34C388.011 205.945 388.086 205.525 388.086 205.073Z" fill="#3D4696"/>
<path d="M393.942 201.007C393.964 201.226 393.978 201.445 393.985 201.66C393.993 201.875 393.992 202.091 393.992 202.31H394.028C394.154 202.091 394.319 201.886 394.516 201.703C394.714 201.517 394.933 201.359 395.177 201.226C395.421 201.093 395.679 200.989 395.948 200.914C396.221 200.838 396.49 200.802 396.755 200.802C397.796 200.802 398.568 201.079 399.066 201.628C399.565 202.177 399.813 202.963 399.813 203.982V209.142H398.668V204.642C398.668 203.738 398.51 203.045 398.198 202.568C397.886 202.087 397.308 201.847 396.461 201.847C396.404 201.847 396.242 201.872 395.973 201.915C395.708 201.961 395.428 202.087 395.13 202.299C394.836 202.507 394.57 202.819 394.341 203.235C394.107 203.652 393.992 204.233 393.992 204.972V209.142H392.848V202.801C392.848 202.582 392.841 202.302 392.823 201.969C392.805 201.631 392.787 201.316 392.762 201.014H393.942V201.007Z" fill="#3D4696"/>
<path d="M409.136 204.154V203.946C409.136 202.547 408.44 201.843 407.051 201.843C406.101 201.843 405.275 202.163 404.568 202.798L403.872 201.98C404.636 201.194 405.781 200.799 407.31 200.799C407.704 200.799 408.081 200.857 408.447 200.972C408.813 201.086 409.129 201.266 409.395 201.503C409.66 201.739 409.875 202.037 410.037 202.396C410.198 202.755 410.281 203.182 410.281 203.681V207.312C410.281 207.624 410.295 207.951 410.324 208.292C410.353 208.633 410.385 208.916 410.421 209.135H409.308C409.273 208.938 409.247 208.722 409.229 208.493C409.212 208.263 409.204 208.037 409.204 207.814H409.169C408.831 208.36 408.436 208.751 407.977 208.988C407.518 209.225 406.962 209.343 406.301 209.343C405.943 209.343 405.595 209.293 405.261 209.196C404.924 209.099 404.626 208.948 404.367 208.744C404.105 208.543 403.897 208.292 403.743 207.997C403.585 207.703 403.51 207.359 403.51 206.964C403.51 206.304 403.682 205.787 404.023 205.41C404.364 205.033 404.794 204.754 405.308 204.567C405.824 204.38 406.373 204.266 406.958 204.219C407.543 204.172 408.078 204.151 408.566 204.151H409.14L409.136 204.154ZM408.544 205.091C408.254 205.091 407.891 205.105 407.457 205.134C407.023 205.163 406.606 205.234 406.205 205.342C405.806 205.453 405.462 205.622 405.178 205.855C404.895 206.088 404.751 206.404 404.751 206.81C404.751 207.075 404.805 207.305 404.916 207.495C405.028 207.685 405.175 207.843 405.358 207.965C405.544 208.087 405.749 208.173 405.975 208.227C406.201 208.281 406.431 208.306 406.66 208.306C407.077 208.306 407.439 208.238 407.748 208.098C408.053 207.958 408.311 207.771 408.519 207.535C408.727 207.298 408.881 207.018 408.978 206.702C409.075 206.383 409.125 206.045 409.125 205.687V205.094H408.533L408.544 205.091Z" fill="#3D4696"/>
<path d="M415.77 209.138H414.625V196.009H415.77V209.138Z" fill="#3D4696"/>
<path d="M434.32 209.138H433.175V207.782H433.139C432.953 208.058 432.734 208.299 432.479 208.492C432.224 208.69 431.959 208.851 431.679 208.98C431.402 209.11 431.115 209.199 430.818 209.257C430.523 209.314 430.24 209.343 429.974 209.343C429.336 209.343 428.754 209.235 428.23 209.02C427.703 208.805 427.247 208.507 426.867 208.126C426.486 207.746 426.185 207.294 425.973 206.77C425.758 206.25 425.65 205.683 425.65 205.069C425.65 204.456 425.758 203.889 425.973 203.368C426.189 202.848 426.486 202.396 426.867 202.012C427.247 201.628 427.703 201.33 428.23 201.119C428.758 200.903 429.339 200.796 429.974 200.796C430.24 200.796 430.52 200.824 430.818 200.882C431.112 200.939 431.399 201.032 431.679 201.158C431.955 201.287 432.224 201.449 432.479 201.646C432.734 201.843 432.953 202.08 433.139 202.357H433.175V195.998H434.32V209.128V209.138ZM426.903 205.073C426.903 205.525 426.975 205.948 427.122 206.339C427.265 206.734 427.473 207.075 427.739 207.366C428.004 207.656 428.327 207.886 428.704 208.051C429.081 208.22 429.504 208.302 429.981 208.302C430.459 208.302 430.875 208.22 431.277 208.051C431.675 207.882 432.02 207.656 432.31 207.366C432.601 207.075 432.827 206.734 432.988 206.339C433.15 205.945 433.232 205.525 433.232 205.073C433.232 204.621 433.15 204.197 432.988 203.806C432.827 203.411 432.601 203.071 432.31 202.78C432.02 202.489 431.675 202.263 431.277 202.095C430.879 201.926 430.444 201.843 429.981 201.843C429.519 201.843 429.081 201.926 428.704 202.095C428.327 202.263 428.008 202.493 427.739 202.78C427.473 203.071 427.269 203.411 427.122 203.806C426.978 204.201 426.903 204.621 426.903 205.073Z" fill="#3D4696"/>
<path d="M439.043 205.385C439.079 205.79 439.176 206.174 439.337 206.529C439.499 206.888 439.714 207.197 439.979 207.459C440.245 207.721 440.554 207.925 440.902 208.076C441.25 208.227 441.626 208.302 442.032 208.302C442.646 208.302 443.177 208.162 443.622 207.875C444.067 207.592 444.407 207.265 444.637 206.892L445.523 207.62C445.035 208.234 444.501 208.675 443.916 208.941C443.331 209.206 442.703 209.339 442.032 209.339C441.429 209.339 440.869 209.231 440.356 209.016C439.839 208.801 439.398 208.503 439.029 208.123C438.659 207.742 438.365 207.29 438.153 206.766C437.938 206.246 437.83 205.679 437.83 205.065C437.83 204.452 437.934 203.885 438.142 203.365C438.35 202.844 438.641 202.392 439.011 202.008C439.38 201.624 439.814 201.326 440.313 201.115C440.812 200.899 441.35 200.792 441.928 200.792C442.541 200.792 443.091 200.903 443.579 201.122C444.067 201.341 444.472 201.635 444.802 201.997C445.132 202.36 445.383 202.79 445.559 203.282C445.731 203.774 445.821 204.298 445.821 204.854V205.374H439.047L439.043 205.385ZM444.565 204.448C444.565 203.673 444.332 203.045 443.869 202.564C443.406 202.084 442.757 201.843 441.924 201.843C441.555 201.843 441.196 201.915 440.848 202.062C440.5 202.206 440.198 202.399 439.936 202.643C439.674 202.887 439.466 203.164 439.312 203.476C439.158 203.788 439.079 204.115 439.079 204.448H444.565Z" fill="#3D4696"/>
<path d="M457.245 207.99H462.975V209.135H455.992V196.838H457.245V207.99Z" fill="#3D4696"/>
<path d="M473.903 205.073C473.903 205.687 473.795 206.254 473.58 206.774C473.365 207.294 473.067 207.746 472.687 208.13C472.306 208.514 471.85 208.812 471.323 209.024C470.796 209.239 470.214 209.347 469.579 209.347C468.944 209.347 468.377 209.239 467.85 209.024C467.322 208.808 466.87 208.511 466.486 208.13C466.102 207.75 465.804 207.298 465.592 206.774C465.377 206.254 465.27 205.687 465.27 205.073C465.27 204.459 465.377 203.892 465.592 203.372C465.808 202.852 466.106 202.4 466.486 202.016C466.866 201.632 467.322 201.334 467.85 201.122C468.377 200.907 468.951 200.799 469.579 200.799C470.207 200.799 470.799 200.907 471.323 201.122C471.85 201.338 472.306 201.635 472.687 202.016C473.067 202.396 473.368 202.848 473.58 203.372C473.795 203.892 473.903 204.459 473.903 205.073ZM472.651 205.073C472.651 204.621 472.579 204.197 472.432 203.806C472.285 203.415 472.08 203.071 471.815 202.78C471.549 202.489 471.226 202.263 470.849 202.095C470.473 201.926 470.049 201.843 469.572 201.843C469.095 201.843 468.671 201.926 468.294 202.095C467.918 202.263 467.598 202.493 467.34 202.78C467.078 203.071 466.877 203.412 466.734 203.806C466.59 204.201 466.518 204.621 466.518 205.073C466.518 205.525 466.59 205.949 466.734 206.34C466.877 206.734 467.082 207.075 467.34 207.366C467.602 207.657 467.918 207.886 468.294 208.051C468.671 208.22 469.095 208.302 469.572 208.302C470.049 208.302 470.473 208.22 470.849 208.051C471.226 207.883 471.545 207.657 471.815 207.366C472.08 207.075 472.285 206.734 472.432 206.34C472.575 205.945 472.651 205.525 472.651 205.073Z" fill="#3D4696"/>
<path d="M478.038 210.771C478.375 211.223 478.809 211.585 479.347 211.858C479.886 212.131 480.485 212.267 481.145 212.267C481.723 212.267 482.214 212.185 482.62 212.016C483.025 211.847 483.352 211.618 483.6 211.331C483.847 211.04 484.027 210.703 484.138 210.315C484.249 209.928 484.303 209.511 484.303 209.073V207.613H484.267C483.897 208.169 483.445 208.564 482.911 208.794C482.376 209.027 481.816 209.142 481.224 209.142C480.632 209.142 480.079 209.038 479.566 208.829C479.053 208.621 478.601 208.334 478.221 207.968C477.84 207.602 477.539 207.168 477.316 206.659C477.098 206.149 476.986 205.6 476.986 205.008C476.986 204.416 477.09 203.867 477.299 203.357C477.507 202.848 477.794 202.403 478.16 202.019C478.526 201.635 478.96 201.337 479.462 201.125C479.965 200.91 480.517 200.802 481.12 200.802C481.364 200.802 481.622 200.828 481.892 200.871C482.164 200.917 482.437 201 482.71 201.115C482.982 201.229 483.251 201.391 483.517 201.592C483.783 201.796 484.034 202.051 484.263 202.363H484.299V201.007H485.444V209.066C485.444 209.508 485.39 209.974 485.279 210.473C485.168 210.972 484.956 211.427 484.637 211.844C484.317 212.26 483.876 212.608 483.309 212.884C482.742 213.161 481.999 213.301 481.084 213.301C480.273 213.301 479.548 213.168 478.913 212.902C478.275 212.637 477.697 212.224 477.177 211.668L478.027 210.764L478.038 210.771ZM478.246 204.968C478.246 205.395 478.325 205.801 478.479 206.174C478.637 206.551 478.849 206.881 479.121 207.165C479.394 207.448 479.713 207.674 480.076 207.843C480.442 208.011 480.837 208.094 481.267 208.094C481.698 208.094 482.082 208.019 482.458 207.868C482.835 207.717 483.169 207.505 483.456 207.233C483.743 206.96 483.969 206.633 484.123 206.25C484.281 205.869 484.353 205.439 484.342 204.965C484.342 204.538 484.274 204.132 484.134 203.759C483.994 203.382 483.793 203.052 483.528 202.769C483.262 202.485 482.936 202.259 482.555 202.091C482.171 201.922 481.744 201.84 481.271 201.84C480.844 201.84 480.445 201.922 480.079 202.091C479.713 202.259 479.398 202.485 479.125 202.769C478.852 203.052 478.637 203.382 478.483 203.759C478.328 204.136 478.249 204.538 478.249 204.965L478.246 204.968Z" fill="#3D4696"/>
<path d="M490.245 199.343H489.219L490.955 196.842H492.534L490.241 199.343H490.245ZM490.851 209.139H489.707V201.011H490.851V209.139Z" fill="#3D4696"/>
<path d="M499.347 202.938C499.175 202.601 498.942 202.335 498.651 202.138C498.36 201.94 498.009 201.843 497.592 201.843C497.395 201.843 497.194 201.869 496.993 201.912C496.789 201.958 496.609 202.03 496.444 202.131C496.279 202.231 496.15 202.353 496.053 202.504C495.956 202.654 495.906 202.841 495.906 203.06C495.906 203.444 496.039 203.72 496.304 203.892C496.57 204.065 496.972 204.215 497.503 204.344L498.665 204.621C499.232 204.75 499.706 205.005 500.079 205.392C500.456 205.78 500.642 206.264 500.642 206.842C500.642 207.283 500.553 207.66 500.373 207.979C500.194 208.299 499.957 208.557 499.663 208.762C499.369 208.966 499.028 209.113 498.647 209.203C498.267 209.293 497.876 209.343 497.485 209.343C496.86 209.343 496.279 209.225 495.741 208.988C495.203 208.751 494.743 208.342 494.359 207.764L495.35 207.086C495.579 207.456 495.874 207.753 496.225 207.972C496.577 208.191 496.997 208.302 497.485 208.302C497.718 208.302 497.948 208.277 498.181 208.223C498.411 208.17 498.619 208.091 498.798 207.979C498.977 207.868 499.121 207.728 499.232 207.552C499.343 207.38 499.397 207.176 499.397 206.946C499.397 206.541 499.247 206.25 498.945 206.07C498.644 205.891 498.278 205.747 497.851 205.643L496.738 205.381C496.598 205.346 496.412 205.288 496.175 205.209C495.938 205.13 495.705 205.008 495.479 204.843C495.253 204.682 495.059 204.47 494.898 204.208C494.736 203.946 494.654 203.627 494.654 203.243C494.654 202.827 494.736 202.461 494.905 202.148C495.073 201.836 495.299 201.581 495.583 201.384C495.866 201.187 496.189 201.04 496.548 200.943C496.907 200.846 497.277 200.796 497.661 200.796C498.228 200.796 498.755 200.907 499.239 201.126C499.727 201.345 500.101 201.721 500.37 202.256L499.343 202.934L499.347 202.938Z" fill="#3D4696"/>
<path d="M508.066 202.051H505.723V206.845C505.723 207.147 505.751 207.391 505.809 207.585C505.866 207.775 505.949 207.922 506.053 208.026C506.157 208.13 506.282 208.202 506.426 208.241C506.569 208.281 506.731 208.302 506.903 208.302C507.1 208.302 507.301 208.274 507.509 208.216C507.718 208.159 507.908 208.083 508.084 207.99L508.134 209.049C507.707 209.246 507.19 209.343 506.587 209.343C506.368 209.343 506.139 209.314 505.902 209.257C505.665 209.199 505.446 209.088 505.252 208.927C505.055 208.765 504.894 208.546 504.764 208.266C504.635 207.99 504.574 207.624 504.574 207.172V202.048H502.855V201.007H504.574V198.714H505.719V201.007H508.062V202.048L508.066 202.051Z" fill="#3D4696"/>
<path d="M512.719 197.882C512.719 198.126 512.633 198.323 512.457 198.481C512.285 198.639 512.091 198.714 511.883 198.714C511.675 198.714 511.485 198.635 511.309 198.481C511.133 198.327 511.047 198.126 511.047 197.882C511.047 197.638 511.133 197.44 511.309 197.283C511.485 197.125 511.675 197.049 511.883 197.049C512.091 197.049 512.281 197.128 512.457 197.283C512.629 197.44 512.719 197.638 512.719 197.882ZM512.457 209.138H511.312V201.011H512.457V209.138Z" fill="#3D4696"/>
<path d="M522.569 202.92C522.372 202.618 522.095 202.363 521.744 202.155C521.388 201.947 520.987 201.843 520.538 201.843C520.064 201.832 519.637 201.908 519.261 202.069C518.884 202.231 518.564 202.457 518.295 202.747C518.03 203.038 517.825 203.383 517.689 203.781C517.549 204.179 517.481 204.613 517.481 205.076C517.481 205.539 517.549 205.97 517.689 206.372C517.829 206.77 518.03 207.114 518.295 207.405C518.561 207.696 518.884 207.922 519.261 208.083C519.637 208.245 520.061 208.32 520.538 208.309C520.99 208.309 521.392 208.205 521.744 207.997C522.095 207.789 522.372 207.534 522.569 207.233L523.506 207.943C523.1 208.417 522.644 208.769 522.135 208.995C521.625 209.221 521.094 209.339 520.538 209.35C519.878 209.361 519.282 209.26 518.747 209.045C518.216 208.83 517.761 208.532 517.384 208.151C517.007 207.767 516.72 207.315 516.523 206.788C516.325 206.26 516.229 205.69 516.229 205.076C516.229 204.463 516.325 203.892 516.523 203.365C516.72 202.837 517.007 202.381 517.384 202.001C517.761 201.621 518.216 201.319 518.747 201.108C519.279 200.892 519.878 200.792 520.538 200.803C521.094 200.813 521.625 200.932 522.135 201.158C522.644 201.384 523.1 201.735 523.506 202.209L522.569 202.92Z" fill="#3D4696"/>
<path d="M531.654 204.154V203.946C531.654 202.547 530.958 201.843 529.569 201.843C528.618 201.843 527.793 202.163 527.086 202.798L526.39 201.98C527.154 201.194 528.299 200.799 529.827 200.799C530.222 200.799 530.599 200.857 530.965 200.972C531.331 201.086 531.647 201.266 531.912 201.503C532.178 201.739 532.393 202.037 532.554 202.396C532.716 202.755 532.798 203.182 532.798 203.681V207.312C532.798 207.624 532.813 207.951 532.841 208.292C532.87 208.633 532.902 208.916 532.938 209.135H531.826C531.79 208.938 531.765 208.722 531.747 208.493C531.729 208.263 531.722 208.037 531.722 207.814H531.686C531.349 208.36 530.954 208.751 530.495 208.988C530.035 209.225 529.479 209.343 528.819 209.343C528.46 209.343 528.112 209.293 527.778 209.196C527.441 209.099 527.143 208.948 526.885 208.744C526.623 208.543 526.415 208.292 526.261 207.997C526.103 207.703 526.027 207.359 526.027 206.964C526.027 206.304 526.2 205.787 526.54 205.41C526.881 205.033 527.312 204.754 527.825 204.567C528.342 204.38 528.891 204.266 529.476 204.219C530.061 204.172 530.595 204.151 531.083 204.151H531.657L531.654 204.154ZM531.062 205.091C530.771 205.091 530.409 205.105 529.974 205.134C529.54 205.163 529.124 205.234 528.722 205.342C528.324 205.453 527.979 205.622 527.696 205.855C527.412 206.088 527.269 206.404 527.269 206.81C527.269 207.075 527.323 207.305 527.434 207.495C527.545 207.685 527.692 207.843 527.875 207.965C528.062 208.087 528.266 208.173 528.492 208.227C528.719 208.281 528.948 208.306 529.178 208.306C529.594 208.306 529.956 208.238 530.265 208.098C530.57 207.958 530.828 207.771 531.037 207.535C531.245 207.298 531.399 207.018 531.496 206.702C531.593 206.383 531.643 206.045 531.643 205.687V205.094H531.051L531.062 205.091Z" fill="#3D4696"/>
</svg>
